**ABCDEFGHIJKLMNOPQRSTUVWXYZabcdefghijklmnopqrstuvwxyz**************************
**PARASOLID !"#$%&'()*+,-./:;<=>?@[\]^_`{|}~0123456789**************************
**PART1;
MC=AMD64;
MC_MODEL=Intel64 Family 6 Model 60 Stepping 3, GenuineIntel;
MC_ID=unknown;
OS=Windows_NT;
OS_RELEASE=unknown;
FRU=Parasolid Version 30.0, build 310,  6- 8-2018;
APPL=SOLIDWORKS 2018-2018316;
SITE=;
USER=unknown;
FORMAT=text;
GUISE=transmit;
KEY=R_L11.9_D4.5_P7.62_DIN0414_Vertical;
FILE=R_L11.9_D4.5_P7.62_DIN0414_Vertical.x_t;
DATE=Thu Feb 29 20:40:51 2024;
**PART2;
SCH=SCH_3000310_30000;
USFLD_SIZE=0;
**PART3;
**END_OF_HEADER*****************************************************************
T51 : TRANSMIT FILE created by modeller version 300031017 SCH_2000000_200000 12
 1 577 2 3 0 0 0 0 1e3 1e-8 0 4 0 1 0 1 1 5 6 7 8 9 10 11 0 0 0 0 81 2 2 399 12
 1 0 0 0 0 13 0 70 3 0 4 T1 0 0 3 20 1 14 14 13 5 77 0 1 0 15 0 0 16 0 50 6 73 0
 17 18 0 0 +-.00762 -.002 0 1164243943608596e-31 -1 0 0 0 1 31 7 129 0 19 20 0 0
 +0 .0124 0 0 1 0 0 0 1 375e-6 29 8 65 0 11 21 0 -.00762 -.002 375e-6 19 9 78 0
 1 16 0 22 V16 10 29 0 ?23 0 24 25 0 0 1 18 11 64 0 26 0 27 8 ?1 17 26 0 28 26 2
6 11 29 30 0 29 -18 27 51 0 23 11 0 21 ?1 17 23 0 31 23 23 27 32 10 0 32 +29 21
 52 0 27 0 8 0 -.002 375e-6 15 31 30 0 23 33 0 17 32 0 34 32 32 27 23 10 0 0 -15
 34 56 0 32 35 0 14 35 54 36 ?33 37 34 5 18 -0 0 33 37 22 81 1 36 553 38 35 39 0
 0 40 41 14 33 28 40 ?42 35 43 5 44 -45 45 42 35 22 14 37 272 46 ?35 47 48 5 49
 -0 0 35 47 22 50 18 60 0 35 44 6 0 +0 -.002 0 0 1 0 0 0 1 13 22 3 0 0 0 0 0 0 9
 15 14 15 300 50 ?51 0 52 5 53 +54 55 51 0 22 81 1 50 556 38 15 56 0 46 57 58 14
 51 257 57 ?59 15 60 5 53 +55 54 59 15 22 15 52 199 0 61 15 62 51 53 169 0 51 63
 64 0 +0 0 0 0 -1 0 .00225 0 0 -1 14 54 251 65 ?66 67 68 5 53 +51 15 66 67 22 14
 55 306 69 ?0 70 71 5 53 +15 51 0 70 22 81 1 69 559 38 55 72 0 65 73 74 14 70 14
9 73 ?55 75 76 5 64 +0 0 55 75 22 15 71 155 0 77 55 78 17 77 0 71 77 77 0 79 80
 0 0 +15 78 303 0 81 55 0 17 81 0 78 81 81 0 82 83 0 0 +17 82 0 84 82 82 0 81 83
 0 0 -16 83 312 0 ?81 85 0 86 0 0 1 16 85 311 0 ?87 88 83 89 0 0 1 31 86 338 0 8
3 0 89 0 +-243711214836784e-31 .00895 0 -306554987216081e-29 1 0 -1 -30655498721
6081e-29 0 .00225 31 89 337 0 85 86 90 0 +-213055716115176e-31 .00795 0 -3065549
87216081e-29 1 0 -1 -306554987216081e-29 0 .00225 31 90 336 0 88 89 91 0 +-21305
5716115176e-31 .00795 0 -306554987216081e-29 1 0 -1 -306554987216081e-29 0 .0022
55 16 88 310 0 ?92 93 85 90 0 0 1 31 91 335 0 93 90 94 0 +-243711214836784e-31 .
00895 0 -306554987216081e-29 1 0 -1 -306554987216081e-29 0 .002255 16 93 309 0 ?
95 96 88 91 0 0 1 31 94 289 0 96 91 97 0 +-1210892199503516e-32 .00495 0 -306554
987216081e-29 1 0 -1 -306554987216081e-29 0 .002250000000000035 16 96 263 0 ?98
 99 93 94 0 0 1 31 97 288 0 99 94 100 0 +-904337212287435e-32 .00395 0 -30655498
7216081e-29 1 0 -1 -306554987216081e-29 0 .00225000000000003 16 99 262 0 ?101 10
2 96 97 0 0 1 31 100 287 0 102 97 103 0 +-904337212287435e-32 .00395 0 -30655498
7216081e-29 1 0 -1 -306554987216081e-29 0 .00225500000000003 16 102 261 0 ?104 1
05 99 100 0 0 1 31 103 286 0 105 100 106 0 +-1210892199503516e-32 .00495 0 -3065
54987216081e-29 1 0 -1 -306554987216081e-29 0 .002255000000000035 16 105 260 0 ?
107 108 102 103 0 0 1 31 106 240 0 108 103 109 0 +-182400217393568e-31 .00695 0
 -306554987216081e-29 1 0 -1 -306554987216081e-29 0 .00225 16 108 211 0 ?61 110
 105 106 0 0 1 31 109 239 0 110 106 111 0 +-182400217393568e-31 .00695 0 -306554
987216081e-29 1 0 -1 -306554987216081e-29 0 .002255 16 110 214 0 ?112 113 108 10
9 0 0 1 31 111 238 0 113 109 114 0 +-1517447186719595e-32 .00595 0 -306554987216
081e-29 1 0 -1 -306554987216081e-29 0 .002255 16 113 213 0 ?115 116 110 111 0 0
 1 31 114 237 0 116 111 117 0 +-1517447186719595e-32 .00595 0 -306554987216081e-
29 1 0 -1 -306554987216081e-29 0 .00225 16 116 212 0 ?118 119 113 114 0 0 1 31 1
17 175 0 119 114 120 0 +0 5e-4 0 0 -1 0 0 0 -1 .00175 16 119 138 0 ?121 122 116
 117 0 0 1 31 120 174 0 122 117 123 0 +0 .001 0 0 -1 0 0 0 -1 .00225 16 122 137
 0 ?124 80 119 120 0 0 1 31 123 173 0 80 120 125 0 +0 .0119 0 0 -1 0 0 0 -1 .002
25 16 80 136 0 ?77 126 122 123 0 0 1 31 125 172 0 126 123 127 0 +0 .0124 0 0 -1
 0 0 0 -1 .00175 16 126 135 0 ?128 129 80 125 0 0 1 31 127 40 0 30 125 130 0 +-.
00762 -.002 0 1164243943608596e-31 -1 0 0 0 1 375e-6 16 30 6 0 ?29 131 19 127 0
 0 1 31 130 41 0 131 127 132 0 +-.00762 .0129 0 1164243943608596e-31 -1 0 0 0 1
 375e-6 16 131 9 0 ?133 134 30 130 0 0 1 31 132 42 0 134 130 135 0 +-.00687 .013
65 0 -1 0 0 0 0 1 375e-6 16 134 13 0 ?136 137 131 132 0 0 1 31 135 43 0 137 132
 138 0 +-75e-5 .01365 0 -1 2834515483622235e-31 0 0 0 1 375e-6 16 137 17 0 ?139
 24 134 135 0 0 1 31 138 44 0 24 135 25 0 +3252606517456515e-34 .0129 0 0 1 0 0
 0 1 375e-6 16 24 21 0 ?140 10 137 138 0 0 1 31 25 45 0 10 138 20 0 +0 -.002 0 0
 1 0 0 0 1 375e-6 31 20 123 0 129 25 7 0 +0 5e-4 0 0 -1 0 0 0 -1 375e-6 16 129 1
34 0 ?141 19 126 20 0 0 1 17 141 0 43 141 141 0 142 129 0 0 +16 19 133 0 ?143 30
 129 7 0 0 1 17 143 0 144 143 143 0 145 19 0 0 +15 144 127 0 143 45 146 17 145 0
 147 145 145 0 143 19 0 0 -15 147 147 0 145 75 148 14 75 145 149 ?70 45 147 5 15
0 +0 0 70 45 22 15 148 148 0 151 75 0 17 151 0 148 151 151 0 128 126 0 0 -17 128
 0 76 128 128 0 151 126 0 0 +15 76 151 0 128 70 152 15 152 152 0 79 70 0 17 79 0
 152 79 79 0 77 80 0 0 -81 1 149 561 38 75 153 0 73 154 155 14 45 124 154 ?75 15
6 144 5 44 -33 33 75 156 22 50 150 167 0 75 64 157 0 +-2449293598294705e-34 .012
4 0 0 1 0 0 0 1 54 64 168 0 70 53 150 0 +0 .0119 0 0 -1 0 .00175 5e-4 0 0 -1 51
 157 35 0 158 150 159 0 --.00762 -.002 0 -1164243943608596e-31 1 0 375e-6 -1 -11
64243943608596e-31 0 14 158 2 160 ?161 17 162 5 157 -0 0 161 17 22 54 159 36 0 1
61 157 163 0 --.00687 .0129 0 0 0 -1 75e-5 375e-6 -1 0 0 14 161 12 164 ?165 158
 166 5 159 -0 0 165 158 22 51 163 37 0 165 159 167 0 --.00687 .01365 0 1 -283451
5483622235e-31 0 375e-6 2834515483622235e-31 1 0 14 165 16 168 ?156 161 169 5 16
3 -0 0 156 161 22 54 167 38 0 156 163 44 0 --75e-5 .0129 0 0 0 -1 75e-5 375e-6 -
1 0 0 14 156 20 170 ?45 165 171 5 167 -0 0 45 165 22 51 44 39 0 33 167 18 0 -0 .
0129 0 0 -1 0 375e-6 0 0 -1 81 1 170 566 38 156 172 0 168 173 174 15 171 22 0 14
0 156 175 17 140 0 171 140 140 0 176 24 0 0 +15 175 19 0 177 156 0 17 177 0 175
 177 177 0 139 137 0 0 -17 139 0 169 139 139 0 177 137 0 0 +15 169 18 0 139 165
 178 15 178 15 0 179 165 0 17 179 0 178 179 179 0 136 134 0 0 -17 136 0 166 136
 136 0 179 134 0 0 +15 166 14 0 136 161 180 15 180 11 0 181 161 0 17 181 0 180 1
81 181 0 133 131 0 0 -17 133 0 162 133 133 0 181 131 0 0 +15 162 10 0 133 158 28
 15 28 7 0 26 158 0 17 176 0 146 176 176 0 140 24 0 0 -15 146 23 0 176 45 0 80 1
 38 182 183 9000 1 1 1 1 1 1 1 1 0 FFFFTFTFFFFFFF1 81 1 172 496 184 156 0 170 18
5 186 187 81 1 168 565 38 165 185 0 164 170 188 81 1 173 567 38 67 189 0 170 190
 191 82 1 174 -2101083907 14 67 157 173 ?54 42 192 5 63 +0 0 54 42 22 81 1 189 4
87 184 67 0 173 193 194 195 81 1 190 568 38 42 193 0 173 196 197 82 1 191 -19931
46114 14 42 161 190 ?67 33 198 5 199 +0 0 67 33 22 81 1 193 486 184 42 0 190 200
 189 201 81 1 196 569 38 59 202 0 190 203 204 82 1 197 -1993735938 14 59 219 196
 ?205 51 206 5 207 -0 0 205 51 22 81 1 202 478 184 59 0 196 208 209 210 81 1 203
 570 38 205 209 0 196 211 212 82 1 204 -1936654080 14 205 223 203 ?213 59 214 5
 215 -0 0 213 59 22 81 1 209 479 184 205 0 203 202 216 217 81 1 211 571 38 213 2
16 0 203 218 219 82 1 212 -1937243904 14 213 227 211 ?220 205 221 5 222 -0 0 220
 205 22 81 1 216 480 184 213 0 211 209 223 224 81 1 218 572 38 220 223 0 211 225
 226 82 1 219 -1937833728 14 220 264 218 ?47 213 227 5 228 -0 0 47 213 22 81 1 2
23 481 184 220 0 218 216 229 230 81 1 225 573 38 47 229 0 218 231 232 82 1 226 -
1928986368 14 47 268 225 ?37 220 233 5 234 -0 0 37 220 22 81 1 229 482 184 47 0
 225 223 235 236 81 1 231 574 38 66 237 0 225 238 239 82 1 232 -1929314048 14 66
 313 231 ?240 54 84 5 241 -0 0 240 54 22 81 1 237 489 184 66 0 231 194 242 243 8
1 1 238 575 38 240 242 0 231 244 245 82 1 239 -1921711872 14 240 317 238 ?246 66
 247 5 248 -0 0 246 66 22 81 1 242 490 184 240 0 238 237 249 250 81 1 244 576 38
 246 249 0 238 251 252 82 1 245 -1922039552 14 246 321 244 ?17 240 253 5 254 -0
 0 17 240 22 81 1 249 491 184 246 0 244 242 255 256 81 1 251 577 38 17 255 0 244
 0 257 82 1 252 -1922629376 14 17 67 251 ?158 246 258 5 6 +0 0 158 246 22 81 1 2
55 492 184 17 0 251 249 259 260 82 1 257 -2097872643 80 1 184 0 261 8001 0 0 0 0
 3 5 0 0 0 FFFFTFTFFFFFFF2 81 1 259 493 184 158 0 160 255 262 263 83 3 260 .8 .8
11764705882353 .8 81 1 160 563 38 158 259 0 154 164 264 81 1 262 494 184 161 0 1
64 259 185 265 83 3 263 .8 .811764705882353 .8 81 1 164 564 38 161 262 0 160 168
 266 81 1 185 495 184 165 0 168 262 172 267 83 3 265 .8 .811764705882353 .8 83 3
 267 .8 .811764705882353 .8 82 1 266 -2101870339 81 1 154 562 38 45 186 0 149 16
0 268 82 1 264 -2102591235 81 1 186 497 184 45 0 154 172 153 269 82 1 268 -19875
75554 81 1 153 498 184 75 0 149 186 270 271 83 3 269 .8 .811764705882353 .8 81 1
 270 499 184 70 0 73 153 72 272 83 3 271 1 1 .752941176470588 81 1 73 560 38 70
 270 0 69 149 273 81 1 72 500 184 55 0 69 270 0 274 83 3 272 1 1 .75294117647058
8 83 3 274 1 1 .752941176470588 82 1 273 -1991966466 79 15 261 SDL/TYSA_COLOUR15
 258 69 0 29 17 0 17 29 0 258 29 29 11 26 30 0 0 +83 3 256 .909803921568627 .443
137254901961 .03137254901960785 15 253 323 0 275 246 276 50 254 333 0 246 0 248
 0 +.00225 .00795 0 -306554987216081e-29 1 0 -1 -306554987216081e-29 0 51 248 33
2 0 240 254 241 0 --334144936065528e-31 .0119 0 -306554987216081e-29 1 0 .002255
 -1 -306554987216081e-29 0 50 241 331 0 66 248 49 0 +.00225 .00895 0 30655498721
6081e-29 -1 0 1 306554987216081e-29 0 50 49 284 0 37 241 234 0 +.00225 .00395 0
 -306554987216081e-29 1 0 -1 -306554987216081e-29 0 51 234 283 0 47 49 228 0 --3
34144936065528e-31 .0119 0 -306554987216081e-29 1 0 .00225500000000003 -1 -30655
4987216081e-29 0 50 228 282 0 220 234 222 0 +.00225 .00495 0 306554987216081e-29
 -1 0 1 306554987216081e-29 0 50 222 236 0 213 228 215 0 +.00225 .00695 0 306554
987216081e-29 -1 0 1 306554987216081e-29 0 51 215 235 0 205 222 207 0 --33414493
6065528e-31 .0119 0 -306554987216081e-29 1 0 .002255 -1 -306554987216081e-29 0 5
0 207 234 0 59 215 199 0 +.00225 .00595 0 -306554987216081e-29 1 0 -1 -306554987
216081e-29 0 50 199 171 0 42 207 63 0 +.00175 5e-4 0 0 -1 0 0 0 -1 54 63 170 0 6
7 199 53 0 +0 .001 0 0 -1 0 .00175 5e-4 0 0 -1 17 275 0 253 275 275 0 92 88 0 0
 -15 276 324 0 87 246 0 17 87 0 276 87 87 0 277 85 0 0 +17 277 0 62 277 277 0 87
 85 0 0 -15 62 297 0 277 15 0 17 92 0 278 92 92 0 275 88 0 0 +15 278 320 0 92 24
0 0 83 3 250 .909803921568627 .443137254901961 .03137254901960785 15 247 319 0 2
79 240 278 17 279 0 247 279 279 0 95 93 0 0 -17 95 0 280 95 95 0 279 93 0 0 +15
 280 316 0 95 66 0 81 1 194 488 184 54 0 65 189 237 281 83 3 243 .90980392156862
7 .443137254901961 .03137254901960785 81 1 65 558 38 54 194 0 57 69 282 83 3 281
 1 1 .752941176470588 81 1 57 557 38 51 208 0 50 65 283 82 1 282 -1917320960 81
 1 208 477 184 51 0 57 56 202 284 82 1 283 -1916796672 81 1 56 476 184 15 0 50 0
 208 285 83 3 284 1 1 .752941176470588 83 3 285 1 1 .752941176470588 15 84 315 0
 82 66 280 81 1 235 483 184 37 0 46 229 39 286 83 3 236 .909803921568627 .443137
254901961 .03137254901960785 81 1 46 555 38 37 235 0 40 50 287 81 1 39 484 184 3
5 0 36 235 200 288 83 3 286 .909803921568627 .443137254901961 .03137254901960785
 81 1 200 485 184 33 0 40 39 193 289 83 3 288 .8 .811764705882353 .8 81 1 40 554
 38 33 200 0 36 46 290 83 3 289 .8 .811764705882353 .8 82 1 290 -2100297474 82 1
 287 -1929903872 15 233 270 0 291 47 292 17 291 0 233 291 291 0 107 105 0 0 -15
 292 271 0 104 47 0 17 104 0 292 104 104 0 293 102 0 0 +17 293 0 48 293 293 0 10
4 102 0 0 -15 48 274 0 293 37 294 15 294 275 0 101 37 0 17 101 0 294 101 101 0 2
95 99 0 0 +17 295 0 296 295 295 0 101 99 0 0 -15 296 248 0 295 54 0 17 107 0 297
 107 107 0 291 105 0 0 +15 297 267 0 107 220 0 83 3 230 .909803921568627 .443137
254901961 .03137254901960785 15 227 266 0 298 220 297 17 298 0 227 298 298 0 98
 96 0 0 -17 98 0 299 98 98 0 298 96 0 0 +15 299 254 0 98 51 0 83 3 224 .90980392
1568627 .443137254901961 .03137254901960785 15 221 229 0 300 213 301 17 300 0 22
1 300 300 0 61 108 0 0 -15 301 230 0 112 213 0 17 112 0 301 112 112 0 302 110 0
 0 +17 302 0 214 302 302 0 112 110 0 0 -15 214 225 0 302 205 303 15 303 226 0 11
5 205 0 17 115 0 303 115 115 0 304 113 0 0 +17 304 0 206 304 304 0 115 113 0 0 -
15 206 221 0 304 59 305 15 305 222 0 118 59 0 17 118 0 305 118 118 0 306 116 0 0
 +17 306 0 60 306 306 0 118 116 0 0 -15 60 205 0 306 51 299 17 61 0 52 61 61 0 3
00 108 0 0 +83 3 217 .909803921568627 .443137254901961 .03137254901960785 83 3 2
10 .909803921568627 .443137254901961 .03137254901960785 83 3 201 1 1 .7529411764
70588 15 198 163 0 142 42 307 17 142 0 198 142 142 0 141 129 0 0 -15 307 164 0 1
21 42 0 17 121 0 307 121 121 0 308 119 0 0 +17 308 0 309 308 308 0 121 119 0 0 -
15 309 160 0 308 67 0 83 3 195 1 1 .752941176470588 15 192 159 0 124 67 309 17 1
24 0 192 124 124 0 310 122 0 0 +17 310 0 68 310 310 0 124 122 0 0 -15 68 156 0 3
10 54 296 82 1 188 -2101477123 83 3 187 .8 .811764705882353 .8 79 14 183 SWEntUn
changed82 1 155 -1991376642 15 43 121 0 141 33 31 82 1 74 -1915354880 82 1 58 -1
915879168 82 1 41 -2097020675 19 16 5 0 1 0 9 5 S74 20 14 3 0 0 251 2 72 0 0 0 0
 0 0 0 0 0 0 0 0 0 0 0 0 0 80 2 12 311 312 8004 0 0 0 0 3 5 0 0 0 FFTFFFFFFFFFFF
2 3 83 1 13 1 79 16 312 SDL/TYSA_DENSITY1 0 
