**ABCDEFGHIJKLMNOPQRSTUVWXYZabcdefghijklmnopqrstuvwxyz**************************
**PARASOLID !"#$%&'()*+,-./:;<=>?@[\]^_`{|}~0123456789**************************
**PART1;
MC=AMD64;
MC_MODEL=Intel64 Family 6 Model 60 Stepping 3, GenuineIntel;
MC_ID=unknown;
OS=Windows_NT;
OS_RELEASE=unknown;
FRU=Parasolid Version 30.0, build 310,  6- 8-2018;
APPL=SOLIDWORKS 2018-2018316;
SITE=;
USER=unknown;
FORMAT=text;
GUISE=transmit;
KEY=R_L15.5_D5.0_P7.62_DIN0516_Vertical;
FILE=R_L15.5_D5.0_P7.62_DIN0516_Vertical.x_t;
DATE=Thu Feb 29 21:12:39 2024;
**PART2;
SCH=SCH_3000310_30000;
USFLD_SIZE=0;
**PART3;
**END_OF_HEADER*****************************************************************
T51 : TRANSMIT FILE created by modeller version 300031017 SCH_2000000_200000 12
 1 577 2 3 0 0 0 0 1e3 1e-8 0 4 0 1 0 1 1 5 6 7 8 9 10 11 0 0 0 0 81 2 2 399 12
 1 0 0 0 0 13 0 70 3 0 4 T1 0 0 3 20 1 14 14 13 5 77 0 1 0 15 0 0 16 0 50 6 73 0
 17 18 0 0 +-.00762 -.002 0 937688365392869e-31 -1 0 0 0 1 31 7 129 0 19 20 0 0
 +0 .016 0 0 1 0 0 0 1 375e-6 29 8 65 0 11 21 0 -.00762 -.002 375e-6 19 9 78 0 1
 16 0 22 V16 10 29 0 ?23 0 24 25 0 0 1 18 11 64 0 26 0 27 8 ?1 17 26 0 28 26 26
 11 29 30 0 29 -18 27 51 0 23 11 0 21 ?1 17 23 0 31 23 23 27 32 10 0 32 +29 21 5
2 0 27 0 8 0 -.002 375e-6 15 31 30 0 23 33 0 17 32 0 34 32 32 27 23 10 0 0 -15 3
4 56 0 32 35 0 14 35 54 36 ?33 37 34 5 18 -0 0 33 37 22 81 1 36 553 38 35 39 0 0
 40 41 14 33 28 40 ?42 35 43 5 44 -45 45 42 35 22 14 37 321 46 ?35 47 48 5 49 -0
 0 35 47 22 50 18 60 0 35 44 6 0 +0 -.002 0 0 1 0 0 0 1 13 22 3 0 0 0 0 0 0 9 15
 14 15 306 50 ?51 0 52 5 53 +54 55 51 0 22 81 1 50 556 38 15 56 0 46 57 58 14 51
 257 57 ?45 15 59 5 53 +55 54 45 15 22 15 52 205 0 60 15 61 51 53 169 0 15 62 63
 0 +0 0 0 0 -1 0 .0025 0 0 -1 14 54 300 64 ?0 65 66 5 53 +51 15 0 65 22 14 55 25
1 67 ?68 69 70 5 53 +15 51 68 69 22 81 1 67 559 38 55 71 0 64 72 73 14 68 313 72
 ?47 55 74 5 75 -0 0 47 55 22 14 69 227 76 ?55 77 78 5 79 -0 0 55 77 22 15 70 19
9 0 80 55 81 17 80 0 70 80 80 0 82 83 0 0 +15 81 248 0 84 55 0 17 84 0 81 84 84
 0 85 86 0 0 -17 85 0 87 85 85 0 84 86 0 0 +16 86 262 0 ?85 88 89 90 0 0 1 16 88
 261 0 ?91 92 86 93 0 0 1 16 89 263 0 ?94 86 95 96 0 0 1 31 90 288 0 86 96 93 0
 +-2643842629995655e-32 .0105 0 -2782992242100695e-30 1 0 -1 -2782992242100695e-
30 0 .0025 31 96 289 0 89 97 90 0 +-306129146631076e-31 .012 0 -2782992242100695
e-30 1 0 -1 -2782992242100695e-30 0 .0025 31 93 287 0 88 90 98 0 +-2643842629995
655e-32 .0105 0 -2782992242100695e-30 1 0 -1 -2782992242100695e-30 0 .002505 31
 98 286 0 92 93 99 0 +-306129146631076e-31 .012 0 -2782992242100695e-30 1 0 -1 -
2782992242100695e-30 0 .002505 16 92 260 0 ?100 83 88 98 0 0 1 31 99 240 0 83 98
 101 0 +-222639379368055e-31 .009 0 -2782992242100695e-30 1 0 -1 -27829922421006
95e-30 0 .0025 16 83 211 0 ?80 102 92 99 0 0 1 31 101 239 0 102 99 103 0 +-22263
9379368055e-31 .009 0 -2782992242100695e-30 1 0 -1 -2782992242100695e-30 0 .0025
05 16 102 214 0 ?104 105 83 101 0 0 1 31 103 238 0 105 101 106 0 +-1808944957365
45e-31 .0075 0 -2782992242100695e-30 1 0 -1 -2782992242100695e-30 0 .002505 16 1
05 213 0 ?107 108 102 103 0 0 1 31 106 237 0 108 103 109 0 +-180894495736545e-31
 .0075 0 -2782992242100695e-30 1 0 -1 -2782992242100695e-30 0 .0025 16 108 212 0
 ?110 111 105 106 0 0 1 31 109 175 0 111 106 112 0 +0 5e-4 0 0 -1 0 0 0 -1 .002
 16 111 138 0 ?113 114 108 109 0 0 1 31 112 174 0 114 109 115 0 +0 .001 0 0 -1 0
 0 0 -1 .0025 16 114 137 0 ?116 117 111 112 0 0 1 31 115 173 0 117 112 118 0 +0
 .0155 0 0 -1 0 0 0 -1 .0025 16 117 136 0 ?119 120 114 115 0 0 1 31 118 172 0 12
0 115 121 0 +0 .016 0 0 -1 0 0 0 -1 .002 16 120 135 0 ?122 123 117 118 0 0 1 31
 121 40 0 30 118 124 0 +-.00762 -.002 0 937688365392869e-31 -1 0 0 0 1 375e-6 16
 30 6 0 ?29 125 19 121 0 0 1 31 124 41 0 125 121 126 0 +-.00762 .0165 0 93768836
5392869e-31 -1 0 0 0 1 375e-6 16 125 9 0 ?127 128 30 124 0 0 1 31 126 42 0 128 1
24 129 0 +-.00687 .01725 0 -1 0 0 0 0 1 375e-6 16 128 13 0 ?130 131 125 126 0 0
 1 31 129 43 0 131 126 132 0 +-75e-5 .01725 0 -1 0 0 0 0 1 375e-6 16 131 17 0 ?1
33 24 128 129 0 0 1 31 132 44 0 24 129 25 0 +3252606517456515e-34 .0165 0 0 1 0
 0 0 1 375e-6 16 24 21 0 ?134 10 131 132 0 0 1 31 25 45 0 10 132 20 0 +0 -.002 0
 0 1 0 0 0 1 375e-6 31 20 123 0 123 25 7 0 +0 5e-4 0 0 -1 0 0 0 -1 375e-6 16 123
 134 0 ?135 19 120 20 0 0 1 17 135 0 43 135 135 0 136 123 0 0 +16 19 133 0 ?137
 30 123 7 0 0 1 17 137 0 138 137 137 0 139 19 0 0 +15 138 127 0 137 45 140 17 13
9 0 141 139 139 0 137 19 0 0 -15 141 147 0 139 142 143 14 142 145 144 ?145 146 1
41 5 147 +0 0 145 17 22 15 143 148 0 148 142 0 17 148 0 143 148 148 0 122 120 0
 0 -17 122 0 149 122 122 0 148 120 0 0 +15 149 151 0 122 145 150 14 145 149 151
 ?152 142 149 5 63 +0 0 152 142 22 15 150 152 0 153 145 0 17 153 0 150 153 153 0
 119 117 0 0 -17 119 0 59 119 119 0 153 117 0 0 +15 59 155 0 119 51 154 15 154 2
54 0 94 51 0 17 94 0 154 94 94 0 155 89 0 0 +17 155 0 156 155 155 0 94 89 0 0 -1
5 156 266 0 155 152 157 14 152 264 158 ?159 145 156 5 160 -0 0 159 145 22 15 157
 267 0 100 152 0 17 100 0 157 100 100 0 161 92 0 0 +17 161 0 162 161 161 0 100 9
2 0 0 -15 162 270 0 161 159 163 14 159 268 164 ?165 152 162 5 166 -0 0 165 152 2
2 15 163 271 0 91 159 0 17 91 0 163 91 91 0 167 88 0 0 +17 167 0 168 167 167 0 9
1 88 0 0 -15 168 274 0 167 165 87 14 165 272 169 ?170 159 168 5 171 -0 0 170 159
 22 15 87 275 0 85 165 0 81 1 169 566 38 165 172 0 164 173 174 14 170 219 173 ?7
7 165 175 5 176 -0 0 77 165 22 50 171 284 0 165 75 166 0 +.0025 .0105 0 -2782992
242100695e-30 1 0 -1 -2782992242100695e-30 0 50 75 331 0 68 177 171 0 +.0025 .00
6 0 2782992242100695e-30 -1 0 1 2782992242100695e-30 0 51 166 283 0 159 171 160
 0 --4035338751046005e-32 .0155 0 -2782992242100695e-30 1 0 .002505 -1 -27829922
42100695e-30 0 50 160 282 0 152 166 79 0 +.0025 .012 0 2782992242100695e-30 -1 0
 1 2782992242100695e-30 0 50 79 236 0 69 160 178 0 +.0025 .009 0 278299224210069
5e-30 -1 0 1 2782992242100695e-30 0 51 178 235 0 77 79 176 0 --4035338751046005e
-32 .0155 0 -2782992242100695e-30 1 0 .002505 -1 -2782992242100695e-30 0 14 77 2
23 179 ?69 170 180 5 178 -0 0 69 170 22 50 176 234 0 170 178 181 0 +.0025 .0075
 0 -2782992242100695e-30 1 0 -1 -2782992242100695e-30 0 50 181 171 0 42 176 62 0
 +.002 5e-4 0 0 -1 0 0 0 -1 14 42 161 182 ?65 33 183 5 181 +0 0 65 33 22 54 62 1
70 0 65 181 53 0 +0 .001 0 0 -1 0 .002 5e-4 0 0 -1 14 65 157 184 ?54 42 185 5 62
 +0 0 54 42 22 81 1 184 570 38 65 186 0 182 187 188 15 185 159 0 116 65 189 17 1
16 0 185 116 116 0 190 114 0 0 +15 189 160 0 191 65 0 17 191 0 189 191 191 0 113
 111 0 0 -17 113 0 192 113 113 0 191 111 0 0 +15 192 164 0 113 42 0 17 190 0 66
 190 190 0 116 114 0 0 -15 66 156 0 190 54 193 15 193 297 0 194 54 0 17 194 0 19
3 194 194 0 195 196 0 0 -17 195 0 197 195 195 0 194 196 0 0 +16 196 311 0 ?195 1
98 199 200 0 0 1 16 198 310 0 ?201 95 196 202 0 0 1 16 199 312 0 ?203 196 0 204
 0 0 1 31 200 337 0 196 204 202 0 +-974047284735239e-32 .0045 0 -278299224210069
5e-30 1 0 -1 -2782992242100695e-30 0 .00250000000000004 31 204 338 0 199 0 200 0
 +-1391496121050344e-32 .006 0 -2782992242100695e-30 1 0 -1 -2782992242100695e-3
0 0 .002500000000000045 31 202 336 0 198 200 97 0 +-97404728473524e-31 .0045 0 -
2782992242100695e-30 1 0 -1 -2782992242100695e-30 0 .00250500000000004 31 97 335
 0 95 202 96 0 +-1391496121050344e-32 .006 0 -2782992242100695e-30 1 0 -1 -27829
92242100695e-30 0 .002505000000000045 16 95 309 0 ?205 89 198 97 0 0 1 17 205 0
 206 205 205 0 207 95 0 0 +15 206 316 0 205 68 0 17 207 0 208 207 207 0 205 95 0
 0 -15 208 319 0 207 47 209 14 47 317 187 ?37 68 208 5 177 -0 0 37 68 22 15 209
 320 0 201 47 0 17 201 0 209 201 201 0 210 198 0 0 +17 210 0 48 210 210 0 201 19
8 0 0 -15 48 323 0 210 37 197 15 197 324 0 195 37 0 81 1 187 571 38 47 211 0 184
 212 213 51 177 332 0 47 49 75 0 --4035338751046005e-32 .0155 0 -278299224210069
5e-30 1 0 .002505000000000045 -1 -2782992242100695e-30 0 50 49 333 0 37 0 177 0
 +.0025 .0045 0 -2782992242100695e-30 1 0 -1 -2782992242100695e-30 0 80 1 38 214
 215 9000 1 1 1 1 1 1 1 1 0 FFFFTFTFFFFFFF1 81 1 211 494 216 47 0 187 217 218 21
9 81 1 212 572 38 45 220 0 187 221 222 82 1 213 840958231 14 45 124 212 ?17 51 1
38 5 44 -33 33 146 51 22 81 1 220 478 216 45 0 212 223 224 225 81 1 221 573 38 1
46 226 0 212 227 228 82 1 222 775422229 14 146 20 221 ?142 229 230 5 231 -0 0 22
9 45 22 81 1 226 483 216 146 0 221 232 233 234 81 1 227 574 38 229 232 0 221 235
 236 82 1 228 661913876 14 229 16 227 ?146 237 238 5 239 -0 0 237 146 22 81 1 23
2 482 216 229 0 227 240 226 241 81 1 235 575 38 237 240 0 227 242 243 82 1 236 6
61520660 14 237 12 235 ?229 244 245 5 246 -0 0 244 229 22 81 1 240 481 216 237 0
 235 247 232 248 81 1 242 576 38 244 247 0 235 249 250 82 1 243 661127444 14 244
 2 242 ?237 17 251 5 252 -0 0 17 237 22 81 1 247 480 216 244 0 242 224 240 253 8
1 1 249 577 38 17 224 0 242 0 254 82 1 250 660406548 14 17 67 249 ?244 45 255 5
 6 +0 0 142 244 22 81 1 224 479 216 17 0 249 220 247 256 82 1 254 665125140 80 1
 216 0 257 8001 0 0 0 0 3 5 0 0 0 FFFFTFTFFFFFFF2 83 3 256 .8 .811764705882353 .
8 79 15 257 SDL/TYSA_COLOUR15 255 69 0 29 17 0 17 29 0 255 29 29 11 26 30 0 0 +8
3 3 253 .8 .811764705882353 .8 15 251 10 0 127 244 28 51 252 35 0 244 147 246 0
 --.00762 -.002 0 -937688365392869e-31 1 0 375e-6 -1 -937688365392869e-31 0 50 1
47 167 0 142 63 252 0 +-440872847693047e-33 .016 0 0 1 0 0 0 1 54 246 36 0 237 2
52 239 0 --.00687 .0165 0 0 0 -1 75e-5 375e-6 -1 0 0 51 239 37 0 229 246 231 0 -
-.00687 .01725 0 1 0 0 375e-6 0 0 -1 54 231 38 0 146 239 44 0 --75e-5 .0165 0 0
 0 -1 75e-5 375e-6 -1 0 0 51 44 39 0 33 231 18 0 -0 .0165 0 0 -1 0 375e-6 0 0 -1
 54 63 168 0 145 53 147 0 +0 .0155 0 0 -1 0 .002 5e-4 0 0 -1 17 127 0 251 127 12
7 0 258 125 0 0 +15 28 7 0 26 244 0 17 258 0 259 258 258 0 127 125 0 0 -15 259 1
1 0 258 237 0 83 3 248 .8 .811764705882353 .8 15 245 14 0 130 237 259 17 130 0 2
45 130 130 0 260 128 0 0 +17 260 0 261 260 260 0 130 128 0 0 -15 261 15 0 260 22
9 0 83 3 241 .8 .811764705882353 .8 15 238 18 0 133 229 261 17 133 0 238 133 133
 0 262 131 0 0 +17 262 0 263 262 262 0 133 131 0 0 -15 263 19 0 262 146 0 81 1 2
33 484 216 142 0 144 226 264 265 83 3 234 .8 .811764705882353 .8 81 1 144 562 38
 142 233 0 76 151 266 81 1 264 485 216 145 0 151 233 267 268 83 3 265 1 1 .75294
1176470588 81 1 151 563 38 145 264 0 144 158 269 81 1 267 486 216 152 0 158 264
 270 271 83 3 268 1 1 .752941176470588 81 1 158 564 38 152 267 0 151 164 272 81
 1 270 487 216 159 0 164 267 172 273 83 3 271 .909803921568627 .443137254901961
 .03137254901960785 81 1 164 565 38 159 270 0 158 169 274 81 1 172 488 216 165 0
 169 270 275 276 83 3 273 .909803921568627 .443137254901961 .03137254901960785 8
1 1 275 489 216 170 0 173 172 277 278 83 3 276 .909803921568627 .443137254901961
 .03137254901960785 81 1 173 567 38 170 275 0 169 179 279 81 1 277 490 216 77 0
 179 275 280 281 83 3 278 .909803921568627 .443137254901961 .03137254901960785 8
1 1 179 568 38 77 277 0 173 182 282 81 1 280 491 216 69 0 76 277 71 283 83 3 281
 .909803921568627 .443137254901961 .03137254901960785 81 1 76 561 38 69 280 0 72
 144 284 81 1 71 492 216 55 0 67 280 217 285 83 3 283 .909803921568627 .44313725
4901961 .03137254901960785 81 1 217 493 216 68 0 72 71 211 286 83 3 285 1 1 .752
941176470588 81 1 72 560 38 68 217 0 67 76 287 83 3 286 .909803921568627 .443137
254901961 .03137254901960785 82 1 287 841285911 82 1 284 825164055 81 1 182 569
 38 42 288 0 179 184 289 82 1 282 825753879 81 1 288 498 216 42 0 182 290 186 29
1 82 1 289 769261845 81 1 290 497 216 33 0 40 39 288 292 81 1 186 499 216 65 0 1
84 288 293 294 83 3 291 1 1 .752941176470588 81 1 293 500 216 54 0 64 186 0 295
 83 3 294 1 1 .752941176470588 81 1 64 558 38 54 293 0 57 67 296 83 3 295 1 1 .7
52941176470588 81 1 57 557 38 51 223 0 50 64 297 82 1 296 847118615 81 1 223 477
 216 51 0 57 56 220 298 82 1 297 846201111 81 1 56 476 216 15 0 50 0 223 299 83
 3 298 1 1 .752941176470588 83 3 299 1 1 .752941176470588 81 1 40 554 38 33 290
 0 36 46 300 81 1 39 496 216 35 0 36 218 290 301 83 3 292 .8 .811764705882353 .8
 81 1 218 495 216 37 0 46 211 39 302 83 3 301 .8 .811764705882353 .8 81 1 46 555
 38 37 218 0 40 50 303 83 3 302 .909803921568627 .443137254901961 .0313725490196
0785 82 1 303 840368407 82 1 300 662700309 82 1 279 826343703 82 1 274 833683735
 82 1 272 834011415 82 1 269 771031317 82 1 266 771621141 15 230 22 0 134 146 26
3 17 134 0 230 134 134 0 304 24 0 0 +17 304 0 140 304 304 0 134 24 0 0 -15 140 2
3 0 304 45 0 83 3 225 .8 .811764705882353 .8 83 3 219 .909803921568627 .44313725
4901961 .03137254901960785 79 14 215 SWEntUnchanged17 203 0 61 203 203 0 305 199
 0 0 +15 61 303 0 203 15 0 17 305 0 74 305 305 0 203 199 0 0 -15 74 315 0 305 68
 206 82 1 188 769851669 15 183 163 0 136 42 192 17 136 0 183 136 136 0 135 123 0
 0 -15 180 225 0 306 77 307 17 306 0 180 306 306 0 104 102 0 0 -15 307 226 0 107
 77 0 17 107 0 307 107 107 0 308 105 0 0 +17 308 0 175 308 308 0 107 105 0 0 -15
 175 221 0 308 170 309 15 309 222 0 110 170 0 17 110 0 309 110 110 0 60 108 0 0
 +17 60 0 52 60 60 0 110 108 0 0 -17 104 0 310 104 104 0 306 102 0 0 +15 310 230
 0 104 69 0 82 1 174 833093911 15 43 121 0 135 33 31 17 82 0 78 82 82 0 80 83 0
 0 -15 78 229 0 82 69 310 82 1 73 845676823 82 1 58 847642903 82 1 41 665977108
 19 16 5 0 1 0 9 5 S74 20 14 3 0 0 249 2 293 0 0 0 0 0 0 0 0 0 0 0 0 0 0 0 0 0 8
0 2 12 311 312 8004 0 0 0 0 3 5 0 0 0 FFTFFFFFFFFFFF2 3 83 1 13 1 79 16 312 SDL/
TYSA_DENSITY1 0 
