**ABCDEFGHIJKLMNOPQRSTUVWXYZabcdefghijklmnopqrstuvwxyz**************************
**PARASOLID !"#$%&'()*+,-./:;<=>?@[\]^_`{|}~0123456789**************************
**PART1;
MC=AMD64;
MC_MODEL=Intel64 Family 6 Model 60 Stepping 3, GenuineIntel;
MC_ID=unknown;
OS=Windows_NT;
OS_RELEASE=unknown;
FRU=Parasolid Version 30.0, build 310,  6- 8-2018;
APPL=SOLIDWORKS 2018-2018316;
SITE=;
USER=unknown;
FORMAT=text;
GUISE=transmit;
KEY=R_L14.3_D5.7_P15.24_DIN0614_Horizontal;
FILE=R_L14.3_D5.7_P15.24_DIN0614_Horizontal.x_t;
DATE=Thu Feb 29 21:56:21 2024;
**PART2;
SCH=SCH_3000310_30000;
USFLD_SIZE=0;
**PART3;
**END_OF_HEADER*****************************************************************
T51 : TRANSMIT FILE created by modeller version 300031017 SCH_2000000_200000 12
 1 547 2 3 0 0 0 0 1e3 1e-8 0 4 0 1 0 1 1 5 6 7 8 9 10 11 0 0 0 0 81 2 2 429 12
 1 0 0 0 0 13 0 70 3 0 4 T1 0 0 3 20 1 14 14 13 5 41 0 1 0 15 0 0 16 0 50 6 82 0
 15 17 0 18 +-.00715 .00335 0 1 0 0 0 0 -1 38 7 312 0 10 19 0 0 +6 20 21 22 22 2
9 8 378 0 11 23 0 .00762 -.002 375e-6 19 9 45 0 1 16 0 24 V16 10 309 0 ?25 0 26
 7 0 0 1 18 11 327 0 27 0 28 8 ?1 17 27 0 29 27 27 11 30 31 0 30 -18 28 328 0 32
 11 0 23 ?1 17 32 0 33 32 32 28 34 35 0 34 +29 23 379 0 28 0 8 -.00762 -.002 375
e-6 15 33 361 0 32 36 37 17 34 0 38 34 34 28 32 35 0 0 -16 35 325 0 ?32 39 40 41
 0 0 1 16 39 242 0 ?42 43 35 44 0 0 1 16 40 317 0 ?45 35 46 47 0 0 1 31 41 372 0
 35 47 44 0 +-.00762 -.002 0 0 1 0 0 0 1 375e-6 31 47 373 0 40 48 41 0 +-.00762
 .00285 0 0 1 0 0 0 1 375e-6 31 44 267 0 39 41 49 0 +.00225 .00335 0 -1 0 0 0 0
 1 .002855 31 49 266 0 43 44 50 0 +.00375 .00335 0 -1 0 0 0 0 1 .002855 16 43 24
1 0 ?51 52 39 49 0 0 1 31 50 218 0 52 49 53 0 +-.00375 .00335 0 -1 0 0 0 0 1 .00
2855 16 52 193 0 ?54 55 43 50 0 0 1 31 53 217 0 55 50 56 0 +-.00225 .00335 0 -1
 0 0 0 0 1 .002855 16 55 192 0 ?57 58 52 53 0 0 1 31 56 168 0 58 53 59 0 +75e-5
 .00335 0 -1 0 0 0 0 1 .002855 16 58 142 0 ?60 61 55 56 0 0 1 31 59 167 0 61 56
 62 0 +-75e-5 .00335 0 -1 0 0 0 0 1 .002855 16 61 141 0 ?63 64 58 59 0 0 1 31 62
 83 0 64 59 65 0 +.00715 .00335 0 -1 0 0 0 0 1 .00235 16 64 49 0 ?66 67 61 62 0
 0 1 31 65 84 0 67 62 68 0 +.00665 .00335 0 -1 0 0 0 0 1 .00285 16 67 54 0 ?69 7
0 64 65 0 0 1 31 68 85 0 70 65 71 0 +-.00665 .00335 0 -1 0 0 0 0 1 .00285 16 70
 59 0 ?72 73 67 68 0 0 1 31 71 86 0 73 68 74 0 +-.00715 .00335 0 -1 0 0 0 0 1 .0
0235 16 73 64 0 ?75 76 70 71 0 0 1 31 74 131 0 76 71 77 0 +75e-5 .00335 0 -1 0 0
 0 0 1 .00285 16 76 128 0 ?78 79 73 74 0 0 1 31 77 137 0 79 74 80 0 +-75e-5 .003
35 0 1 0 0 0 0 -1 .00285 16 79 134 0 ?81 82 76 77 0 0 1 31 80 180 0 82 77 83 0 +
-.00375 .00335 0 1 0 0 0 0 -1 .00285 16 82 177 0 ?84 85 79 80 0 0 1 31 83 186 0
 85 80 86 0 +-.00225 .00335 0 -1 0 0 0 0 1 .00285 16 85 183 0 ?87 88 82 83 0 0 1
 31 86 229 0 88 83 89 0 +.00225 .00335 0 1 0 0 0 0 -1 .00285 16 88 226 0 ?90 91
 85 86 0 0 1 31 89 235 0 91 86 19 0 +.00375 .00335 0 -1 0 0 0 0 1 .00285 16 91 2
32 0 ?92 26 88 89 0 0 1 38 19 306 0 26 89 7 0 +93 94 95 96 96 16 26 303 0 ?97 10
 91 19 0 0 1 50 93 78 0 98 99 100 101 +.00715 .0057 0 -1 0 0 0 0 1 54 94 370 0 1
02 103 20 104 -.00712 .00285 0 0 0 1 5e-4 375e-6 1 0 0 40 20 95 0 1 20 219446577
2580125e-20 .347378099748956 ??.00715 .003040662062379565 -.000215362036892715 .
00715 .00312821073878266 -.000303557783212739 .00715 .00324280338531707 -.000359
6913001102025 .00715 .00336901165414423 -.000374472784804543 .00715 .00349242773
9872675 -.000346611346235818 .00715 .00359933493666338 -.000279566416858355 .007
15 .003677868798369915 -.0001810260675068095 .00715 .003719299656661975 -6213105
21511477e-19 .00715 .003719028093568145 637254409824438e-19 .00715 .003677117053
14293 .0001823823268567985 .00715 .003598291542694765 .000280494987939196 .00715
 .00349140564685883 .00034703118569634 .00715 .00336843673770576 .00037450281085
6132 .00715 .003243120302486515 .0003597843191516185 .00715 .00312939030167779 .
000304404985207378 .00715 .00303988448057598 .0002142629685422645 .00715 .002985
02587956873 990527239411416e-19 .00715 .00297234015750233 -268815841904729e-19 .
00715 .00300176299494473 -.000146262517149836 .00715 .003040662062415885 -.00021
53620368770325 41 1 96 H.00715 .003040662062415885 -.0002153620368770325 14 102
 333 105 ?106 107 108 5 94 -0 0 106 107 24 51 103 371 0 107 0 94 0 -.00762 -.002
 0 -1788374717501865e-31 1 0 375e-6 -1 -1788374717501865e-31 0 54 20 368 0 106 9
4 109 110 --.00712 .00285 0 0 0 1 5e-4 375e-6 1 0 0 141 104 19 104 104 94 14 106
 329 111 ?112 102 113 5 20 -0 0 36 102 24 51 109 367 0 36 20 114 0 --.00762 .002
85 0 -1788374717501865e-31 -1 0 375e-6 1 -1788374717501865e-31 0 141 110 7 110 1
10 20 14 36 359 115 ?0 112 33 5 109 -0 0 112 106 24 50 114 366 0 112 109 116 0 +
-.00762 -.002 0 0 1 0 0 0 1 14 112 340 117 ?36 106 38 5 114 -0 0 0 36 24 50 116
 365 0 118 114 119 0 +.00762 -.002 0 3576749435003725e-31 -1 0 0 0 1 14 118 337
 120 ?107 121 122 5 116 +0 0 107 121 24 50 119 264 0 123 116 124 0 +.00225 .0062
 0 1 0 0 0 0 -1 14 123 255 125 ?126 127 128 5 119 -0 0 126 127 24 51 124 263 0 1
27 119 129 0 --.00665 .00335 0 -1 0 0 .002855 0 0 1 14 127 251 130 ?123 131 132
 5 124 -0 0 123 131 24 50 129 262 0 131 124 133 0 +.00375 .0062 0 -1 0 0 0 0 1 1
4 131 247 134 ?127 135 136 5 129 -0 0 127 135 24 50 133 215 0 137 129 138 0 +-.0
0375 .0062 0 1 0 0 0 0 -1 14 137 206 139 ?140 141 142 5 133 -0 0 140 141 24 51 1
38 214 0 141 133 143 0 --.00665 .00335 0 -1 0 0 .002855 0 0 1 14 141 202 144 ?13
7 145 146 5 138 -0 0 137 145 24 50 143 213 0 145 138 147 0 +-.00225 .0062 0 -1 0
 0 0 0 1 14 145 198 148 ?141 149 150 5 143 -0 0 141 149 24 50 147 165 0 149 143
 151 0 +75e-5 .0062 0 -1 0 0 0 0 1 14 149 153 152 ?145 153 154 5 147 -0 0 145 15
3 24 51 151 164 0 153 147 99 0 --.00665 .00335 0 -1 0 0 .002855 0 0 1 14 153 149
 155 ?149 156 157 5 151 -0 0 149 156 24 50 99 163 0 156 151 93 0 +-75e-5 .0062 0
 1 0 0 0 0 -1 14 156 145 158 ?153 159 160 5 99 -0 0 153 159 24 81 1 158 538 161
 156 162 0 155 163 164 14 159 187 163 ?156 165 166 5 167 -121 135 156 165 24 15
 160 147 0 81 156 168 13 24 44 0 0 0 0 0 0 9 15 14 15 313 169 ?98 0 170 5 6 -0 0
 98 0 24 81 1 169 540 161 15 171 0 163 172 173 14 98 307 172 ?165 15 174 5 93 -0
 0 165 15 24 15 170 71 0 75 15 175 17 75 0 170 75 75 0 176 73 0 0 +15 175 311 0
 177 15 0 17 177 0 175 177 177 0 25 10 0 0 -17 25 0 178 25 25 0 177 10 0 0 +15 1
78 332 0 25 106 0 17 176 0 179 176 176 0 75 73 0 0 -15 179 108 0 176 140 180 14
 140 67 181 ?135 137 179 5 17 -0 0 135 137 24 15 180 66 0 72 140 0 17 72 0 180 7
2 72 0 182 70 0 0 +17 182 0 183 182 182 0 72 70 0 0 -15 183 109 0 182 135 184 14
 135 181 185 ?131 140 183 5 167 -159 165 131 140 24 15 184 179 0 186 135 0 17 18
6 0 184 186 186 0 84 82 0 0 -17 84 0 142 84 84 0 186 82 0 0 +15 142 208 0 84 137
 187 15 187 209 0 54 137 0 17 54 0 187 54 54 0 188 52 0 0 +17 188 0 146 188 188
 0 54 52 0 0 -15 146 204 0 188 141 189 15 189 205 0 57 141 0 17 57 0 189 57 57 0
 190 55 0 0 +17 190 0 150 190 190 0 57 55 0 0 -15 150 200 0 190 145 191 15 191 2
01 0 87 145 0 17 87 0 191 87 87 0 192 85 0 0 +17 192 0 193 192 192 0 87 85 0 0 -
15 193 185 0 192 159 0 81 1 185 543 161 135 194 0 181 195 196 51 167 80 0 159 10
0 17 0 --.00245179250392431 .00335 0 -1 0 0 .00285 0 0 1 14 165 230 195 ?159 98
 197 5 167 -135 121 159 98 24 81 1 195 544 161 165 198 0 185 199 200 15 197 130
 0 201 165 202 14 121 236 199 ?118 126 203 5 167 -165 159 118 126 24 81 1 199 54
5 161 121 204 0 195 205 206 14 126 57 205 ?121 123 207 5 100 -0 0 121 123 24 15
 203 61 0 69 121 208 17 69 0 203 69 69 0 209 67 0 0 +15 208 234 0 210 121 0 17 2
10 0 208 210 210 0 92 91 0 0 -17 92 0 211 92 92 0 210 91 0 0 +15 211 250 0 92 13
1 0 17 209 0 207 209 209 0 69 67 0 0 -15 207 110 0 209 126 212 15 212 56 0 66 12
6 0 17 66 0 212 66 66 0 213 64 0 0 +17 213 0 174 213 213 0 66 64 0 0 -15 174 111
 0 213 98 214 15 214 305 0 215 98 0 17 215 0 214 215 215 0 97 26 0 0 -17 97 0 21
6 97 97 0 215 26 0 0 +15 216 336 0 97 102 0 81 1 205 546 161 126 217 0 199 218 2
19 54 100 79 0 126 93 167 0 -.00665 .00335 0 -1 0 0 .00235 5e-4 0 0 1 80 1 161 2
20 221 9000 1 1 1 1 1 1 1 1 0 FFFFTFTFFFFFFF1 81 1 217 469 222 126 0 205 223 204
 224 81 1 218 547 161 107 225 0 205 0 226 82 1 219 -557776519 14 107 343 218 ?10
2 118 227 5 103 -0 0 102 118 24 81 1 225 472 222 107 0 218 228 229 230 82 1 226
 402260356 80 1 222 0 231 8001 0 0 0 0 3 5 0 0 0 FFFFTFTFFFFFFF2 81 1 228 471 22
2 118 0 120 204 225 232 81 1 229 473 222 102 0 105 225 233 234 83 3 230 .8 .8117
64705882353 .8 81 1 105 525 161 102 229 0 0 111 235 81 1 233 474 222 106 0 111 2
29 236 237 83 3 234 .8 .811764705882353 .8 81 1 111 526 161 106 233 0 105 115 23
8 81 1 236 475 222 112 0 117 233 239 240 83 3 237 .8 .811764705882353 .8 81 1 11
7 528 161 112 236 0 115 120 241 81 1 239 476 222 36 0 115 236 0 242 83 3 240 .8
 .811764705882353 .8 81 1 115 527 161 36 239 0 111 117 243 83 3 242 .8 .81176470
5882353 .8 82 1 243 404554116 81 1 120 529 161 118 228 0 117 125 244 82 1 241 40
7830916 81 1 125 530 161 123 223 0 120 130 245 82 1 244 406978948 81 1 223 468 2
22 123 0 125 246 217 247 81 1 130 531 161 127 246 0 125 134 248 82 1 245 -490471
045 81 1 246 467 222 127 0 130 249 223 250 81 1 134 532 161 131 249 0 130 139 25
1 82 1 248 -489881221 81 1 249 466 222 131 0 134 194 246 252 81 1 139 533 161 13
7 253 0 134 144 254 82 1 251 -489291397 81 1 253 463 222 137 0 139 255 256 257 8
1 1 144 534 161 141 255 0 139 148 258 82 1 254 -497745541 81 1 255 462 222 141 0
 144 259 253 260 81 1 148 535 161 145 259 0 144 152 261 82 1 258 -497155717 81 1
 259 461 222 145 0 148 262 255 263 81 1 152 536 161 149 262 0 148 155 264 82 1 2
61 -496565893 81 1 262 460 222 149 0 152 265 259 266 81 1 155 537 161 153 265 0
 152 158 267 82 1 264 -504495749 81 1 265 459 222 153 0 155 162 262 268 82 1 267
 -503905925 81 1 162 458 222 156 0 158 269 265 270 83 3 268 .909803921568627 .44
3137254901961 .03137254901960785 81 1 269 457 222 159 0 163 198 162 271 83 3 270
 .909803921568627 .443137254901961 .03137254901960785 81 1 163 539 161 159 269 0
 158 169 272 81 1 198 456 222 165 0 195 273 269 274 83 3 271 1 1 .75294117647058
8 81 1 273 455 222 98 0 172 171 198 275 83 3 274 1 1 .752941176470588 81 1 172 5
41 161 98 273 0 169 181 276 81 1 171 454 222 15 0 169 0 273 277 83 3 275 1 1 .75
2941176470588 83 3 277 1 1 .752941176470588 81 1 181 542 161 140 256 0 172 185 2
78 82 1 276 427819396 81 1 256 464 222 140 0 181 253 194 279 82 1 278 -556596871
 81 1 194 465 222 135 0 185 256 249 280 83 3 279 1 1 .752941176470588 83 3 280 1
 1 .752941176470588 82 1 272 -484048517 83 3 266 .909803921568627 .4431372549019
61 .03137254901960785 83 3 263 .909803921568627 .443137254901961 .03137254901960
785 83 3 260 .909803921568627 .443137254901961 .03137254901960785 83 3 257 .9098
03921568627 .443137254901961 .03137254901960785 83 3 252 .909803921568627 .44313
7254901961 .03137254901960785 83 3 250 .909803921568627 .443137254901961 .031372
54901960785 83 3 247 .909803921568627 .443137254901961 .03137254901960785 82 1 2
38 429261188 82 1 235 428278148 81 1 204 470 222 121 0 199 217 228 281 83 3 232
 .8 .811764705882353 .8 83 3 281 1 1 .752941176470588 79 15 231 SDL/TYSA_COLOUR1
5 227 345 0 282 107 29 17 282 0 227 282 282 0 283 46 0 0 +15 29 346 0 27 107 0 1
7 283 0 108 283 283 0 282 46 0 0 -16 46 322 0 ?282 40 31 48 0 0 1 16 31 320 0 ?3
0 46 0 284 0 0 1 31 48 376 0 46 284 47 0 +.00762 .00285 0 3576749435003725e-31 -
1 0 0 0 1 375e-6 31 284 377 0 31 0 48 0 +.00762 -.002 0 3576749435003725e-31 -1
 0 0 0 1 375e-6 17 30 0 122 30 30 11 27 31 0 0 +15 122 339 0 30 118 0 15 108 335
 0 283 102 216 83 3 224 1 1 .752941176470588 79 14 221 SWEntUnchanged82 1 206 -4
82606725 17 201 0 197 201 201 0 78 76 0 0 -15 202 228 0 285 165 0 17 285 0 202 2
85 285 0 90 88 0 0 -17 90 0 128 90 90 0 285 88 0 0 +15 128 257 0 90 123 286 15 2
86 258 0 42 123 0 17 42 0 286 42 42 0 287 39 0 0 +17 287 0 132 287 287 0 42 39 0
 0 -15 132 253 0 287 127 288 15 288 254 0 51 127 0 17 51 0 288 51 51 0 289 43 0
 0 +17 289 0 136 289 289 0 51 43 0 0 -15 136 249 0 289 131 211 17 78 0 290 78 78
 0 201 76 0 0 +15 290 156 0 78 149 0 82 1 200 -483131013 54 17 81 0 140 167 6 0
 --.00665 .00335 0 -1 0 0 .00235 5e-4 0 0 1 82 1 196 -484572805 82 1 173 4288024
36 17 81 0 160 81 81 0 291 79 0 0 +15 168 148 0 63 156 0 17 63 0 168 63 63 0 292
 61 0 0 +17 292 0 157 292 292 0 63 61 0 0 -15 157 151 0 292 153 293 15 293 152 0
 60 153 0 17 60 0 293 60 60 0 294 58 0 0 +17 294 0 154 294 294 0 60 58 0 0 -15 1
54 155 0 294 149 290 17 291 0 166 291 291 0 81 79 0 0 -15 166 136 0 291 159 193
 82 1 164 -503578245 15 38 342 0 34 112 0 15 113 331 0 45 106 178 17 45 0 113 45
 45 0 295 40 0 0 +17 295 0 37 295 295 0 45 40 0 0 -15 37 362 0 295 36 0 141 101
 19 101 101 93 19 16 40 0 1 0 9 5 S40 20 21 0 1 20 219624387321186e-19 .34733812
46558095 ??-.00715 .003040662062379565 -.000215362036892715 -.00715 .00298632688
531735 -.0001035795937994168 -.00715 .002972027403899955 2225565581282135e-20 -.
00715 .002999988295298255 .000142083142188603 -.00715 .003065900839530965 .00024
7157828892648 -.00715 .00316495974638426 .000326971913983895 -.00715 .0032851290
5388292 .0003695263322652335 -.00715 .00341198854779884 .0003697060702372865 -.0
0715 .00353126669261946 .000327914013903338 -.00715 .003629727975218405 .0002491
06745802919 -.00715 .00369643857286243 .000142256063726695 -.00715 .003723982031
630125 194209466457191e-19 -.00715 .00370931007018665 -.0001055688870909346 -.00
715 .00365409772738115 -.000218652717932606 -.00715 .003564558882038625 -.000307
113933303758 -.00715 .00345074299794136 -.0003610047843665635 -.00715 .003325391
960361405 -.0003742527102963445 -.00715 .00320248735578446 -.0003453105237241695
 -.00715 .00309567546403034 -.0002772524794043715 -.00715 .003040662062405765 -.
000215362036863731 41 1 22 H-.00715 .003040662062405765 -.000215362036863731 141
 18 7 18 18 6 74 20 14 3 0 0 218 2 239 0 0 0 0 0 0 0 0 0 0 0 0 0 0 0 0 0 80 2 12
 296 297 8004 0 0 0 0 3 5 0 0 0 FFTFFFFFFFFFFF2 3 83 1 13 1 79 16 297 SDL/TYSA_D
ENSITY1 0 
