**ABCDEFGHIJKLMNOPQRSTUVWXYZabcdefghijklmnopqrstuvwxyz**************************
**PARASOLID !"#$%&'()*+,-./:;<=>?@[\]^_`{|}~0123456789**************************
**PART1;
MC=AMD64;
MC_MODEL=Intel64 Family 6 Model 60 Stepping 3, GenuineIntel;
MC_ID=unknown;
OS=Windows_NT;
OS_RELEASE=unknown;
FRU=Parasolid Version 30.0, build 310,  6- 8-2018;
APPL=SOLIDWORKS 2018-2018316;
SITE=;
USER=unknown;
FORMAT=text;
GUISE=transmit;
KEY=R_L11.9_D4.5_P25.40_DIN0414_Horizontal;
FILE=R_L11.9_D4.5_P25.40_DIN0414_Horizontal.x_t;
DATE=Thu Feb 29 20:59:17 2024;
**PART2;
SCH=SCH_3000310_30000;
USFLD_SIZE=0;
**PART3;
**END_OF_HEADER*****************************************************************
T51 : TRANSMIT FILE created by modeller version 300031017 SCH_2000000_200000 12
 1 612 2 3 0 0 0 0 1e3 1e-8 0 4 0 1 0 1 1 5 6 7 8 9 10 11 0 0 0 0 81 2 2 434 12
 1 0 0 0 0 13 0 70 3 0 4 T1 0 0 3 20 1 14 14 13 5 41 0 1 0 15 0 0 16 0 50 6 82 0
 17 18 0 0 +-.00595 .00275 0 1 0 0 0 0 -1 31 7 306 0 19 20 0 0 --.00595 .00275 0
 1 0 0 0 0 -1 375e-6 29 8 378 0 11 21 0 .0127 -.002 375e-6 19 9 45 0 1 16 0 22 V
16 10 309 0 ?23 0 19 24 0 0 1 18 11 326 0 25 0 26 8 ?1 17 25 0 27 25 25 11 28 29
 0 28 -18 26 327 0 30 11 0 21 ?1 17 30 0 31 30 30 26 32 33 0 32 +29 21 379 0 26
 0 8 -.0127 -.002 375e-6 15 31 360 0 30 34 35 17 32 0 36 32 32 26 30 33 0 0 -16
 33 324 0 ?30 37 38 39 0 0 1 16 37 242 0 ?40 41 33 42 0 0 1 16 38 323 0 ?43 33 4
4 45 0 0 1 31 39 372 0 33 45 24 0 +-.0127 -.002 0 0 1 0 0 0 1 375e-6 31 45 373 0
 38 46 39 0 +-.0127 .00225 0 0 1 0 0 0 1 375e-6 31 24 371 0 10 39 42 0 -.00595 .
00275 0 -1 0 0 0 0 1 375e-6 31 42 267 0 37 24 47 0 +-.0025 .00275 0 -1 0 0 0 0 1
 .002255 31 47 266 0 41 42 48 0 +-.0015 .00275 0 -1 0 0 0 0 1 .002255 16 41 241
 0 ?49 50 37 47 0 0 1 31 48 218 0 50 47 51 0 +.0015 .00275 0 -1 0 0 0 0 1 .00225
5 16 50 193 0 ?52 53 41 48 0 0 1 31 51 217 0 53 48 54 0 +.0025 .00275 0 -1 0 0 0
 0 1 .002255 16 53 192 0 ?55 56 50 51 0 0 1 31 54 168 0 56 51 57 0 +5e-4 .00275
 0 -1 0 0 0 0 1 .002255 16 56 142 0 ?58 59 53 54 0 0 1 31 57 167 0 59 54 60 0 +-
5e-4 .00275 0 -1 0 0 0 0 1 .002255 16 59 141 0 ?61 62 56 57 0 0 1 31 60 83 0 62
 57 63 0 +.00595 .00275 0 -1 0 0 0 0 1 .00175 16 62 49 0 ?64 65 59 60 0 0 1 31 6
3 84 0 65 60 66 0 +.00545 .00275 0 -1 0 0 0 0 1 .00225 16 65 54 0 ?67 68 62 63 0
 0 1 31 66 85 0 68 63 69 0 +-.00545 .00275 0 -1 0 0 0 0 1 .00225 16 68 59 0 ?70
 71 65 66 0 0 1 31 69 86 0 71 66 72 0 +-.00595 .00275 0 -1 0 0 0 0 1 .00175 16 7
1 64 0 ?73 74 68 69 0 0 1 31 72 131 0 74 69 75 0 +5e-4 .00275 0 -1 0 0 0 0 1 .00
225 16 74 128 0 ?76 77 71 72 0 0 1 31 75 137 0 77 72 78 0 +-5e-4 .00275 0 1 0 0
 0 0 -1 .00225 16 77 134 0 ?79 80 74 75 0 0 1 31 78 180 0 80 75 81 0 +.0015 .002
75 0 1 0 0 0 0 -1 .00225 16 80 177 0 ?82 83 77 78 0 0 1 31 81 186 0 83 78 84 0 +
.0025 .00275 0 -1 0 0 0 0 1 .00225 16 83 183 0 ?85 86 80 81 0 0 1 31 84 229 0 86
 81 20 0 +-.0025 .00275 0 1 0 0 0 0 -1 .00225 16 86 226 0 ?87 88 83 84 0 0 1 31
 20 235 0 88 84 7 0 +-.0015 .00275 0 -1 0 0 0 0 1 .00225 16 88 232 0 ?89 19 86 2
0 0 0 1 17 89 0 90 89 89 0 91 88 0 0 +16 19 303 0 ?92 10 88 7 0 0 1 17 92 0 93 9
2 92 0 94 19 0 0 +15 93 335 0 92 95 0 17 94 0 96 94 94 0 92 19 0 0 -15 96 305 0
 94 17 97 14 17 72 98 ?99 100 96 5 6 -0 0 99 100 22 15 97 71 0 73 17 0 17 73 0 9
7 73 73 0 101 71 0 0 +17 101 0 102 101 101 0 73 71 0 0 -15 102 108 0 101 99 103
 14 99 67 104 ?105 17 102 5 18 -0 0 105 17 22 15 103 66 0 70 99 0 17 70 0 103 70
 70 0 106 68 0 0 +17 106 0 107 106 106 0 70 68 0 0 -15 107 109 0 106 105 108 14
 105 230 109 ?110 99 107 5 111 -112 15 110 99 22 15 108 228 0 113 105 0 17 113 0
 108 113 113 0 87 86 0 0 -17 87 0 114 87 87 0 113 86 0 0 +15 114 257 0 87 100 11
5 14 100 255 116 ?17 117 114 5 118 -0 0 17 117 22 15 115 258 0 40 100 0 17 40 0
 115 40 40 0 119 37 0 0 +17 119 0 120 119 119 0 40 37 0 0 -15 120 253 0 119 117
 121 14 117 251 122 ?100 123 120 5 124 -0 0 100 123 22 15 121 254 0 49 117 0 17
 49 0 121 49 49 0 125 41 0 0 +17 125 0 126 125 125 0 49 41 0 0 -15 126 249 0 125
 123 90 14 123 247 127 ?117 112 126 5 128 -0 0 117 112 22 15 90 250 0 89 123 0 8
1 1 127 593 129 123 130 0 122 131 132 14 112 187 131 ?123 133 134 5 111 -135 105
 123 133 22 50 128 262 0 123 124 136 0 +-.0015 .005 0 -1 0 0 0 0 1 13 22 44 0 0
 0 0 0 0 9 15 14 15 236 137 ?135 0 138 5 111 -105 135 135 0 22 81 1 137 595 129
 15 139 0 131 140 141 14 135 181 140 ?142 15 143 5 111 -15 112 142 15 22 15 138
 136 0 144 15 145 51 111 80 0 15 146 18 0 --.00245179250392431 .00275 0 -1 0 0 .
00225 0 0 1 54 146 79 0 133 147 111 0 -.00545 .00275 0 -1 0 0 .00175 5e-4 0 0 1
 54 18 81 0 99 111 6 0 --.00545 .00275 0 -1 0 0 .00175 5e-4 0 0 1 14 133 57 148
 ?112 149 150 5 146 -0 0 112 149 22 50 147 78 0 149 151 146 0 +.00595 .0045 0 -1
 0 0 0 0 1 14 149 52 152 ?133 153 154 5 147 -0 0 133 153 22 50 151 163 0 142 155
 147 0 +-5e-4 .005 0 1 0 0 0 0 -1 14 142 145 156 ?157 135 158 5 151 -0 0 157 135
 22 51 155 164 0 157 159 151 0 --.00545 .00275 0 -1 0 0 .002255 0 0 1 14 157 149
 160 ?161 142 162 5 155 -0 0 161 142 22 50 159 165 0 161 163 155 0 +5e-4 .005 0
 -1 0 0 0 0 1 14 161 153 164 ?165 157 166 5 159 -0 0 165 157 22 50 163 213 0 165
 167 159 0 +.0025 .005 0 -1 0 0 0 0 1 14 165 198 168 ?169 161 170 5 163 -0 0 169
 161 22 51 167 214 0 169 136 163 0 --.00545 .00275 0 -1 0 0 .002255 0 0 1 14 169
 202 171 ?153 165 172 5 167 -0 0 153 165 22 50 136 215 0 153 128 167 0 +.0015 .0
05 0 1 0 0 0 0 -1 14 153 206 173 ?149 169 174 5 136 -0 0 149 169 22 81 1 173 604
 129 153 175 0 171 176 177 15 174 208 0 82 153 178 17 82 0 174 82 82 0 179 80 0
 0 +15 178 209 0 52 153 0 17 52 0 178 52 52 0 180 50 0 0 +17 180 0 172 180 180 0
 52 50 0 0 -15 172 204 0 180 169 181 15 181 205 0 55 169 0 17 55 0 181 55 55 0 1
82 53 0 0 +17 182 0 170 182 182 0 55 53 0 0 -15 170 200 0 182 165 183 15 183 201
 0 85 165 0 17 85 0 183 85 85 0 184 83 0 0 +17 184 0 185 184 184 0 85 83 0 0 -15
 185 185 0 184 112 0 17 179 0 186 179 179 0 82 80 0 0 -15 186 179 0 179 135 0 80
 1 129 187 188 9000 1 1 1 1 1 1 1 1 0 FFFFTFTFFFFFFF1 81 1 175 518 189 153 0 173
 190 191 192 81 1 171 603 129 169 190 0 168 173 193 81 1 176 605 129 110 194 0 1
73 195 196 82 1 177 -499121852 14 110 339 176 ?34 105 36 5 197 -0 0 34 105 22 81
 1 194 528 189 110 0 176 198 199 200 81 1 195 606 129 34 199 0 176 201 202 82 1
 196 -857734824 14 34 358 195 ?203 110 31 5 204 -0 0 203 110 22 81 1 199 529 189
 34 0 195 194 205 206 81 1 201 607 129 203 205 0 195 207 208 82 1 202 -861011624
 14 203 354 201 ?95 34 209 5 210 -0 0 95 34 22 81 1 205 530 189 203 0 201 199 21
1 212 81 1 207 608 129 95 211 0 201 213 214 82 1 208 -861798056 14 95 332 207 ?2
15 203 216 5 217 -215 215 215 203 22 81 1 211 531 189 95 0 207 205 218 219 81 1
 213 609 129 215 218 0 207 220 221 82 1 214 -837287592 14 215 328 213 ?222 95 22
3 5 217 -95 95 224 95 22 81 1 218 532 189 215 0 213 211 225 226 81 1 220 610 129
 222 225 0 213 227 228 82 1 221 -836763304 14 222 336 220 ?229 215 230 5 231 +0
 0 0 229 22 81 1 225 533 189 222 0 220 218 232 233 81 1 227 611 129 229 232 0 22
0 234 235 82 1 228 -858586792 14 229 342 227 ?224 222 236 5 237 -0 0 222 224 22
 81 1 232 534 189 229 0 227 225 238 239 81 1 234 612 129 224 238 0 227 0 240 82
 1 235 -863305384 14 224 346 234 ?0 229 241 5 242 -0 0 229 215 22 81 1 238 535 1
89 224 0 234 232 0 243 82 1 240 -862584488 80 1 189 0 244 8001 0 0 0 0 3 5 0 0 0
 FFFFTFTFFFFFFF2 83 3 243 .8 .811764705882353 .8 79 15 244 SDL/TYSA_COLOUR15 241
 348 0 245 224 246 54 242 369 0 224 237 217 0 -.0122 .00225 0 0 0 1 5e-4 375e-6
 1 0 0 51 237 370 0 229 0 242 0 -.0127 -.002 0 0 1 0 375e-6 0 0 1 51 217 368 0 2
15 242 210 0 -.0122 .00275 0 -1 0 0 375e-6 0 0 1 54 210 367 0 203 217 204 0 --.0
122 .00225 0 0 0 1 5e-4 375e-6 1 0 0 51 204 366 0 34 210 197 0 --.0127 .00225 0
 0 -1 0 375e-6 0 0 -1 50 197 365 0 110 204 231 0 +-.0127 -.002 0 0 1 0 0 0 1 50
 231 364 0 222 197 118 0 +.0127 -.002 0 0 -1 0 0 0 1 50 118 264 0 100 231 124 0
 +-.0025 .005 0 1 0 0 0 0 -1 51 124 263 0 117 118 128 0 --.00545 .00275 0 -1 0 0
 .002255 0 0 1 17 245 0 241 245 245 0 247 248 0 0 +15 246 349 0 249 224 0 17 249
 0 246 249 249 0 250 251 0 0 -17 250 0 236 250 250 0 249 251 0 0 +16 251 321 0 ?
250 248 29 252 0 0 1 16 248 322 0 ?245 44 251 253 0 0 1 16 29 319 0 ?28 251 0 25
4 0 0 1 31 252 376 0 251 254 253 0 +.0127 .00225 0 0 -1 0 0 0 1 375e-6 31 254 37
7 0 29 0 252 0 +.0127 -.002 0 0 -1 0 0 0 1 375e-6 31 253 375 0 248 252 46 0 +.01
22 .00275 0 1 3469446951953615e-30 0 0 0 1 375e-6 31 46 374 0 44 253 45 0 +-.012
2 .00275 0 1 0 0 0 0 1 375e-6 16 44 317 0 ?255 38 248 46 0 0 1 17 255 0 216 255
 255 0 256 44 0 0 +15 216 334 0 255 95 93 17 256 0 257 256 256 0 255 44 0 0 -15
 257 357 0 256 203 0 17 28 0 230 28 28 11 25 29 0 0 +15 230 338 0 28 222 0 15 23
6 344 0 250 229 27 15 27 345 0 25 229 0 17 247 0 223 247 247 0 245 248 0 0 -15 2
23 330 0 247 215 258 15 258 331 0 23 215 0 17 23 0 258 23 23 0 259 10 0 0 +17 25
9 0 154 259 259 0 23 10 0 0 -15 154 311 0 259 149 260 15 260 111 0 261 149 0 17
 261 0 260 261 261 0 64 62 0 0 -17 64 0 262 64 64 0 261 62 0 0 +15 262 56 0 64 1
33 0 83 3 239 .8 .811764705882353 .8 83 3 233 .8 .811764705882353 .8 83 3 226 .8
 .811764705882353 .8 83 3 219 .8 .811764705882353 .8 83 3 212 .8 .81176470588235
3 .8 15 209 356 0 43 203 257 17 43 0 209 43 43 0 263 38 0 0 +17 263 0 35 263 263
 0 43 38 0 0 -15 35 361 0 263 34 0 83 3 206 .8 .811764705882353 .8 81 1 198 527
 189 105 0 109 264 194 265 83 3 200 .8 .811764705882353 .8 81 1 109 590 129 105
 198 0 104 116 266 81 1 264 526 189 99 0 104 267 198 268 83 3 265 1 1 .752941176
470588 81 1 104 589 129 99 264 0 98 109 269 81 1 267 525 189 17 0 98 270 264 271
 83 3 268 1 1 .752941176470588 81 1 98 588 129 17 267 0 0 104 272 81 1 270 524 1
89 100 0 116 273 267 274 83 3 271 1 1 .752941176470588 81 1 116 591 129 100 270
 0 109 122 275 81 1 273 523 189 117 0 122 130 270 276 83 3 274 .909803921568627
 .443137254901961 .03137254901960785 81 1 122 592 129 117 273 0 116 127 277 81 1
 130 522 189 123 0 127 278 273 279 83 3 276 .909803921568627 .443137254901961 .0
3137254901960785 81 1 278 521 189 112 0 131 280 130 281 83 3 279 .90980392156862
7 .443137254901961 .03137254901960785 81 1 131 594 129 112 278 0 127 137 282 81
 1 280 520 189 133 0 148 191 278 283 83 3 281 1 1 .752941176470588 81 1 148 597
 129 133 280 0 140 152 284 81 1 191 519 189 149 0 152 175 280 285 83 3 283 1 1 .
752941176470588 81 1 152 598 129 149 191 0 148 156 286 83 3 285 1 1 .75294117647
0588 81 1 156 599 129 142 287 0 152 160 288 82 1 286 -1230962344 81 1 287 513 18
9 142 0 156 289 290 291 81 1 160 600 129 157 290 0 156 164 292 82 1 288 -5049545
56 81 1 290 514 189 157 0 160 287 293 294 81 1 164 601 129 161 293 0 160 168 295
 82 1 292 -505282236 81 1 293 515 189 161 0 164 290 296 297 81 1 168 602 129 165
 296 0 164 171 298 82 1 295 -505872060 81 1 296 516 189 165 0 168 293 190 299 82
 1 298 -497942204 81 1 190 517 189 169 0 171 296 175 300 83 3 299 .9098039215686
27 .443137254901961 .03137254901960785 83 3 300 .909803921568627 .44313725490196
1 .03137254901960785 83 3 297 .909803921568627 .443137254901961 .031372549019607
85 83 3 294 .909803921568627 .443137254901961 .03137254901960785 81 1 289 512 18
9 135 0 140 139 287 301 83 3 291 .909803921568627 .443137254901961 .031372549019
60785 81 1 140 596 129 135 289 0 137 148 302 81 1 139 511 189 15 0 137 0 289 303
 83 3 301 1 1 .752941176470588 83 3 303 1 1 .752941176470588 82 1 302 -485949116
 82 1 284 -559152830 82 1 282 -485424828 82 1 277 -491257532 82 1 275 -491847356
 82 1 272 -1233583784 82 1 269 -557973182 82 1 266 -484507324 15 36 341 0 32 110
 0 82 1 193 -498532028 83 3 192 .909803921568627 .443137254901961 .0313725490196
0785 79 14 188 SWEntUnchanged15 166 155 0 304 161 305 17 304 0 166 304 304 0 58
 56 0 0 -15 305 156 0 76 161 0 17 76 0 305 76 76 0 306 74 0 0 +17 306 0 143 306
 306 0 76 74 0 0 -15 143 130 0 306 135 186 17 58 0 307 58 58 0 304 56 0 0 +15 30
7 152 0 58 157 0 15 162 151 0 308 157 307 17 308 0 162 308 308 0 61 59 0 0 -17 6
1 0 309 61 61 0 308 59 0 0 +15 309 148 0 61 142 0 15 158 147 0 79 142 309 17 79
 0 158 79 79 0 144 77 0 0 +17 144 0 138 144 144 0 79 77 0 0 -15 150 110 0 310 13
3 262 17 310 0 150 310 310 0 67 65 0 0 -17 67 0 134 67 67 0 310 65 0 0 +15 134 6
1 0 67 112 185 15 145 234 0 91 15 0 17 91 0 145 91 91 0 89 88 0 0 -82 1 141 -483
983036 82 1 132 -490667708 19 16 40 0 1 0 9 5 S74 20 14 3 0 0 234 2 238 0 0 0 0
 0 0 0 0 0 0 0 0 0 0 0 0 0 80 2 12 311 312 8004 0 0 0 0 3 5 0 0 0 FFTFFFFFFFFFFF
2 3 83 1 13 1 79 16 312 SDL/TYSA_DENSITY1 0 
