**ABCDEFGHIJKLMNOPQRSTUVWXYZabcdefghijklmnopqrstuvwxyz**************************
**PARASOLID !"#$%&'()*+,-./:;<=>?@[\]^_`{|}~0123456789**************************
**PART1;
MC=AMD64;
MC_MODEL=Intel64 Family 6 Model 60 Stepping 3, GenuineIntel;
MC_ID=unknown;
OS=Windows_NT;
OS_RELEASE=unknown;
FRU=Parasolid Version 30.0, build 310,  6- 8-2018;
APPL=SOLIDWORKS 2018-2018316;
SITE=;
USER=unknown;
FORMAT=text;
GUISE=transmit;
KEY=R_L15.5_D5.0_P25.40_DIN0516_Horizontal;
FILE=R_L15.5_D5.0_P25.40_DIN0516_Horizontal.x_t;
DATE=Thu Feb 29 21:25:37 2024;
**PART2;
SCH=SCH_3000310_30000;
USFLD_SIZE=0;
**PART3;
**END_OF_HEADER*****************************************************************
T51 : TRANSMIT FILE created by modeller version 300031017 SCH_2000000_200000 12
 1 640 2 3 0 0 0 0 1e3 1e-8 0 4 0 1 0 1 1 5 6 7 8 9 10 11 0 0 0 0 81 2 2 435 12
 1 0 0 0 0 13 0 70 3 0 4 T1 0 0 3 20 1 14 14 13 5 41 0 1 0 15 0 0 16 0 50 6 82 0
 17 18 0 0 +-.00775 .003 0 1 0 0 0 0 -1 31 7 307 0 19 20 0 0 -.00775 .003 0 -1 0
 0 0 0 1 375e-6 29 8 379 0 11 21 0 .0127 -.002 375e-6 19 9 45 0 1 16 0 22 V16 10
 310 0 ?23 0 19 24 0 0 1 18 11 327 0 25 0 26 8 ?1 17 25 0 27 25 25 11 28 29 0 28
 -18 26 328 0 30 11 0 21 ?1 17 30 0 31 30 30 26 32 33 0 32 +29 21 380 0 26 0 8 -
.0127 -.002 375e-6 15 31 361 0 30 34 35 17 32 0 36 32 32 26 30 33 0 0 -16 33 325
 0 ?30 37 38 39 0 0 1 16 37 243 0 ?40 41 33 42 0 0 1 16 38 324 0 ?43 33 44 45 0
 0 1 31 39 373 0 33 45 24 0 +-.0127 -.002 0 0 1 0 0 0 1 375e-6 31 45 374 0 38 46
 39 0 +-.0127 .0025 0 0 1 0 0 0 1 375e-6 31 24 372 0 10 39 42 0 --.00775 .003 0
 1 0 0 0 0 -1 375e-6 31 42 268 0 37 24 47 0 +.00225 .003 0 -1 0 0 0 0 1 .002505
 31 47 267 0 41 42 48 0 +.00375 .003 0 -1 0 0 0 0 1 .002505 16 41 242 0 ?49 50 3
7 47 0 0 1 31 48 219 0 50 47 51 0 +-.00375 .003 0 -1 0 0 0 0 1 .002505 16 50 194
 0 ?52 53 41 48 0 0 1 31 51 218 0 53 48 54 0 +-.00225 .003 0 -1 0 0 0 0 1 .00250
5 16 53 193 0 ?55 56 50 51 0 0 1 31 54 169 0 56 51 57 0 +75e-5 .003 0 -1 0 0 0 0
 1 .002505 16 56 143 0 ?58 59 53 54 0 0 1 31 57 168 0 59 54 60 0 +-75e-5 .003 0
 -1 0 0 0 0 1 .002505 16 59 142 0 ?61 62 56 57 0 0 1 31 60 83 0 62 57 63 0 +.007
75 .003 0 -1 0 0 0 0 1 .002 16 62 49 0 ?64 65 59 60 0 0 1 31 63 84 0 65 60 66 0
 +.00725 .003 0 -1 0 0 0 0 1 .0025 16 65 54 0 ?67 68 62 63 0 0 1 31 66 85 0 68 6
3 69 0 +-.00725 .003 0 -1 0 0 0 0 1 .0025 16 68 59 0 ?70 71 65 66 0 0 1 31 69 86
 0 71 66 72 0 +-.00775 .003 0 -1 0 0 0 0 1 .002 16 71 64 0 ?73 74 68 69 0 0 1 31
 72 132 0 74 69 75 0 +75e-5 .003 0 -1 0 0 0 0 1 .0025 16 74 129 0 ?76 77 71 72 0
 0 1 31 75 138 0 77 72 78 0 +-75e-5 .003 0 1 0 0 0 0 -1 .0025 16 77 135 0 ?79 80
 74 75 0 0 1 31 78 181 0 80 75 81 0 +-.00375 .003 0 1 0 0 0 0 -1 .0025 16 80 178
 0 ?82 83 77 78 0 0 1 31 81 187 0 83 78 84 0 +-.00225 .003 0 -1 0 0 0 0 1 .0025
 16 83 184 0 ?85 86 80 81 0 0 1 31 84 230 0 86 81 20 0 +.00225 .003 0 1 0 0 0 0
 -1 .0025 16 86 227 0 ?87 88 83 84 0 0 1 31 20 236 0 88 84 7 0 +.00375 .003 0 -1
 0 0 0 0 1 .0025 16 88 233 0 ?89 19 86 20 0 0 1 17 89 0 90 89 89 0 91 88 0 0 +16
 19 304 0 ?92 10 88 7 0 0 1 17 92 0 93 92 92 0 94 19 0 0 +15 93 336 0 92 95 0 17
 94 0 96 94 94 0 92 19 0 0 -15 96 306 0 94 97 98 14 97 52 99 ?100 101 96 5 102 -
0 0 100 101 22 15 98 111 0 103 97 0 17 103 0 98 103 103 0 64 62 0 0 -17 64 0 104
 64 64 0 103 62 0 0 +15 104 56 0 64 100 0 14 100 57 105 ?106 97 107 5 108 -0 0 1
06 97 22 81 1 105 617 109 100 110 0 99 111 112 14 106 237 111 ?113 100 114 5 115
 -15 116 113 100 22 15 107 110 0 117 100 104 54 108 79 0 100 102 115 0 -.00725 .
003 0 -1 0 0 .002 5e-4 0 0 1 13 22 44 0 0 0 0 0 0 9 15 14 15 231 118 ?116 0 119
 5 115 -120 106 116 0 22 81 1 118 619 109 15 121 0 111 122 123 14 116 188 122 ?1
24 15 125 5 115 -106 120 124 15 22 15 119 131 0 126 15 127 51 115 80 0 116 108 1
8 0 --.00245179250392431 .003 0 -1 0 0 .0025 0 0 1 14 120 182 128 ?129 130 131 5
 115 -116 15 129 130 22 81 1 128 621 109 120 132 0 122 133 134 14 129 248 133 ?1
35 120 136 5 137 -0 0 135 120 22 14 130 67 138 ?120 17 139 5 18 -0 0 120 17 22 1
5 131 109 0 140 120 141 17 140 0 131 140 140 0 70 68 0 0 -15 141 180 0 142 120 0
 17 142 0 141 142 142 0 82 80 0 0 -17 82 0 143 82 82 0 142 80 0 0 +15 143 209 0
 82 144 145 14 144 207 146 ?17 147 143 5 148 -0 0 17 147 22 15 145 210 0 52 144
 0 17 52 0 145 52 52 0 149 50 0 0 +17 149 0 150 149 149 0 52 50 0 0 -15 150 205
 0 149 147 151 14 147 203 152 ?144 153 150 5 154 -0 0 144 153 22 15 151 206 0 55
 147 0 17 55 0 151 55 55 0 155 53 0 0 +17 155 0 156 155 155 0 55 53 0 0 -15 156
 201 0 155 153 157 14 153 199 158 ?147 159 156 5 160 -0 0 147 159 22 15 157 202
 0 85 153 0 17 85 0 157 85 85 0 161 83 0 0 +17 161 0 162 161 161 0 85 83 0 0 -15
 162 186 0 161 116 0 81 1 158 626 109 153 163 0 152 164 165 14 159 154 164 ?153
 166 167 5 168 -0 0 153 166 22 50 160 214 0 153 154 168 0 +-.00225 .0055 0 -1 0
 0 0 0 1 51 154 215 0 147 148 160 0 --.00725 .003 0 -1 0 0 .002505 0 0 1 50 168
 166 0 159 160 169 0 +75e-5 .0055 0 -1 0 0 0 0 1 51 169 165 0 166 168 170 0 --.0
0725 .003 0 -1 0 0 .002505 0 0 1 14 166 150 171 ?159 124 172 5 169 -0 0 159 124
 22 50 170 164 0 124 169 102 0 +-75e-5 .0055 0 1 0 0 0 0 -1 14 124 146 173 ?166
 116 174 5 170 -0 0 166 116 22 50 102 78 0 97 170 108 0 +.00775 .005 0 -1 0 0 0
 0 1 81 1 173 629 109 124 175 0 171 176 177 15 174 148 0 79 124 178 17 79 0 174
 79 79 0 179 77 0 0 +15 178 149 0 61 124 0 17 61 0 178 61 61 0 180 59 0 0 +17 18
0 0 172 180 180 0 61 59 0 0 -15 172 152 0 180 166 181 15 181 153 0 58 166 0 17 5
8 0 181 58 58 0 182 56 0 0 +17 182 0 167 182 182 0 58 56 0 0 -15 167 156 0 182 1
59 183 15 183 157 0 76 159 0 17 76 0 183 76 76 0 126 74 0 0 +17 126 0 119 126 12
6 0 76 74 0 0 -17 179 0 125 179 179 0 79 77 0 0 -15 125 137 0 179 116 162 80 1 1
09 184 185 9000 1 1 1 1 1 1 1 1 0 FFFFTFTFFFFFFF1 81 1 175 541 186 124 0 173 187
 188 189 81 1 171 628 109 166 188 0 164 173 190 81 1 176 630 109 135 191 0 173 1
92 193 82 1 177 1674117485 14 135 252 176 ?101 129 194 5 195 -0 0 101 129 22 81
 1 191 551 186 135 0 176 196 197 198 81 1 192 631 109 101 197 0 176 199 200 82 1
 193 1687814509 14 101 256 192 ?97 135 201 5 202 -0 0 97 135 22 81 1 197 552 186
 101 0 192 191 203 204 81 1 199 632 109 17 205 0 192 206 207 82 1 200 1687224685
 14 17 72 199 ?130 144 208 5 6 -0 0 130 144 22 81 1 205 547 186 17 0 199 209 210
 211 81 1 206 633 109 113 212 0 199 213 214 82 1 207 -1766260366 14 113 337 206
 ?215 106 216 5 217 +0 0 215 106 22 81 1 212 556 186 113 0 206 218 219 220 81 1
 213 634 109 215 219 0 206 221 222 82 1 214 -1345322638 14 215 343 213 ?223 113
 224 5 225 -0 0 223 113 22 81 1 219 557 186 215 0 213 212 226 227 81 1 221 635 1
09 223 226 0 213 228 229 82 1 222 -1350041230 14 223 347 221 ?95 215 230 5 231 -
0 0 95 215 22 81 1 226 558 186 223 0 221 219 232 233 81 1 228 636 109 95 232 0 2
21 234 235 82 1 229 -1349320334 14 95 333 228 ?236 223 237 5 238 -236 236 236 22
3 22 81 1 232 559 186 95 0 228 226 239 240 81 1 234 637 109 236 239 0 228 241 24
2 82 1 235 -1324023438 14 236 329 234 ?243 95 244 5 238 -95 95 34 95 22 81 1 239
 560 186 236 0 234 232 245 246 81 1 241 638 109 243 245 0 234 247 248 82 1 242 -
1323499150 14 243 340 241 ?249 236 36 5 250 -0 0 0 249 22 81 1 245 561 186 243 0
 241 239 251 252 81 1 247 639 109 249 251 0 241 253 254 82 1 248 -1344470670 14
 249 355 247 ?34 243 255 5 256 -0 0 243 34 22 81 1 251 562 186 249 0 247 245 257
 258 81 1 253 640 109 34 257 0 247 0 259 82 1 254 -1348533902 14 34 359 253 ?0 2
49 31 5 260 -0 0 249 236 22 81 1 257 563 186 34 0 253 251 0 261 82 1 259 -134774
7470 80 1 186 0 262 8001 0 0 0 0 3 5 0 0 0 FFFFTFTFFFFFFF2 83 3 261 .8 .81176470
5882353 .8 79 15 262 SDL/TYSA_COLOUR51 260 367 0 34 256 250 0 --.0127 .0025 0 0
 -1 0 375e-6 0 0 -1 54 256 368 0 249 238 260 0 --.0122 .0025 0 0 0 1 5e-4 375e-6
 1 0 0 50 250 366 0 243 260 217 0 +-.0127 -.002 0 0 1 0 0 0 1 50 217 365 0 113 2
50 202 0 +.0127 -.002 0 0 -1 0 0 0 1 50 202 265 0 101 217 195 0 +.00225 .0055 0
 1 0 0 0 0 -1 51 195 264 0 135 202 137 0 --.00725 .003 0 -1 0 0 .002505 0 0 1 50
 137 263 0 129 195 148 0 +.00375 .0055 0 -1 0 0 0 0 1 50 148 216 0 144 137 154 0
 +-.00375 .0055 0 1 0 0 0 0 -1 51 238 369 0 236 231 256 0 -.0122 .003 0 -1 0 0 3
75e-6 0 0 1 54 231 370 0 223 225 238 0 -.0122 .0025 0 0 0 1 5e-4 375e-6 1 0 0 51
 225 371 0 215 0 231 0 -.0127 -.002 0 0 1 0 375e-6 0 0 1 83 3 258 .8 .8117647058
82353 .8 15 255 357 0 43 249 263 17 43 0 255 43 43 0 264 38 0 0 +15 263 358 0 26
5 249 0 17 265 0 263 265 265 0 266 44 0 0 -17 266 0 244 266 266 0 265 44 0 0 +16
 44 317 0 ?266 38 267 46 0 0 1 16 267 323 0 ?268 44 269 270 0 0 1 31 46 375 0 44
 270 45 0 +-.0122 .003 0 1 0 0 0 0 1 375e-6 31 270 376 0 267 271 46 0 +.0122 .00
3 0 1 3469446951953615e-30 0 0 0 1 375e-6 31 271 377 0 269 272 270 0 +.0127 .002
5 0 0 -1 0 0 0 1 375e-6 16 269 322 0 ?273 267 29 271 0 0 1 31 272 378 0 29 0 271
 0 +.0127 -.002 0 0 -1 0 0 0 1 375e-6 16 29 320 0 ?28 269 0 272 0 0 1 17 28 0 21
6 28 28 11 25 29 0 0 +15 216 339 0 28 113 0 17 273 0 224 273 273 0 274 269 0 0 +
15 224 345 0 273 215 27 17 274 0 275 274 274 0 273 269 0 0 -15 275 350 0 274 223
 0 15 27 346 0 25 215 0 17 268 0 230 268 268 0 276 267 0 0 +15 230 349 0 268 223
 275 17 276 0 237 276 276 0 268 267 0 0 -15 237 335 0 276 95 93 15 244 331 0 266
 236 277 15 277 332 0 23 236 0 17 23 0 277 23 23 0 278 10 0 0 +17 278 0 208 278
 278 0 23 10 0 0 -15 208 312 0 278 17 279 15 279 71 0 73 17 0 17 73 0 279 73 73
 0 280 71 0 0 +17 280 0 139 280 280 0 73 71 0 0 -15 139 108 0 280 130 281 15 281
 66 0 70 130 0 17 70 0 281 70 70 0 140 68 0 0 +17 264 0 35 264 264 0 43 38 0 0 -
15 35 362 0 264 34 0 83 3 252 .8 .811764705882353 .8 15 36 342 0 32 243 0 83 3 2
46 .8 .811764705882353 .8 83 3 240 .8 .811764705882353 .8 83 3 233 .8 .811764705
882353 .8 83 3 227 .8 .811764705882353 .8 81 1 218 555 186 106 0 111 110 212 282
 83 3 220 .8 .811764705882353 .8 81 1 111 618 109 106 218 0 105 118 283 81 1 110
 554 186 100 0 105 203 218 284 83 3 282 1 1 .752941176470588 81 1 203 553 186 97
 0 99 197 110 285 83 3 284 1 1 .752941176470588 81 1 99 616 109 97 203 0 0 105 2
86 83 3 285 1 1 .752941176470588 82 1 286 -1771699854 82 1 283 1695089005 81 1 2
09 546 186 144 0 146 287 205 288 81 1 210 548 186 130 0 138 205 132 289 83 3 211
 1 1 .752941176470588 81 1 138 623 109 130 210 0 133 146 290 81 1 132 549 186 12
0 0 128 210 196 291 83 3 289 1 1 .752941176470588 81 1 196 550 186 129 0 133 132
 191 292 83 3 291 1 1 .752941176470588 81 1 133 622 109 129 196 0 128 138 293 83
 3 292 .909803921568627 .443137254901961 .03137254901960785 82 1 293 1688404333
 81 1 146 624 109 144 209 0 138 152 294 82 1 290 1870922076 81 1 152 625 109 147
 287 0 146 158 295 82 1 294 1679950189 81 1 287 545 186 147 0 152 163 209 296 82
 1 295 1680540013 81 1 163 544 186 153 0 158 297 287 298 83 3 296 .9098039215686
27 .443137254901961 .03137254901960785 81 1 297 543 186 159 0 164 188 163 299 83
 3 298 .909803921568627 .443137254901961 .03137254901960785 81 1 164 627 109 159
 297 0 158 171 300 81 1 188 542 186 166 0 171 175 297 301 83 3 299 .909803921568
627 .443137254901961 .03137254901960785 83 3 301 .909803921568627 .4431372549019
61 .03137254901960785 82 1 300 1673199981 83 3 288 .909803921568627 .44313725490
1961 .03137254901960785 83 3 204 .909803921568627 .443137254901961 .031372549019
60785 15 201 258 0 87 101 302 17 87 0 201 87 87 0 303 86 0 0 +15 302 259 0 40 10
1 0 17 40 0 302 40 40 0 304 37 0 0 +17 304 0 194 304 304 0 40 37 0 0 -15 194 254
 0 304 135 305 15 305 255 0 49 135 0 17 49 0 305 49 49 0 306 41 0 0 +17 306 0 13
6 306 306 0 49 41 0 0 -15 136 250 0 306 129 90 15 90 251 0 89 129 0 17 303 0 127
 303 303 0 87 86 0 0 -15 127 229 0 303 15 0 83 3 198 .909803921568627 .443137254
901961 .03137254901960785 82 1 190 1673789805 81 1 187 540 186 116 0 122 121 175
 307 83 3 189 .909803921568627 .443137254901961 .03137254901960785 81 1 122 620
 109 116 187 0 118 128 308 81 1 121 539 186 15 0 118 0 187 309 83 3 307 1 1 .752
941176470588 83 3 309 1 1 .752941176470588 82 1 308 1693647213 79 14 185 SWEntUn
changed82 1 165 1681129837 54 18 81 0 130 115 6 0 --.00725 .003 0 -1 0 0 .002 5e
-4 0 0 1 82 1 134 1693122925 82 1 123 1694564717 17 117 0 107 117 117 0 67 65 0
 0 -17 67 0 114 67 67 0 117 65 0 0 +15 114 61 0 67 106 310 15 310 235 0 91 106 0
 17 91 0 310 91 91 0 89 88 0 0 -82 1 112 1869742428 19 16 40 0 1 0 9 5 S74 20 14
 3 0 0 253 2 257 0 0 0 0 0 0 0 0 0 0 0 0 0 0 0 0 0 80 2 12 311 312 8004 0 0 0 0
 3 5 0 0 0 FFTFFFFFFFFFFF2 3 83 1 13 1 79 16 312 SDL/TYSA_DENSITY1 0 
