**ABCDEFGHIJKLMNOPQRSTUVWXYZabcdefghijklmnopqrstuvwxyz**************************
**PARASOLID !"#$%&'()*+,-./:;<=>?@[\]^_`{|}~0123456789**************************
**PART1;
MC=AMD64;
MC_MODEL=Intel64 Family 6 Model 60 Stepping 3, GenuineIntel;
MC_ID=unknown;
OS=Windows_NT;
OS_RELEASE=unknown;
FRU=Parasolid Version 30.0, build 310,  6- 8-2018;
APPL=SOLIDWORKS 2018-2018316;
SITE=;
USER=unknown;
FORMAT=text;
GUISE=transmit;
KEY=R_L3.6_D1.6_P7.62_DIN0204_Horizontal;
FILE=R_L3.6_D1.6_P7.62_DIN0204_Horizontal.x_t;
DATE=Thu Feb 29 17:30:26 2024;
**PART2;
SCH=SCH_3000310_30000;
USFLD_SIZE=0;
**PART3;
**END_OF_HEADER*****************************************************************
T51 : TRANSMIT FILE created by modeller version 300031017 SCH_2000000_200000 12
 1 790 2 3 0 0 0 0 1e3 1e-8 0 4 0 1 0 1 1 5 6 7 8 9 10 11 0 0 0 0 81 2 2 435 12
 1 0 0 0 0 13 0 70 3 0 4 T1 0 0 3 20 1 14 14 13 5 41 0 1 0 15 0 0 16 0 50 6 82 0
 17 18 0 0 +-.0018 .0013 0 1 0 0 0 0 -1 31 7 306 0 19 20 0 0 -.0018 .0013 0 -1 0
 0 0 0 1 225e-6 29 8 378 0 11 21 0 .00381 -.002 225e-6 19 9 45 0 1 16 0 22 V16 1
0 309 0 ?23 0 19 24 0 0 1 18 11 326 0 25 0 26 8 ?1 17 25 0 27 25 25 11 28 29 0 2
8 -18 26 327 0 30 11 0 21 ?1 17 30 0 31 30 30 26 32 33 0 32 +29 21 379 0 26 0 8
 -.00381 -.002 225e-6 15 31 360 0 30 34 35 17 32 0 36 32 32 26 30 33 0 0 -16 33
 324 0 ?30 37 38 39 0 0 1 16 37 242 0 ?40 41 33 42 0 0 1 16 38 323 0 ?43 33 44 4
5 0 0 1 31 39 372 0 33 45 24 0 +-.00381 -.002 0 0 1 0 0 0 1 225e-6 31 45 373 0 3
8 46 39 0 +-.00381 8e-4 0 0 1 0 0 0 1 225e-6 31 24 371 0 10 39 42 0 --.0018 .001
3 0 1 0 0 0 0 -1 225e-6 31 42 267 0 37 24 47 0 +5e-4 .0013 0 -1 0 0 0 0 1 805e-6
 31 47 266 0 41 42 48 0 +.001 .0013 0 -1 0 0 0 0 1 805e-6 16 41 241 0 ?49 50 37
 47 0 0 1 31 48 218 0 50 47 51 0 +-.001 .0013 0 -1 0 0 0 0 1 805e-6 16 50 193 0
 ?52 53 41 48 0 0 1 31 51 217 0 53 48 54 0 +-5e-4 .0013 0 -1 0 0 0 0 1 805e-6 16
 53 192 0 ?55 56 50 51 0 0 1 31 54 168 0 56 51 57 0 +25e-5 .0013 0 -1 0 0 0 0 1
 805e-6 16 56 142 0 ?58 59 53 54 0 0 1 31 57 167 0 59 54 60 0 +-25e-5 .0013 0 -1
 0 0 0 0 1 805e-6 16 59 141 0 ?61 62 56 57 0 0 1 31 60 83 0 62 57 63 0 +.0018 .0
013 0 -1 0 0 0 0 1 3e-4 16 62 49 0 ?64 65 59 60 0 0 1 31 63 84 0 65 60 66 0 +.00
13 .0013 0 -1 0 0 0 0 1 8e-4 16 65 54 0 ?67 68 62 63 0 0 1 31 66 85 0 68 63 69 0
 +-.0013 .0013 0 -1 0 0 0 0 1 8e-4 16 68 59 0 ?70 71 65 66 0 0 1 31 69 86 0 71 6
6 72 0 +-.0018 .0013 0 -1 0 0 0 0 1 3e-4 16 71 64 0 ?73 74 68 69 0 0 1 31 72 131
 0 74 69 75 0 +25e-5 .0013 0 -1 0 0 0 0 1 8e-4 16 74 128 0 ?76 77 71 72 0 0 1 31
 75 137 0 77 72 78 0 +-25e-5 .0013 0 1 0 0 0 0 -1 8e-4 16 77 134 0 ?79 80 74 75
 0 0 1 31 78 180 0 80 75 81 0 +-.001 .0013 0 1 0 0 0 0 -1 8e-4 16 80 177 0 ?82 8
3 77 78 0 0 1 31 81 186 0 83 78 84 0 +-5e-4 .0013 0 -1 0 0 0 0 1 8e-4 16 83 183
 0 ?85 86 80 81 0 0 1 31 84 229 0 86 81 20 0 +5e-4 .0013 0 1 0 0 0 0 -1 8e-4 16
 86 226 0 ?87 88 83 84 0 0 1 31 20 235 0 88 84 7 0 +.001 .0013 0 -1 0 0 0 0 1 8e
-4 16 88 232 0 ?89 19 86 20 0 0 1 17 89 0 90 89 89 0 91 88 0 0 +16 19 303 0 ?92
 10 88 7 0 0 1 17 92 0 93 92 92 0 94 19 0 0 +15 93 335 0 92 95 0 17 94 0 96 94 9
4 0 92 19 0 0 -15 96 305 0 94 97 98 14 97 52 99 ?100 101 96 5 102 -0 0 100 101 2
2 15 98 111 0 103 97 0 17 103 0 98 103 103 0 64 62 0 0 -17 64 0 104 64 64 0 103
 62 0 0 +15 104 56 0 64 100 0 14 100 57 105 ?106 97 107 5 108 -0 0 106 97 22 81
 1 105 767 109 100 110 0 99 111 112 14 106 236 111 ?113 100 114 5 115 -15 116 11
3 100 22 15 107 110 0 117 100 104 54 108 79 0 100 102 115 0 -.0013 .0013 0 -1 0
 0 3e-4 5e-4 0 0 1 13 22 44 0 0 0 0 0 0 9 15 14 15 230 118 ?116 0 119 5 115 -120
 106 116 0 22 81 1 118 769 109 15 121 0 111 122 123 14 116 187 122 ?124 15 125 5
 115 -106 120 124 15 22 15 119 130 0 126 15 127 51 115 80 0 116 108 18 0 --.0024
5179250392431 .0013 0 -1 0 0 8e-4 0 0 1 14 120 181 128 ?129 130 131 5 115 -116 1
5 129 130 22 81 1 128 771 109 120 132 0 122 133 134 14 129 247 133 ?135 120 136
 5 137 -0 0 135 120 22 14 130 67 138 ?120 17 139 5 18 -0 0 120 17 22 15 131 109
 0 140 120 141 17 140 0 131 140 140 0 70 68 0 0 -15 141 179 0 142 120 0 17 142 0
 141 142 142 0 82 80 0 0 -17 82 0 143 82 82 0 142 80 0 0 +15 143 208 0 82 144 14
5 14 144 206 146 ?17 147 143 5 148 -0 0 17 147 22 15 145 209 0 52 144 0 17 52 0
 145 52 52 0 149 50 0 0 +17 149 0 150 149 149 0 52 50 0 0 -15 150 204 0 149 147
 151 14 147 202 152 ?144 153 150 5 154 -0 0 144 153 22 15 151 205 0 55 147 0 17
 55 0 151 55 55 0 155 53 0 0 +17 155 0 156 155 155 0 55 53 0 0 -15 156 200 0 155
 153 157 14 153 198 158 ?147 159 156 5 160 -0 0 147 159 22 15 157 201 0 85 153 0
 17 85 0 157 85 85 0 161 83 0 0 +17 161 0 162 161 161 0 85 83 0 0 -15 162 185 0
 161 116 0 81 1 158 776 109 153 163 0 152 164 165 14 159 153 164 ?153 166 167 5
 168 -0 0 153 166 22 50 160 213 0 153 154 168 0 +-5e-4 .0021 0 -1 0 0 0 0 1 51 1
54 214 0 147 148 160 0 --.0013 .0013 0 -1 0 0 805e-6 0 0 1 50 168 165 0 159 160
 169 0 +25e-5 .0021 0 -1 0 0 0 0 1 51 169 164 0 166 168 170 0 --.0013 .0013 0 -1
 0 0 805e-6 0 0 1 14 166 149 171 ?159 124 172 5 169 -0 0 159 124 22 50 170 163 0
 124 169 102 0 +-25e-5 .0021 0 1 0 0 0 0 -1 14 124 145 173 ?166 116 174 5 170 -0
 0 166 116 22 50 102 78 0 97 170 108 0 +.0018 .0016 0 -1 0 0 0 0 1 81 1 173 779
 109 124 175 0 171 176 177 15 174 147 0 79 124 178 17 79 0 174 79 79 0 179 77 0
 0 +15 178 148 0 61 124 0 17 61 0 178 61 61 0 180 59 0 0 +17 180 0 172 180 180 0
 61 59 0 0 -15 172 151 0 180 166 181 15 181 152 0 58 166 0 17 58 0 181 58 58 0 1
82 56 0 0 +17 182 0 167 182 182 0 58 56 0 0 -15 167 155 0 182 159 183 15 183 156
 0 76 159 0 17 76 0 183 76 76 0 126 74 0 0 +17 126 0 119 126 126 0 76 74 0 0 -17
 179 0 125 179 179 0 79 77 0 0 -15 125 136 0 179 116 162 80 1 109 184 185 9000 1
 1 1 1 1 1 1 1 0 FFFFTFTFFFFFFF1 81 1 175 691 186 124 0 173 187 188 189 81 1 171
 778 109 166 188 0 164 173 190 81 1 176 780 109 17 191 0 173 192 193 82 1 177 -1
163788083 14 17 72 176 ?130 144 194 5 6 -0 0 130 144 22 81 1 191 697 186 17 0 17
6 195 196 197 81 1 192 781 109 135 198 0 176 199 200 82 1 193 -1216216877 14 135
 251 192 ?101 129 201 5 202 -0 0 101 129 22 81 1 198 701 186 135 0 192 203 204 2
05 81 1 199 782 109 101 204 0 192 206 207 82 1 200 -1150091059 14 101 255 199 ?9
7 135 208 5 209 -0 0 97 135 22 81 1 204 702 186 101 0 199 198 210 211 81 1 206 7
83 109 113 212 0 199 213 214 82 1 207 -1150680883 14 113 336 206 ?215 106 216 5
 217 +0 0 215 106 22 81 1 212 706 186 113 0 206 218 219 220 81 1 213 784 109 215
 219 0 206 221 222 82 1 214 -324534061 14 215 342 213 ?223 113 224 5 225 -0 0 22
3 113 22 81 1 219 707 186 215 0 213 212 226 227 81 1 221 785 109 223 226 0 213 2
28 229 82 1 222 -329252653 14 223 346 221 ?95 215 230 5 231 -0 0 95 215 22 81 1
 226 708 186 223 0 221 219 232 233 81 1 228 786 109 95 232 0 221 234 235 82 1 22
9 -328531757 14 95 332 228 ?236 223 237 5 238 -236 236 236 223 22 81 1 232 709 1
86 95 0 228 226 239 240 81 1 234 787 109 236 239 0 228 241 242 82 1 235 -3032348
61 14 236 328 234 ?243 95 244 5 238 -95 95 34 95 22 81 1 239 710 186 236 0 234 2
32 245 246 81 1 241 788 109 243 245 0 234 247 248 82 1 242 -302710573 14 243 339
 241 ?249 236 36 5 250 -0 0 0 249 22 81 1 245 711 186 243 0 241 239 251 252 81 1
 247 789 109 249 251 0 241 253 254 82 1 248 -323682093 14 249 354 247 ?34 243 25
5 5 256 -0 0 243 34 22 81 1 251 712 186 249 0 247 245 257 258 81 1 253 790 109 3
4 257 0 247 0 259 82 1 254 -327745325 14 34 358 253 ?0 249 31 5 260 -0 0 249 236
 22 81 1 257 713 186 34 0 253 251 0 261 82 1 259 -326958893 80 1 186 0 262 8001
 0 0 0 0 3 5 0 0 0 FFFFTFTFFFFFFF2 83 3 261 .8 .811764705882353 .8 79 15 262 SDL
/TYSA_COLOUR51 260 366 0 34 256 250 0 --.00381 8e-4 0 -3097720492815725e-31 -1 0
 225e-6 1 -3097720492815725e-31 0 54 256 367 0 249 238 260 0 --.00331 8e-4 0 0 0
 1 5e-4 225e-6 1 0 0 50 250 365 0 243 260 217 0 +-.00381 -.002 0 0 1 0 0 0 1 50
 217 364 0 113 250 209 0 +.00381 -.002 0 619544098563145e-30 -1 0 0 0 1 50 209 2
64 0 101 217 202 0 +5e-4 .0021 0 1 0 0 0 0 -1 51 202 263 0 135 209 137 0 --.0013
 .0013 0 -1 0 0 805e-6 0 0 1 50 137 262 0 129 202 148 0 +.001 .0021 0 -1 0 0 0 0
 1 50 148 215 0 144 137 154 0 +-.001 .0021 0 1 0 0 0 0 -1 51 238 368 0 236 231 2
56 0 -.00331 .0013 0 -1 0 0 225e-6 0 0 1 54 231 369 0 223 225 238 0 -.00331 8e-4
 0 0 0 1 5e-4 225e-6 1 0 0 51 225 370 0 215 0 231 0 -.00381 -.002 0 -30977204928
15725e-31 1 0 225e-6 -1 -3097720492815725e-31 0 83 3 258 .8 .811764705882353 .8
 15 255 356 0 43 249 263 17 43 0 255 43 43 0 264 38 0 0 +15 263 357 0 265 249 0
 17 265 0 263 265 265 0 266 44 0 0 -17 266 0 244 266 266 0 265 44 0 0 +16 44 316
 0 ?266 38 267 46 0 0 1 16 267 322 0 ?268 44 269 270 0 0 1 31 46 374 0 44 270 45
 0 +-.00331 .0013 0 1 3097720492815725e-31 0 0 0 1 225e-6 31 270 375 0 267 271 4
6 0 +.00331 .0013 0 1 -557589688706831e-30 0 0 0 1 225e-6 31 271 376 0 269 272 2
70 0 +.00381 8e-4 0 619544098563145e-30 -1 0 0 0 1 225e-6 16 269 321 0 ?273 267
 29 271 0 0 1 31 272 377 0 29 0 271 0 +.00381 -.002 0 619544098563145e-30 -1 0 0
 0 1 225e-6 16 29 319 0 ?28 269 0 272 0 0 1 17 28 0 216 28 28 11 25 29 0 0 +15 2
16 338 0 28 113 0 17 273 0 224 273 273 0 274 269 0 0 +15 224 344 0 273 215 27 17
 274 0 275 274 274 0 273 269 0 0 -15 275 349 0 274 223 0 15 27 345 0 25 215 0 17
 268 0 230 268 268 0 276 267 0 0 +15 230 348 0 268 223 275 17 276 0 237 276 276
 0 268 267 0 0 -15 237 334 0 276 95 93 15 244 330 0 266 236 277 15 277 331 0 23
 236 0 17 23 0 277 23 23 0 278 10 0 0 +17 278 0 194 278 278 0 23 10 0 0 -15 194
 311 0 278 17 279 15 279 71 0 73 17 0 17 73 0 279 73 73 0 280 71 0 0 +17 280 0 1
39 280 280 0 73 71 0 0 -15 139 108 0 280 130 281 15 281 66 0 70 130 0 17 70 0 28
1 70 70 0 140 68 0 0 +17 264 0 35 264 264 0 43 38 0 0 -15 35 361 0 264 34 0 83 3
 252 .8 .811764705882353 .8 15 36 341 0 32 243 0 83 3 246 .8 .811764705882353 .8
 83 3 240 .8 .811764705882353 .8 83 3 233 .8 .811764705882353 .8 83 3 227 .8 .81
1764705882353 .8 81 1 218 705 186 106 0 111 110 212 282 83 3 220 .8 .81176470588
2353 .8 81 1 111 768 109 106 218 0 105 118 283 81 1 110 704 186 100 0 105 210 21
8 284 83 3 282 1 1 .752941176470588 81 1 210 703 186 97 0 99 204 110 285 83 3 28
4 1 1 .752941176470588 81 1 99 766 109 97 210 0 0 105 286 83 3 285 1 1 .75294117
6470588 82 1 286 -1218576173 82 1 283 -1142816563 83 3 211 .909803921568627 .443
137254901961 .03137254901960785 15 208 257 0 87 101 287 17 87 0 208 87 87 0 288
 86 0 0 +15 287 258 0 40 101 0 17 40 0 287 40 40 0 289 37 0 0 +17 289 0 201 289
 289 0 40 37 0 0 -15 201 253 0 289 135 290 15 290 254 0 49 135 0 17 49 0 290 49
 49 0 291 41 0 0 +17 291 0 136 291 291 0 49 41 0 0 -15 136 249 0 291 129 90 15 9
0 250 0 89 129 0 17 288 0 127 288 288 0 87 86 0 0 -15 127 228 0 288 15 0 81 1 20
3 700 186 129 0 133 132 198 292 83 3 205 .909803921568627 .443137254901961 .0313
7254901960785 81 1 133 772 109 129 203 0 128 138 293 81 1 132 699 186 120 0 128
 196 203 294 83 3 292 .909803921568627 .443137254901961 .03137254901960785 81 1
 196 698 186 130 0 138 191 132 295 83 3 294 1 1 .752941176470588 81 1 138 773 10
9 130 196 0 133 146 296 83 3 295 1 1 .752941176470588 81 1 146 774 109 144 195 0
 138 152 297 82 1 296 -1216806709 81 1 195 696 186 144 0 146 298 191 299 81 1 15
2 775 109 147 298 0 146 158 300 82 1 297 -1157955379 81 1 298 695 186 147 0 152
 163 195 301 82 1 300 -1157365555 81 1 163 694 186 153 0 158 302 298 303 83 3 30
1 .909803921568627 .443137254901961 .03137254901960785 81 1 302 693 186 159 0 16
4 188 163 304 83 3 303 .909803921568627 .443137254901961 .03137254901960785 81 1
 164 777 109 159 302 0 158 171 305 81 1 188 692 186 166 0 171 175 302 306 83 3 3
04 .909803921568627 .443137254901961 .03137254901960785 83 3 306 .90980392156862
7 .443137254901961 .03137254901960785 82 1 305 -1164705587 83 3 299 .90980392156
8627 .443137254901961 .03137254901960785 82 1 293 -1149501235 83 3 197 1 1 .7529
41176470588 82 1 190 -1164115763 81 1 187 690 186 116 0 122 121 175 307 83 3 189
 .909803921568627 .443137254901961 .03137254901960785 81 1 122 770 109 116 187 0
 118 128 308 81 1 121 689 186 15 0 118 0 187 309 83 3 307 1 1 .752941176470588 8
3 3 309 1 1 .752941176470588 82 1 308 -1144258355 79 14 185 SWEntUnchanged82 1 1
65 -1156775731 54 18 81 0 130 115 6 0 --.0013 .0013 0 -1 0 0 3e-4 5e-4 0 0 1 82
 1 134 -1144782643 82 1 123 -1143340851 17 117 0 107 117 117 0 67 65 0 0 -17 67
 0 114 67 67 0 117 65 0 0 +15 114 61 0 67 106 310 15 310 234 0 91 106 0 17 91 0
 310 91 91 0 89 88 0 0 -82 1 112 -1217986357 19 16 40 0 1 0 9 5 S74 20 14 3 0 0
 253 2 257 0 0 0 0 0 0 0 0 0 0 0 0 0 0 0 0 0 80 2 12 311 312 8004 0 0 0 0 3 5 0
 0 0 FFTFFFFFFFFFFF2 3 83 1 13 1 79 16 312 SDL/TYSA_DENSITY1 0 
