**ABCDEFGHIJKLMNOPQRSTUVWXYZabcdefghijklmnopqrstuvwxyz**************************
**PARASOLID !"#$%&'()*+,-./:;<=>?@[\]^_`{|}~0123456789**************************
**PART1;
MC=AMD64;
MC_MODEL=Intel64 Family 6 Model 60 Stepping 3, GenuineIntel;
MC_ID=unknown;
OS=Windows_NT;
OS_RELEASE=unknown;
FRU=Parasolid Version 30.0, build 310,  6- 8-2018;
APPL=SOLIDWORKS 2018-2018316;
SITE=;
USER=unknown;
FORMAT=text;
GUISE=transmit;
KEY=R_L9.0_D3.2_P20.32_DIN0309_Horizontal;
FILE=R_L9.0_D3.2_P20.32_DIN0309_Horizontal.x_t;
DATE=Thu Feb 29 18:06:14 2024;
**PART2;
SCH=SCH_3000310_30000;
USFLD_SIZE=0;
**PART3;
**END_OF_HEADER*****************************************************************
T51 : TRANSMIT FILE created by modeller version 300031017 SCH_2000000_200000 12
 1 712 2 3 0 0 0 0 1e3 1e-8 0 4 0 1 0 1 1 5 6 7 8 9 10 11 0 0 0 0 81 2 2 435 12
 1 0 0 0 0 13 0 70 3 0 4 T1 0 0 3 20 1 14 14 13 5 41 0 1 0 15 0 0 16 0 50 6 82 0
 17 18 0 0 +-.0045 .0021 0 1 0 0 0 0 -1 31 7 307 0 19 20 0 0 --.0045 .0021 0 1 0
 0 0 0 -1 325e-6 29 8 379 0 11 21 0 .01016 -.002 325e-6 19 9 45 0 1 16 0 22 V16
 10 310 0 ?23 0 19 24 0 0 1 18 11 327 0 25 0 26 8 ?1 17 25 0 27 25 25 11 28 29 0
 28 -18 26 328 0 30 11 0 21 ?1 17 30 0 31 30 30 26 32 33 0 32 +29 21 380 0 26 0
 8 -.01016 -.002 325e-6 15 31 361 0 30 34 35 17 32 0 36 32 32 26 30 33 0 0 -16 3
3 325 0 ?30 37 38 39 0 0 1 16 37 243 0 ?40 41 33 42 0 0 1 16 38 324 0 ?43 33 44
 45 0 0 1 31 39 373 0 33 45 24 0 +-.01016 -.002 0 0 1 0 0 0 1 325e-6 31 45 374 0
 38 46 39 0 +-.01016 .0016 0 0 1 0 0 0 1 325e-6 31 24 372 0 10 39 42 0 -.0045 .0
021 0 -1 0 0 0 0 1 325e-6 31 42 268 0 37 24 47 0 +-.0025 .0021 0 -1 0 0 0 0 1 .0
01605 31 47 267 0 41 42 48 0 +-.0015 .0021 0 -1 0 0 0 0 1 .001605 16 41 242 0 ?4
9 50 37 47 0 0 1 31 48 219 0 50 47 51 0 +.0015 .0021 0 -1 0 0 0 0 1 .001605 16 5
0 194 0 ?52 53 41 48 0 0 1 31 51 218 0 53 48 54 0 +.0025 .0021 0 -1 0 0 0 0 1 .0
01605 16 53 193 0 ?55 56 50 51 0 0 1 31 54 169 0 56 51 57 0 +5e-4 .0021 0 -1 0 0
 0 0 1 .001605 16 56 143 0 ?58 59 53 54 0 0 1 31 57 168 0 59 54 60 0 +-5e-4 .002
1 0 -1 0 0 0 0 1 .001605 16 59 142 0 ?61 62 56 57 0 0 1 31 60 83 0 62 57 63 0 +.
0045 .0021 0 -1 0 0 0 0 1 .0011 16 62 49 0 ?64 65 59 60 0 0 1 31 63 84 0 65 60 6
6 0 +.004 .0021 0 -1 0 0 0 0 1 .0016 16 65 54 0 ?67 68 62 63 0 0 1 31 66 85 0 68
 63 69 0 +-.004 .0021 0 -1 0 0 0 0 1 .0016 16 68 59 0 ?70 71 65 66 0 0 1 31 69 8
6 0 71 66 72 0 +-.0045 .0021 0 -1 0 0 0 0 1 .0011 16 71 64 0 ?73 74 68 69 0 0 1
 31 72 132 0 74 69 75 0 +5e-4 .0021 0 -1 0 0 0 0 1 .0016 16 74 129 0 ?76 77 71 7
2 0 0 1 31 75 138 0 77 72 78 0 +-5e-4 .0021 0 1 0 0 0 0 -1 .0016 16 77 135 0 ?79
 80 74 75 0 0 1 31 78 181 0 80 75 81 0 +.0015 .0021 0 1 0 0 0 0 -1 .0016 16 80 1
78 0 ?82 83 77 78 0 0 1 31 81 187 0 83 78 84 0 +.0025 .0021 0 -1 0 0 0 0 1 .0016
 16 83 184 0 ?85 86 80 81 0 0 1 31 84 230 0 86 81 20 0 +-.0025 .0021 0 1 0 0 0 0
 -1 .0016 16 86 227 0 ?87 88 83 84 0 0 1 31 20 236 0 88 84 7 0 +-.0015 .0021 0 -
1 0 0 0 0 1 .0016 16 88 233 0 ?89 19 86 20 0 0 1 17 89 0 90 89 89 0 91 88 0 0 +1
6 19 304 0 ?92 10 88 7 0 0 1 17 92 0 93 92 92 0 94 19 0 0 +15 93 336 0 92 95 0 1
7 94 0 96 94 94 0 92 19 0 0 -15 96 306 0 94 17 97 14 17 72 98 ?99 100 96 5 6 -0
 0 99 100 22 15 97 71 0 73 17 0 17 73 0 97 73 73 0 101 71 0 0 +17 101 0 102 101
 101 0 73 71 0 0 -15 102 108 0 101 99 103 14 99 67 104 ?105 17 102 5 18 -0 0 105
 17 22 15 103 66 0 70 99 0 17 70 0 103 70 70 0 106 68 0 0 +17 106 0 107 106 106
 0 70 68 0 0 -15 107 109 0 106 105 108 14 105 231 109 ?110 99 107 5 111 -112 15
 110 99 22 15 108 229 0 113 105 0 17 113 0 108 113 113 0 87 86 0 0 -17 87 0 114
 87 87 0 113 86 0 0 +15 114 258 0 87 100 115 14 100 256 116 ?17 117 114 5 118 -0
 0 17 117 22 15 115 259 0 40 100 0 17 40 0 115 40 40 0 119 37 0 0 +17 119 0 120
 119 119 0 40 37 0 0 -15 120 254 0 119 117 121 14 117 252 122 ?100 123 120 5 124
 -0 0 100 123 22 15 121 255 0 49 117 0 17 49 0 121 49 49 0 125 41 0 0 +17 125 0
 126 125 125 0 49 41 0 0 -15 126 250 0 125 123 90 14 123 248 127 ?117 112 126 5
 128 -0 0 117 112 22 15 90 251 0 89 123 0 81 1 127 693 129 123 130 0 122 131 132
 14 112 188 131 ?123 133 134 5 111 -135 105 123 133 22 50 128 263 0 123 124 136
 0 +-.0015 .0037 0 -1 0 0 0 0 1 13 22 44 0 0 0 0 0 0 9 15 14 15 237 137 ?135 0 1
38 5 111 -105 135 135 0 22 81 1 137 695 129 15 139 0 131 140 141 14 135 182 140
 ?142 15 143 5 111 -15 112 142 15 22 15 138 137 0 144 15 145 51 111 80 0 15 146
 18 0 --.00245179250392431 .0021 0 -1 0 0 .0016 0 0 1 54 146 79 0 133 147 111 0
 -.004 .0021 0 -1 0 0 .0011 5e-4 0 0 1 54 18 81 0 99 111 6 0 --.004 .0021 0 -1 0
 0 .0011 5e-4 0 0 1 14 133 57 148 ?112 149 150 5 146 -0 0 112 149 22 50 147 78 0
 149 151 146 0 +.0045 .0032 0 -1 0 0 0 0 1 14 149 52 152 ?133 153 154 5 147 -0 0
 133 153 22 50 151 164 0 142 155 147 0 +-5e-4 .0037 0 1 0 0 0 0 -1 14 142 146 15
6 ?157 135 158 5 151 -0 0 157 135 22 51 155 165 0 157 159 151 0 --.004 .0021 0 -
1 0 0 .001605 0 0 1 14 157 150 160 ?161 142 162 5 155 -0 0 161 142 22 50 159 166
 0 161 163 155 0 +5e-4 .0037 0 -1 0 0 0 0 1 14 161 154 164 ?165 157 166 5 159 -0
 0 165 157 22 50 163 214 0 165 167 159 0 +.0025 .0037 0 -1 0 0 0 0 1 14 165 199
 168 ?169 161 170 5 163 -0 0 169 161 22 51 167 215 0 169 136 163 0 --.004 .0021
 0 -1 0 0 .001605 0 0 1 14 169 203 171 ?153 165 172 5 167 -0 0 153 165 22 50 136
 216 0 153 128 167 0 +.0015 .0037 0 1 0 0 0 0 -1 14 153 207 173 ?149 169 174 5 1
36 -0 0 149 169 22 81 1 173 704 129 153 175 0 171 176 177 15 174 209 0 82 153 17
8 17 82 0 174 82 82 0 179 80 0 0 +15 178 210 0 52 153 0 17 52 0 178 52 52 0 180
 50 0 0 +17 180 0 172 180 180 0 52 50 0 0 -15 172 205 0 180 169 181 15 181 206 0
 55 169 0 17 55 0 181 55 55 0 182 53 0 0 +17 182 0 170 182 182 0 55 53 0 0 -15 1
70 201 0 182 165 183 15 183 202 0 85 165 0 17 85 0 183 85 85 0 184 83 0 0 +17 18
4 0 185 184 184 0 85 83 0 0 -15 185 186 0 184 112 0 17 179 0 186 179 179 0 82 80
 0 0 -15 186 180 0 179 135 0 80 1 129 187 188 9000 1 1 1 1 1 1 1 1 0 FFFFTFTFFFF
FFF1 81 1 175 618 189 153 0 173 190 191 192 81 1 171 703 129 169 190 0 168 173 1
93 81 1 176 705 129 110 194 0 173 195 196 82 1 177 -1174994669 14 110 340 176 ?3
4 105 36 5 197 -0 0 34 105 22 81 1 194 628 189 110 0 176 198 199 200 81 1 195 70
6 129 34 199 0 176 201 202 82 1 196 1753940252 14 34 359 195 ?203 110 31 5 204 -
0 0 203 110 22 81 1 199 629 189 34 0 195 194 205 206 81 1 201 707 129 203 205 0
 195 207 208 82 1 202 1750663452 14 203 355 201 ?95 34 209 5 210 -0 0 95 34 22 8
1 1 205 630 189 203 0 201 199 211 212 81 1 207 708 129 95 211 0 201 213 214 82 1
 208 1749877020 14 95 333 207 ?215 203 216 5 217 -215 215 215 203 22 81 1 211 63
1 189 95 0 207 205 218 219 81 1 213 709 129 215 218 0 207 220 221 82 1 214 17743
87484 14 215 329 213 ?222 95 223 5 217 -95 95 224 95 22 81 1 218 632 189 215 0 2
13 211 225 226 81 1 220 710 129 222 225 0 213 227 228 82 1 221 1774911772 14 222
 337 220 ?229 215 230 5 231 +0 0 0 229 22 81 1 225 633 189 222 0 220 218 232 233
 81 1 227 711 129 229 232 0 220 234 235 82 1 228 1753088284 14 229 343 227 ?224
 222 236 5 237 -0 0 222 224 22 81 1 232 634 189 229 0 227 225 238 239 81 1 234 7
12 129 224 238 0 227 0 240 82 1 235 1748369692 14 224 347 234 ?0 229 241 5 242 -
0 0 229 215 22 81 1 238 635 189 224 0 234 232 0 243 82 1 240 1749090588 80 1 189
 0 244 8001 0 0 0 0 3 5 0 0 0 FFFFTFTFFFFFFF2 83 3 243 .8 .811764705882353 .8 79
 15 244 SDL/TYSA_COLOUR15 241 349 0 245 224 246 54 242 370 0 224 237 217 0 -.009
66 .0016 0 0 0 1 5e-4 325e-6 1 0 0 51 237 371 0 229 0 242 0 -.01016 -.002 0 4818
6763221578e-29 1 0 325e-6 -1 48186763221578e-29 0 51 217 369 0 215 242 210 0 -.0
0966 .0021 0 -1 0 0 325e-6 0 0 1 54 210 368 0 203 217 204 0 --.00966 .0016 0 0 0
 1 5e-4 325e-6 1 0 0 51 204 367 0 34 210 197 0 --.01016 .0016 0 48186763221578e-
29 -1 0 325e-6 1 48186763221578e-29 0 50 197 366 0 110 204 231 0 +-.01016 -.002
 0 0 1 0 0 0 1 50 231 365 0 222 197 118 0 +.01016 -.002 0 -96373526443156e-29 -1
 0 0 0 1 50 118 265 0 100 231 124 0 +-.0025 .0037 0 1 0 0 0 0 -1 51 124 264 0 11
7 118 128 0 --.004 .0021 0 -1 0 0 .001605 0 0 1 17 245 0 241 245 245 0 247 248 0
 0 +15 246 350 0 249 224 0 17 249 0 246 249 249 0 250 251 0 0 -17 250 0 236 250
 250 0 249 251 0 0 +16 251 322 0 ?250 248 29 252 0 0 1 16 248 323 0 ?245 44 251
 253 0 0 1 16 29 320 0 ?28 251 0 254 0 0 1 31 252 377 0 251 254 253 0 +.01016 .0
016 0 -96373526443156e-29 -1 0 0 0 1 325e-6 31 254 378 0 29 0 252 0 +.01016 -.00
2 0 -96373526443156e-29 -1 0 0 0 1 325e-6 31 253 376 0 248 252 46 0 +.00966 .002
1 0 1 298757931973783e-29 0 0 0 1 325e-6 31 46 375 0 44 253 45 0 +-.00966 .0021
 0 1 -48186763221578e-29 0 0 0 1 325e-6 16 44 318 0 ?255 38 248 46 0 0 1 17 255
 0 216 255 255 0 256 44 0 0 +15 216 335 0 255 95 93 17 256 0 257 256 256 0 255 4
4 0 0 -15 257 358 0 256 203 0 17 28 0 230 28 28 11 25 29 0 0 +15 230 339 0 28 22
2 0 15 236 345 0 250 229 27 15 27 346 0 25 229 0 17 247 0 223 247 247 0 245 248
 0 0 -15 223 331 0 247 215 258 15 258 332 0 23 215 0 17 23 0 258 23 23 0 259 10
 0 0 +17 259 0 154 259 259 0 23 10 0 0 -15 154 312 0 259 149 260 15 260 111 0 26
1 149 0 17 261 0 260 261 261 0 64 62 0 0 -17 64 0 262 64 64 0 261 62 0 0 +15 262
 56 0 64 133 0 83 3 239 .8 .811764705882353 .8 83 3 233 .8 .811764705882353 .8 8
3 3 226 .8 .811764705882353 .8 83 3 219 .8 .811764705882353 .8 83 3 212 .8 .8117
64705882353 .8 15 209 357 0 43 203 257 17 43 0 209 43 43 0 263 38 0 0 +17 263 0
 35 263 263 0 43 38 0 0 -15 35 362 0 263 34 0 83 3 206 .8 .811764705882353 .8 81
 1 198 627 189 105 0 109 264 194 265 83 3 200 .8 .811764705882353 .8 81 1 109 69
0 129 105 198 0 104 116 266 81 1 264 626 189 99 0 104 267 198 268 83 3 265 1 1 .
752941176470588 81 1 104 689 129 99 264 0 98 109 269 81 1 267 625 189 17 0 98 27
0 264 271 83 3 268 1 1 .752941176470588 81 1 98 688 129 17 267 0 0 104 272 81 1
 270 624 189 100 0 116 273 267 274 83 3 271 1 1 .752941176470588 81 1 116 691 12
9 100 270 0 109 122 275 81 1 273 623 189 117 0 122 130 270 276 83 3 274 .9098039
21568627 .443137254901961 .03137254901960785 81 1 122 692 129 117 273 0 116 127
 277 81 1 130 622 189 123 0 127 278 273 279 83 3 276 .909803921568627 .443137254
901961 .03137254901960785 81 1 278 621 189 112 0 131 280 130 281 83 3 279 .90980
3921568627 .443137254901961 .03137254901960785 81 1 131 694 129 112 278 0 127 13
7 282 81 1 280 620 189 133 0 148 191 278 283 83 3 281 1 1 .752941176470588 81 1
 148 697 129 133 280 0 140 152 284 81 1 191 619 189 149 0 152 175 280 285 83 3 2
83 1 1 .752941176470588 81 1 152 698 129 149 191 0 148 156 286 83 3 285 1 1 .752
941176470588 81 1 156 699 129 142 287 0 152 160 288 82 1 286 1347682588 81 1 287
 613 189 142 0 156 289 290 291 81 1 160 700 129 157 290 0 156 164 292 82 1 288 -
1180827373 81 1 290 614 189 157 0 160 287 293 294 81 1 164 701 129 161 293 0 160
 168 295 82 1 292 -1181155053 81 1 293 615 189 161 0 164 290 296 297 81 1 168 70
2 129 165 296 0 164 171 298 82 1 295 -1181744877 81 1 296 616 189 165 0 168 293
 190 299 82 1 298 -1173815021 81 1 190 617 189 169 0 171 296 175 300 83 3 299 .9
09803921568627 .443137254901961 .03137254901960785 83 3 300 .909803921568627 .44
3137254901961 .03137254901960785 83 3 297 .909803921568627 .443137254901961 .031
37254901960785 83 3 294 .909803921568627 .443137254901961 .03137254901960785 81
 1 289 612 189 135 0 140 139 287 301 83 3 291 .909803921568627 .443137254901961
 .03137254901960785 81 1 140 696 129 135 289 0 137 148 302 81 1 139 611 189 15 0
 137 0 289 303 83 3 301 1 1 .752941176470588 83 3 303 1 1 .752941176470588 82 1
 302 -1161821933 82 1 284 -779484921 82 1 282 -1161297645 82 1 277 -1167130349 8
2 1 275 -1167720173 82 1 272 1345061148 82 1 269 -778305273 82 1 266 -1160380141
 15 36 342 0 32 110 0 82 1 193 -1174404845 83 3 192 .909803921568627 .4431372549
01961 .03137254901960785 79 14 188 SWEntUnchanged15 166 156 0 304 161 305 17 304
 0 166 304 304 0 58 56 0 0 -15 305 157 0 76 161 0 17 76 0 305 76 76 0 306 74 0 0
 +17 306 0 143 306 306 0 76 74 0 0 -15 143 131 0 306 135 186 17 58 0 307 58 58 0
 304 56 0 0 +15 307 153 0 58 157 0 15 162 152 0 308 157 307 17 308 0 162 308 308
 0 61 59 0 0 -17 61 0 309 61 61 0 308 59 0 0 +15 309 149 0 61 142 0 15 158 148 0
 79 142 309 17 79 0 158 79 79 0 144 77 0 0 +17 144 0 138 144 144 0 79 77 0 0 -15
 150 110 0 310 133 262 17 310 0 150 310 310 0 67 65 0 0 -17 67 0 134 67 67 0 310
 65 0 0 +15 134 61 0 67 112 185 15 145 235 0 91 15 0 17 91 0 145 91 91 0 89 88 0
 0 -82 1 141 -1159855853 82 1 132 -1166540525 19 16 40 0 1 0 9 5 S74 20 14 3 0 0
 234 2 238 0 0 0 0 0 0 0 0 0 0 0 0 0 0 0 0 0 80 2 12 311 312 8004 0 0 0 0 3 5 0
 0 0 FFTFFFFFFFFFFF2 3 83 1 13 1 79 16 312 SDL/TYSA_DENSITY1 0 
