**ABCDEFGHIJKLMNOPQRSTUVWXYZabcdefghijklmnopqrstuvwxyz**************************
**PARASOLID !"#$%&'()*+,-./:;<=>?@[\]^_`{|}~0123456789**************************
**PART1;
MC=AMD64;
MC_MODEL=Intel64 Family 6 Model 158 Stepping 13, GenuineIntel;
MC_ID=unknown;
OS=Windows_NT;
OS_RELEASE=unknown;
FRU=Parasolid Version 30.0, build 310,  6- 8-2018;
APPL=SOLIDWORKS 2018-2018316;
SITE=;
USER=unknown;
FORMAT=text;
GUISE=transmit;
KEY=R_Power_L25.0_W9.0_P7.62_Vertical;
FILE=R_Power_L25.0_W9.0_P7.62_Vertical.x_t;
DATE=Sat Mar  2 13:05:51 2024;
**PART2;
SCH=SCH_3000310_30000;
USFLD_SIZE=0;
**PART3;
**END_OF_HEADER*****************************************************************
T51 : TRANSMIT FILE created by modeller version 300031017 SCH_2000000_200000 12
 1 942 2 3 0 0 0 0 1e3 1e-8 0 4 0 1 0 1 1 5 6 7 8 9 10 11 0 0 0 0 81 2 2 678 12
 1 0 0 0 0 13 0 70 3 0 4 T1 0 0 3 20 1 14 14 13 5 94 0 1 0 15 0 0 16 0 51 6 502
 0 17 18 0 0 +.004 .001 .0045 0 0 -1 5e-4 -1 0 0 31 7 522 0 19 20 0 0 +.004 .001
 .004 0 0 1 1 0 0 5e-4 29 8 362 0 11 21 0 .0045 .001 .004 19 9 28 0 1 16 0 22 V1
6 10 364 0 ?23 0 24 25 0 0 1 18 11 360 0 26 0 27 8 ?1 17 26 0 28 23 29 11 30 24
 0 31 +18 27 356 0 29 11 32 21 ?1 17 29 0 28 26 33 27 34 35 0 30 +18 32 352 0 33
 27 36 37 ?1 29 21 358 0 27 37 8 .0045 .025 .004 29 37 354 0 32 38 21 .0045 .025
 -.004 29 38 351 0 36 39 37 .0045 .001 -.004 18 36 349 0 40 32 41 38 ?1 29 39 34
2 0 41 42 38 -.004 .025 .0045 18 41 340 0 43 36 44 39 ?1 29 42 338 0 44 45 39 -.
004 .001 .0045 18 44 336 0 46 41 47 42 ?1 29 45 334 0 47 48 42 .004 .025 .0045 1
8 47 332 0 49 44 50 45 ?1 29 48 331 0 50 51 45 .004 .001 .0045 18 50 329 0 52 47
 53 48 ?1 29 51 322 0 53 54 48 -.004 .001 -.0045 18 53 320 0 55 50 56 51 ?1 29 5
4 318 0 56 57 51 -.004 .025 -.0045 18 56 316 0 58 53 59 54 ?1 29 57 314 0 59 60
 54 .004 .001 -.0045 18 59 312 0 61 56 62 57 ?1 29 60 311 0 62 63 57 .004 .025 -
.0045 18 62 309 0 64 59 65 60 ?1 29 63 302 0 65 66 60 -.004 5e-4 -.004 18 65 300
 0 67 62 68 63 ?1 29 66 298 0 68 69 63 -.004 5e-4 .004 18 68 296 0 70 65 71 66 ?
1 29 69 294 0 71 72 66 .004 5e-4 .004 18 71 292 0 73 68 74 69 ?1 29 72 291 0 74
 75 69 .004 5e-4 -.004 18 74 289 0 76 71 77 72 ?1 29 75 282 0 77 78 72 -.004 .02
55 -.004 18 77 280 0 79 74 80 75 ?1 29 78 278 0 80 81 75 -.004 .0255 .004 18 80
 276 0 82 77 83 78 ?1 29 81 274 0 83 84 78 .004 .0255 -.004 18 83 272 0 85 80 86
 81 ?1 29 84 271 0 86 87 81 .004 .0255 .004 18 86 269 0 88 83 89 84 ?1 29 87 262
 0 89 90 84 -.0045 .025 -.004 18 89 260 0 91 86 92 87 ?1 29 90 258 0 92 93 87 -.
0045 .001 -.004 18 92 256 0 94 89 95 90 ?1 29 93 254 0 95 96 90 -.0045 .025 .004
 18 95 252 0 97 92 98 93 ?1 29 96 251 0 98 99 93 -.0045 .001 .004 18 98 249 0 10
0 95 101 96 ?1 29 99 207 0 101 102 96 -.00762 -.002 4e-4 18 101 156 0 103 98 104
 99 ?1 29 102 208 0 104 0 99 0 -.002 4e-4 18 104 155 0 105 101 0 102 ?1 17 105 0
 106 105 105 104 107 108 0 107 +15 106 159 0 105 109 110 17 107 0 111 107 107 10
4 105 108 0 0 -16 108 145 0 ?105 112 113 114 0 0 1 16 112 132 0 ?115 116 108 117
 0 0 1 16 113 154 0 ?118 108 119 120 0 0 1 31 114 201 0 108 120 121 0 +0 -.002 0
 0 1 0 0 0 1 4e-4 31 120 202 0 113 122 114 0 +3252606517456515e-34 .02575 0 0 1
 0 0 0 1 4e-4 31 121 200 0 116 114 117 0 -0 5e-4 0 0 1 0 0 0 1 4e-4 16 116 138 0
 ?123 124 112 121 0 0 1 31 117 135 0 112 121 125 0 -0 .0255 0 0 -1 0 0 0 -1 4e-4
 30 125 255 0 124 117 126 0 --.0045 .0255 .004 1040834085586084e-31 -1 0 16 124
 253 0 ?97 127 116 125 0 0 1 30 126 259 0 127 125 128 0 --.0045 .001 .0045 0 0 -
1 16 127 257 0 ?100 129 124 126 0 0 1 30 128 263 0 129 126 130 0 +-.0045 .025 .0
045 0 0 -1 16 129 261 0 ?131 132 127 128 0 0 1 30 130 266 0 132 128 133 0 +-.004
5 .0255 -.004 1040834085586084e-31 -1 0 16 132 264 0 ?94 134 129 130 0 0 1 30 13
3 275 0 134 130 135 0 +.004 .0255 .0045 0 0 -1 16 134 273 0 ?85 136 132 133 0 0
 1 30 135 279 0 136 133 137 0 -.0045 .0255 .004 -1 0 0 16 136 277 0 ?88 138 134
 135 0 0 1 30 137 283 0 138 135 139 0 +-.0045 .0255 -.004 -1 0 0 16 138 281 0 ?7
9 140 136 137 0 0 1 30 139 286 0 140 137 141 0 --.004 .0255 .0045 0 0 -1 16 140
 284 0 ?142 143 138 139 0 0 1 30 141 295 0 143 139 144 0 -.004 5e-4 .0045 0 0 -1
 16 143 293 0 ?73 145 140 141 0 0 1 30 144 299 0 145 141 146 0 --.0045 5e-4 .004
 1 0 0 16 145 297 0 ?70 147 143 144 0 0 1 30 146 303 0 147 144 148 0 +-.0045 5e-
4 -.004 1 0 0 16 147 301 0 ?76 149 145 146 0 0 1 30 148 306 0 149 146 150 0 +-.0
04 5e-4 .0045 0 0 -1 16 149 304 0 ?151 152 147 148 0 0 1 30 150 315 0 152 148 15
3 0 -.004 -4163336342344335e-34 -.0045 1040834085586084e-31 1 0 16 152 313 0 ?61
 154 149 150 0 0 1 30 153 319 0 154 150 155 0 -0 .025 -.0045 -1 0 0 16 154 317 0
 ?64 156 152 153 0 0 1 30 155 323 0 156 153 157 0 -0 .001 -.0045 1 0 0 16 156 32
1 0 ?158 159 154 155 0 0 1 30 157 326 0 159 155 160 0 --.004 -4163336342344335e-
34 -.0045 1040834085586084e-31 -1 0 16 159 324 0 ?58 161 156 157 0 0 1 30 160 33
5 0 161 157 162 0 +.004 .0255 .0045 1040834085586084e-31 1 0 16 161 333 0 ?49 16
3 159 160 0 0 1 30 162 339 0 163 160 164 0 +.0045 .001 .0045 1 0 0 16 163 337 0
 ?52 165 161 162 0 0 1 30 164 343 0 165 162 166 0 +-.0045 .025 .0045 -1 0 0 16 1
65 341 0 ?167 168 163 164 0 0 1 30 166 346 0 168 164 169 0 +-.004 5e-4 .0045 104
0834085586084e-31 -1 0 16 168 344 0 ?46 170 165 166 0 0 1 30 169 355 0 170 166 1
71 0 +.0045 .0255 -.004 1040834085586084e-31 1 0 16 170 353 0 ?33 35 168 169 0 0
 1 30 171 359 0 35 169 172 0 -.0045 .025 .0045 0 0 -1 16 35 357 0 ?29 24 170 171
 0 0 1 30 172 363 0 24 171 25 0 -.0045 5e-4 .004 1040834085586084e-31 1 0 16 24
 361 0 ?26 10 35 172 0 0 1 30 25 366 0 10 172 173 0 +.0045 .001 .0045 0 0 -1 31
 173 545 0 174 25 175 0 --.004 .025 -.004 0 0 -1 -1 0 0 5e-4 16 174 477 0 ?91 17
6 0 173 0 0 1 31 175 544 0 176 173 177 0 --.004 .025 .004 0 0 1 1 0 0 5e-4 16 17
6 475 0 ?82 178 174 175 0 0 1 31 177 543 0 178 175 179 0 +-.004 .025 -.004 -1 0
 0 0 0 1 5e-4 16 178 473 0 ?180 181 176 177 0 0 1 31 179 542 0 181 177 182 0 +-.
004 .025 -.004 0 1 0 0 0 1 5e-4 16 181 472 0 ?183 184 178 179 0 0 1 31 182 541 0
 184 179 185 0 +-.004 .025 .004 0 1 0 0 0 1 5e-4 16 184 471 0 ?43 186 181 182 0
 0 1 31 185 540 0 186 182 187 0 +-.004 .025 .004 -1 0 0 0 0 1 5e-4 16 186 470 0
 ?188 189 184 185 0 0 1 31 187 539 0 189 185 190 0 -.004 .025 -.004 1 0 0 0 0 -1
 5e-4 16 189 468 0 ?191 192 186 187 0 0 1 31 190 538 0 192 187 193 0 --.004 .001
 -.004 0 -1 0 0 0 -1 5e-4 16 192 465 0 ?194 195 189 190 0 0 1 31 193 537 0 195 1
90 196 0 --.004 .001 .004 0 -1 0 0 0 -1 5e-4 16 195 462 0 ?197 198 192 193 0 0 1
 31 196 536 0 198 193 199 0 -.004 .025 .004 1 0 0 0 0 -1 5e-4 16 198 459 0 ?200
 201 195 196 0 0 1 31 199 535 0 201 196 202 0 +.004 .025 -.004 0 0 -1 -1 0 0 5e-
4 16 201 457 0 ?203 204 198 199 0 0 1 31 202 534 0 204 199 205 0 +.004 .025 -.00
4 0 1 0 0 0 1 5e-4 16 204 456 0 ?206 207 201 202 0 0 1 31 205 533 0 207 202 208
 0 +-.004 .001 -.004 -1 0 0 0 0 1 5e-4 16 207 455 0 ?67 209 204 205 0 0 1 31 208
 532 0 209 205 210 0 +-.004 .001 -.004 0 0 -1 -1 0 0 5e-4 16 209 454 0 ?211 212
 207 208 0 0 1 31 210 531 0 212 208 213 0 +-.004 .001 .004 0 0 1 1 0 0 5e-4 16 2
12 453 0 ?214 215 209 210 0 0 1 31 213 530 0 215 210 216 0 +-.004 .001 .004 -1 0
 0 0 0 1 5e-4 16 215 452 0 ?217 218 212 213 0 0 1 31 216 529 0 218 213 219 0 +.0
04 .025 .004 0 1 0 0 0 1 5e-4 16 218 451 0 ?220 221 215 216 0 0 1 31 219 528 0 2
21 216 222 0 +.004 .025 .004 0 0 1 1 0 0 5e-4 16 221 450 0 ?223 224 218 219 0 0
 1 31 222 527 0 224 219 225 0 -.004 .001 -.004 1734723475976805e-30 -1 0 1 17347
23475976805e-30 0 5e-4 16 224 446 0 ?226 227 221 222 0 0 1 31 225 526 0 227 222
 228 0 -.004 .001 -.004 1 0 0 0 0 -1 5e-4 16 227 443 0 ?229 230 224 225 0 0 1 31
 228 525 0 230 225 231 0 -.004 .001 .004 1 0 0 0 0 -1 5e-4 16 230 438 0 ?232 233
 227 228 0 0 1 31 231 524 0 233 228 20 0 -.004 .001 .004 0 -1 -173472347597681e-
29 0 173472347597681e-29 -1 5e-4 16 233 435 0 ?234 235 230 231 0 0 1 31 20 523 0
 235 231 7 0 +.004 .001 -.004 0 0 -1 -1 0 0 5e-4 16 235 433 0 ?236 19 233 20 0 0
 1 17 236 0 237 238 239 74 240 235 0 229 +16 19 432 0 ?241 242 235 7 0 0 1 17 24
1 0 243 244 245 11 246 19 0 234 +16 242 149 0 ?247 248 19 249 0 0 1 17 247 0 250
 247 247 101 103 242 0 0 +16 248 151 0 ?251 252 242 253 0 0 1 31 249 206 0 242 0
 253 0 +-.00762 -.002 0 625125576928579e-31 -1 0 0 0 1 4e-4 31 253 205 0 248 249
 254 0 +-.00762 .02575 0 625125576928579e-31 -1 0 0 0 1 4e-4 31 254 204 0 252 25
3 122 0 +-.00687 .0265 0 -1 0 0 0 0 1 4e-4 16 252 152 0 ?255 119 248 254 0 0 1 3
1 122 203 0 119 254 120 0 +-75e-5 .0265 0 -1 0 0 0 0 1 4e-4 16 119 153 0 ?256 11
3 252 122 0 0 1 17 256 0 257 256 256 0 258 119 0 0 +15 257 181 0 256 259 260 17
 258 0 261 258 258 0 256 119 0 0 -15 261 186 0 258 262 0 14 262 183 263 ?259 264
 265 5 266 -0 0 259 264 22 81 1 263 909 267 262 268 0 0 269 270 14 259 179 269 ?
271 262 257 5 272 -0 0 271 262 22 14 264 43 273 ?262 274 275 5 276 -0 0 262 274
 22 15 265 185 0 118 262 261 54 266 196 0 262 272 277 0 --75e-5 .02575 0 0 0 -1
 75e-5 4e-4 -1 0 0 13 22 29 0 0 0 0 0 0 9 15 14 15 85 278 ?279 0 280 5 281 -0 0
 279 0 22 81 1 278 912 267 15 282 0 273 283 284 14 279 83 283 ?285 15 286 5 287
 -0 0 285 15 22 15 280 250 0 131 15 0 50 281 89 0 15 287 288 0 +-.0045 .0255 .00
45 1 1040834085586084e-31 0 -1040834085586084e-31 1 0 50 287 88 0 279 289 281 0
 +-.0045 5e-4 .0045 0 1 0 0 0 1 51 288 521 0 290 281 291 0 +-.004 .025 .0045 0 0
 -1 5e-4 -1 0 0 14 290 426 292 ?0 293 294 5 288 +0 0 0 293 22 53 291 520 0 293 2
88 295 0 +-.004 .025 -.004 5e-4 0 0 1 1 0 0 14 293 424 296 ?290 297 298 5 291 +0
 0 290 297 22 53 295 519 0 297 291 299 0 +-.004 .025 .004 5e-4 0 0 1 1 0 0 14 29
7 422 300 ?293 301 302 5 295 +0 0 293 301 22 51 299 518 0 301 295 303 0 +-.0045
 .025 -.004 -1 0 0 5e-4 0 0 1 14 301 420 304 ?297 305 306 5 299 +0 0 297 305 22
 51 303 517 0 305 299 307 0 +-.004 .0255 -.004 1040834085586084e-31 -1 0 5e-4 1
 1040834085586084e-31 0 14 305 418 308 ?301 309 310 5 303 +0 0 301 309 22 51 307
 516 0 309 303 311 0 +-.004 -4163336342344335e-34 .004 -1040834085586084e-31 1 0
 5e-4 -1 -1040834085586084e-31 0 14 309 416 312 ?305 313 314 5 307 +0 0 305 313
 22 51 311 515 0 313 307 315 0 +0 .025 .004 1 0 0 5e-4 0 0 -1 14 313 414 316 ?30
9 317 318 5 311 +0 0 309 317 22 53 315 514 0 317 311 319 0 +.004 .025 -.004 5e-4
 0 0 1 1 0 0 14 317 412 320 ?313 321 322 5 315 +0 0 313 321 22 53 319 513 0 321
 315 323 0 +-.004 .001 -.004 5e-4 0 0 1 1 0 0 14 321 410 324 ?317 325 326 5 319
 +0 0 317 325 22 53 323 512 0 325 319 327 0 +-.004 .001 .004 5e-4 0 0 1 1 0 0 14
 325 408 328 ?321 329 330 5 323 +0 0 321 329 22 53 327 511 0 329 323 331 0 +.004
 .025 .004 5e-4 0 0 1 1 0 0 14 329 406 332 ?325 333 334 5 327 +0 0 325 333 22 51
 331 510 0 333 327 335 0 +.004 .025 .0045 0 0 -1 5e-4 -1 0 0 14 333 404 336 ?329
 337 338 5 331 +0 0 329 337 22 51 335 509 0 337 331 339 0 +.004 .0255 -.004 1040
834085586084e-31 1 0 5e-4 -1 1040834085586084e-31 0 14 337 400 340 ?333 341 342
 5 335 +0 0 333 341 22 51 339 508 0 341 335 343 0 +-.0045 .001 -.004 1 0 0 5e-4
 0 0 -1 14 341 398 344 ?337 345 346 5 339 +0 0 337 345 22 51 343 507 0 345 339 3
47 0 +-.004 .001 .0045 0 0 -1 5e-4 -1 0 0 14 345 396 348 ?341 349 350 5 343 +0 0
 341 349 22 51 347 506 0 349 343 351 0 +0 .001 .004 -1 0 0 5e-4 0 0 1 14 349 394
 352 ?345 353 354 5 347 +0 0 345 353 22 51 351 505 0 353 347 355 0 +.004 -416333
6342344335e-34 .004 -1040834085586084e-31 -1 0 5e-4 1 -1040834085586084e-31 0 14
 353 390 356 ?349 357 358 5 351 +0 0 349 357 22 53 355 504 0 357 351 18 0 +.004
 .001 -.004 5e-4 0 0 1 1 0 0 14 357 388 359 ?353 360 237 5 355 +0 0 353 360 22 5
3 18 503 0 360 355 6 0 +.004 .001 .004 5e-4 0 0 1 1 0 0 14 360 386 361 ?357 17 2
43 5 18 +0 0 357 17 22 81 1 361 932 267 360 362 0 359 363 364 14 17 382 363 ?360
 365 366 5 6 +0 0 360 365 22 15 243 387 0 245 360 0 17 245 0 243 241 244 71 232
 230 0 367 -17 244 0 243 245 241 50 234 233 0 368 -17 232 0 354 369 367 50 245 2
30 0 244 +17 367 0 354 232 370 71 70 145 0 0 -15 354 395 0 232 349 0 17 370 0 35
4 367 369 68 217 215 0 214 -17 70 0 286 151 73 68 367 145 0 371 +15 286 290 0 70
 279 372 17 151 0 286 76 70 65 371 149 0 0 +17 73 0 286 70 76 71 373 143 0 246 +
17 371 0 350 374 375 68 151 149 0 370 -15 350 397 0 375 345 0 17 374 0 350 376 3
71 98 214 212 0 377 -17 375 0 350 371 376 65 211 209 0 378 -17 376 0 350 375 374
 92 100 127 0 211 -17 211 0 326 379 67 92 375 209 0 194 +17 378 0 346 380 229 65
 76 147 0 151 -15 346 399 0 229 341 0 17 380 0 346 381 378 53 67 207 0 158 -17 2
29 0 346 378 381 74 238 227 0 0 +17 76 0 286 73 151 74 378 147 0 373 +17 373 0 3
66 240 246 74 73 143 0 236 -15 366 383 0 246 17 0 17 240 0 366 31 373 36 236 235
 0 23 -17 246 0 366 373 31 71 241 19 0 245 -17 31 0 366 246 240 11 23 10 0 241 -
17 23 0 28 33 26 36 31 10 0 0 +15 28 350 0 26 285 0 17 33 0 28 29 23 32 40 170 0
 34 +17 40 0 342 226 382 36 33 170 0 239 -17 34 0 338 383 384 32 29 35 0 382 -15
 338 405 0 384 333 0 17 383 0 338 385 34 83 203 201 0 386 -17 384 0 338 34 385 2
7 223 221 0 220 -17 382 0 342 40 387 32 206 204 0 203 -15 342 401 0 226 337 0 17
 387 0 342 382 226 62 61 152 0 206 -17 206 0 322 386 203 62 382 204 0 191 +17 20
3 0 322 206 386 32 383 201 0 0 +15 322 413 0 203 317 0 17 386 0 322 203 206 83 1
91 189 0 388 -17 191 0 306 389 388 62 386 189 0 0 +17 388 0 306 191 390 83 79 13
8 0 0 -15 306 421 0 191 301 0 17 390 0 306 388 389 77 180 178 0 391 -17 79 0 392
 142 85 77 388 138 0 390 +15 392 270 0 79 393 394 17 142 0 392 88 79 80 391 140
 0 0 +17 85 0 392 79 88 83 385 134 0 383 +17 88 0 392 85 142 86 395 136 0 385 +1
7 385 0 338 384 383 86 85 134 0 223 -17 223 0 334 396 220 86 384 221 0 200 +15 3
34 407 0 220 329 0 17 396 0 334 220 223 47 200 198 0 397 -17 220 0 334 223 396 2
7 398 218 0 0 +17 200 0 318 395 397 86 396 198 0 0 +15 318 415 0 200 313 0 17 39
5 0 318 399 200 80 88 136 0 142 -17 397 0 318 200 399 47 167 165 0 0 -17 399 0 3
18 397 395 41 188 186 0 400 -17 167 0 401 46 49 41 397 165 0 0 +15 401 330 0 167
 274 0 17 46 0 401 52 167 44 400 168 0 369 +17 49 0 401 167 52 47 368 161 0 398
 +17 52 0 401 49 46 50 369 163 0 232 +17 368 0 358 234 398 50 49 161 0 0 -17 398
 0 358 368 30 47 220 218 0 396 -15 358 391 0 234 353 0 17 30 0 358 398 234 27 26
 24 0 384 -17 234 0 358 30 368 11 244 233 0 0 +17 369 0 354 370 232 44 52 163 0
 217 -17 217 0 330 377 214 44 370 215 0 197 +15 330 409 0 214 325 0 17 377 0 330
 214 217 98 197 195 0 402 -17 214 0 330 217 377 68 374 212 0 0 +17 197 0 314 400
 402 44 377 195 0 0 +15 314 417 0 197 309 0 17 400 0 314 403 197 41 46 168 0 167
 -17 402 0 314 197 403 98 97 124 0 0 -17 403 0 314 402 400 95 43 184 0 404 -17 9
7 0 280 131 100 95 402 124 0 403 +17 131 0 280 94 97 89 405 129 0 0 +17 100 0 28
0 97 94 98 376 127 0 374 +17 94 0 280 100 131 92 406 132 0 376 +17 406 0 310 407
 194 89 94 132 0 131 -15 310 419 0 194 305 0 17 407 0 310 55 406 56 183 181 0 18
0 -17 194 0 310 406 55 92 379 192 0 0 +17 55 0 310 194 407 53 58 159 0 379 -17 3
79 0 326 67 211 53 194 192 0 380 -15 326 411 0 67 321 0 17 67 0 326 211 379 65 3
80 207 0 375 +17 58 0 275 64 158 56 55 159 0 389 +15 275 310 0 158 264 0 17 64 0
 275 61 58 62 389 154 0 387 +17 158 0 275 58 61 53 381 156 0 0 +17 389 0 306 390
 191 56 64 154 0 407 -17 61 0 275 158 64 59 387 152 0 226 +17 381 0 346 229 380
 59 158 156 0 0 -17 226 0 342 387 40 59 239 224 0 238 +17 239 0 237 236 238 36 2
26 224 0 240 -17 238 0 237 239 236 59 229 227 0 381 -15 237 389 0 239 357 0 17 1
83 0 298 408 180 89 407 181 0 406 +17 180 0 298 183 408 56 390 178 0 0 +15 298 4
25 0 180 293 0 17 408 0 298 180 183 77 91 174 0 0 -17 91 0 294 405 391 89 408 17
4 0 183 +15 294 427 0 82 290 0 17 405 0 294 82 91 95 131 129 0 0 -17 391 0 294 9
1 82 77 142 140 0 408 -17 82 0 294 391 405 80 404 176 0 188 +17 404 0 302 43 188
 95 82 176 0 405 -17 188 0 302 404 43 80 399 186 0 395 +15 302 423 0 43 297 0 17
 43 0 302 188 404 41 403 184 0 399 +14 274 1 409 ?264 393 401 5 410 +0 0 264 393
 22 81 1 409 934 267 274 411 0 363 412 413 14 393 79 412 ?274 285 392 5 414 -0 0
 274 285 22 50 410 2 0 274 415 276 0 +0 0 .0045 0 0 1 1 0 0 50 415 193 0 416 417
 410 0 +-.00762 -.002 0 625125576928579e-31 -1 0 0 0 1 50 276 65 0 264 410 414 0
 +0 0 -.0045 0 0 1 1 0 0 50 414 86 0 393 276 289 0 +-.0045 .0255 .0045 0 -1 0 0
 0 -1 50 289 87 0 285 414 287 0 +.0045 .0255 .0045 -1 1040834085586084e-31 0 -10
40834085586084e-31 -1 0 14 285 81 418 ?393 279 28 5 289 -0 0 393 279 22 81 1 418
 936 267 285 419 0 412 420 421 80 1 267 422 423 9000 1 1 1 1 1 1 1 1 0 FFFFTFTFF
FFFFF1 81 1 419 807 424 285 0 418 425 426 427 81 1 412 935 267 393 426 0 409 418
 428 81 1 420 937 267 365 429 0 418 430 431 82 1 421 -349896563 14 365 168 420 ?
17 109 111 5 417 -0 0 17 109 22 81 1 429 818 424 365 0 420 432 433 434 81 1 430
 938 267 109 432 0 420 435 436 82 1 431 99745932 14 109 157 430 ?365 437 106 5 2
77 -437 437 365 437 22 81 1 432 817 424 109 0 430 438 429 439 81 1 435 939 267 4
37 438 0 430 440 441 82 1 436 120717452 14 437 161 435 ?109 416 442 5 277 -109 1
09 109 416 22 81 1 438 816 424 437 0 435 443 432 444 81 1 440 940 267 416 443 0
 435 445 446 82 1 441 120193164 14 416 165 440 ?437 447 250 5 415 +0 0 437 447 2
2 81 1 443 815 424 416 0 440 448 438 449 81 1 445 941 267 447 448 0 440 450 451
 82 1 446 98893964 14 447 171 445 ?416 271 452 5 453 -0 0 416 271 22 81 1 448 81
4 424 447 0 445 454 443 455 81 1 450 942 267 271 454 0 445 0 456 82 1 451 941753
72 14 271 175 450 ?447 259 457 5 458 -0 0 447 259 22 81 1 454 813 424 271 0 450
 459 448 460 82 1 456 94896268 80 1 424 0 461 8001 0 0 0 0 3 5 0 0 0 FFFFTFTFFFF
FFF2 81 1 459 812 424 259 0 269 268 454 462 83 3 460 .8 .811764705882353 .8 81 1
 269 910 267 259 459 0 263 273 463 81 1 268 811 424 262 0 263 464 459 465 83 3 4
62 .8 .811764705882353 .8 81 1 464 810 424 264 0 273 411 268 466 83 3 465 .8 .81
1764705882353 .8 81 1 273 911 267 264 464 0 269 278 467 81 1 411 809 424 274 0 4
09 426 464 468 83 3 466 1 1 1 81 1 426 808 424 393 0 412 419 411 469 83 3 468 1
 1 1 83 3 469 1 1 1 82 1 467 -361365363 82 1 463 95289484 79 15 461 SDL/TYSA_COL
OUR15 457 177 0 255 271 470 54 458 198 0 271 453 272 0 --.00687 .02575 0 0 0 -1
 75e-5 4e-4 -1 0 0 51 453 199 0 447 0 458 0 --.00762 -.002 0 -625125576928579e-3
1 1 0 4e-4 -1 -625125576928579e-31 0 51 272 197 0 259 458 266 0 --.00687 .0265 0
 1 0 0 4e-4 0 0 -1 17 255 0 457 255 255 0 471 252 0 0 +15 470 178 0 472 271 0 17
 472 0 470 472 472 0 251 248 0 0 -17 251 0 452 251 251 0 472 248 0 0 +15 452 173
 0 251 447 473 15 473 174 0 103 447 0 17 103 0 473 103 103 101 247 242 0 247 -17
 471 0 260 471 471 0 255 252 0 0 -15 260 182 0 471 259 0 83 3 455 .8 .8117647058
82353 .8 83 3 449 .8 .811764705882353 .8 15 250 167 0 247 416 0 83 3 444 .8 .811
764705882353 .8 15 442 163 0 474 437 475 51 277 195 0 109 266 417 0 -0 .02575 0
 0 -1 0 4e-4 0 0 -1 50 417 194 0 365 277 415 0 +0 -.002 0 0 1 0 0 0 1 17 474 0 4
42 474 474 0 118 113 0 0 -15 475 164 0 115 437 0 17 115 0 475 115 115 0 476 112
 0 0 +17 476 0 394 476 476 0 115 112 0 0 -15 394 134 0 476 393 0 17 118 0 265 11
8 118 0 474 113 0 0 +83 3 439 .8 .811764705882353 .8 81 1 433 819 424 17 0 363 4
29 362 477 83 3 434 .8 .811764705882353 .8 81 1 363 933 267 17 433 0 361 409 478
 81 1 362 820 424 360 0 361 433 479 480 83 3 477 1 1 1 81 1 479 821 424 357 0 35
9 362 481 482 83 3 480 1 1 1 81 1 359 931 267 357 479 0 356 361 483 81 1 481 822
 424 353 0 356 479 484 485 83 3 482 1 1 1 81 1 356 930 267 353 481 0 352 359 486
 81 1 484 823 424 349 0 352 481 487 488 83 3 485 1 1 1 81 1 352 929 267 349 484
 0 348 356 489 81 1 487 824 424 345 0 348 484 490 491 83 3 488 1 1 1 81 1 348 92
8 267 345 487 0 344 352 492 81 1 490 825 424 341 0 344 487 493 494 83 3 491 1 1
 1 81 1 344 927 267 341 490 0 340 348 495 81 1 493 826 424 337 0 340 490 496 497
 83 3 494 1 1 1 81 1 340 926 267 337 493 0 336 344 498 81 1 496 827 424 333 0 33
6 493 499 500 83 3 497 1 1 1 81 1 336 925 267 333 496 0 332 340 501 81 1 499 828
 424 329 0 332 496 502 503 83 3 500 1 1 1 81 1 332 924 267 329 499 0 328 336 504
 81 1 502 829 424 325 0 328 499 505 506 83 3 503 1 1 1 81 1 328 923 267 325 502
 0 324 332 507 81 1 505 830 424 321 0 324 502 508 509 83 3 506 1 1 1 81 1 324 92
2 267 321 505 0 320 328 510 81 1 508 831 424 317 0 320 505 511 512 83 3 509 1 1
 1 81 1 320 921 267 317 508 0 316 324 513 81 1 511 832 424 313 0 316 508 514 515
 83 3 512 1 1 1 81 1 316 920 267 313 511 0 312 320 516 81 1 514 833 424 309 0 31
2 511 517 518 83 3 515 1 1 1 81 1 312 919 267 309 514 0 308 316 519 81 1 517 834
 424 305 0 308 514 520 521 83 3 518 1 1 1 81 1 308 918 267 305 517 0 304 312 522
 81 1 520 835 424 301 0 304 517 523 524 83 3 521 1 1 1 81 1 304 917 267 301 520
 0 300 308 525 81 1 523 836 424 297 0 300 520 526 527 83 3 524 1 1 1 81 1 300 91
6 267 297 523 0 296 304 528 81 1 526 837 424 293 0 296 523 529 530 83 3 527 1 1
 1 81 1 296 915 267 293 526 0 292 300 531 81 1 529 838 424 290 0 292 526 0 532 8
3 3 530 1 1 1 81 1 292 914 267 290 529 0 283 296 533 83 3 532 1 1 1 81 1 283 913
 267 279 425 0 278 292 534 82 1 533 195821709 81 1 425 806 424 279 0 283 282 419
 535 82 1 534 -360972147 81 1 282 805 424 15 0 278 0 425 536 83 3 535 1 1 1 83 3
 536 1 1 1 82 1 531 197394573 82 1 528 198246541 82 1 525 199098509 82 1 522 200
278157 82 1 519 201392269 82 1 516 202506381 82 1 513 203620493 82 1 510 2044069
25 82 1 507 205258893 82 1 504 206110861 82 1 501 206962829 82 1 498 207749261 8
2 1 495 208863373 82 1 492 209977485 82 1 489 210370701 82 1 486 211812493 82 1
 483 212926605 82 1 478 214106253 15 111 170 0 107 365 0 82 1 428 -350289779 83
 3 427 1 1 1 79 14 423 SWEntUnchanged82 1 413 -350420851 15 372 140 0 537 279 0
 17 537 0 372 537 537 0 123 116 0 0 -17 123 0 110 123 123 0 537 116 0 0 +15 110
 160 0 123 109 0 82 1 364 213319821 82 1 284 -361103219 82 1 270 95682700 19 16
 95 0 1 0 9 5 S74 20 14 3 0 0 450 2 529 0 0 0 0 0 0 0 0 0 0 0 0 0 0 0 0 0 80 2 1
2 538 539 8004 0 0 0 0 3 5 0 0 0 FFTFFFFFFFFFFF2 3 83 1 13 1 79 16 539 SDL/TYSA_
DENSITY1 0 
