**ABCDEFGHIJKLMNOPQRSTUVWXYZabcdefghijklmnopqrstuvwxyz**************************
**PARASOLID !"#$%&'()*+,-./:;<=>?@[\]^_`{|}~0123456789**************************
**PART1;
MC=AMD64;
MC_MODEL=Intel64 Family 6 Model 158 Stepping 13, GenuineIntel;
MC_ID=unknown;
OS=Windows_NT;
OS_RELEASE=unknown;
FRU=Parasolid Version 30.0, build 310,  6- 8-2018;
APPL=SOLIDWORKS 2018-2018316;
SITE=;
USER=unknown;
FORMAT=text;
GUISE=transmit;
KEY=R_Power_L20.0_W6.4_P7.62_Vertical;
FILE=R_Power_L20.0_W6.4_P7.62_Vertical.x_t;
DATE=Sat Mar  2 12:29:19 2024;
**PART2;
SCH=SCH_3000310_30000;
USFLD_SIZE=0;
**PART3;
**END_OF_HEADER*****************************************************************
T51 : TRANSMIT FILE created by modeller version 300031017 SCH_2000000_200000 12
 1 960 2 3 0 0 0 0 1e3 1e-8 0 4 0 1 0 1 1 5 6 7 8 9 10 11 0 0 0 0 81 2 2 702 12
 1 0 0 0 0 13 0 70 3 0 4 T1 0 0 3 20 1 14 14 13 5 94 0 1 0 15 0 0 16 0 51 6 526
 0 17 18 0 0 +.0027 .001 .0032 0 0 -1 5e-4 -1 0 0 31 7 546 0 19 20 0 0 +.0027 .0
01 .0027 0 0 1 1 0 0 5e-4 29 8 385 0 11 21 0 .0032 .001 .0027 19 9 28 0 1 16 0 2
2 V16 10 387 0 ?23 0 24 25 0 0 1 18 11 383 0 26 0 27 8 ?1 17 26 0 28 23 29 11 30
 24 0 31 +18 27 379 0 29 11 32 21 ?1 17 29 0 28 26 33 27 34 35 0 30 +18 32 375 0
 33 27 36 37 ?1 29 21 381 0 27 37 8 .0032 .02 .0027 29 37 377 0 32 38 21 .0032 .
02 -.0027 29 38 374 0 36 39 37 .0032 .001 -.0027 18 36 372 0 40 32 41 38 ?1 29 3
9 364 0 41 42 38 -.0027 .02 .0032 18 41 362 0 43 36 44 39 ?1 29 42 360 0 44 45 3
9 -.0027 .001 .0032 18 44 358 0 46 41 47 42 ?1 29 45 356 0 47 48 42 .0027 .02 .0
032 18 47 354 0 49 44 50 45 ?1 29 48 353 0 50 51 45 .0027 .001 .0032 18 50 351 0
 52 47 53 48 ?1 29 51 343 0 53 54 48 -.0027 .001 -.0032 18 53 341 0 55 50 56 51
 ?1 29 54 339 0 56 57 51 -.0027 .02 -.0032 18 56 337 0 58 53 59 54 ?1 29 57 335
 0 59 60 54 .0027 .001 -.0032 18 59 333 0 61 56 62 57 ?1 29 60 332 0 62 63 57 .0
027 .02 -.0032 18 62 330 0 64 59 65 60 ?1 29 63 322 0 65 66 60 -.0027 5e-4 -.002
7 18 65 320 0 67 62 68 63 ?1 29 66 318 0 68 69 63 -.0027 5e-4 .0027 18 68 316 0
 70 65 71 66 ?1 29 69 314 0 71 72 66 .0027 5e-4 .0027 18 71 312 0 73 68 74 69 ?1
 29 72 311 0 74 75 69 .0027 5e-4 -.0027 18 74 309 0 76 71 77 72 ?1 29 75 301 0 7
7 78 72 -.0027 .0205 -.0027 18 77 299 0 79 74 80 75 ?1 29 78 297 0 80 81 75 -.00
27 .0205 .0027 18 80 295 0 82 77 83 78 ?1 29 81 293 0 83 84 78 .0027 .0205 -.002
7 18 83 291 0 85 80 86 81 ?1 29 84 290 0 86 87 81 .0027 .0205 .0027 18 86 288 0
 88 83 89 84 ?1 29 87 280 0 89 90 84 -.0032 .02 -.0027 18 89 278 0 91 86 92 87 ?
1 29 90 276 0 92 93 87 -.0032 .001 -.0027 18 92 274 0 94 89 95 90 ?1 29 93 272 0
 95 96 90 -.0032 .02 .0027 18 95 270 0 97 92 98 93 ?1 29 96 269 0 98 99 93 -.003
2 .001 .0027 18 98 267 0 100 95 101 96 ?1 29 99 225 0 101 102 96 -.00762 -.002 3
25e-6 18 101 174 0 103 98 104 99 ?1 29 102 226 0 104 0 99 0 -.002 325e-6 18 104
 173 0 105 101 0 102 ?1 17 105 0 106 105 105 104 107 108 0 107 +15 106 177 0 105
 109 110 17 107 0 111 107 107 104 105 108 0 0 -16 108 163 0 ?105 112 113 114 0 0
 1 16 112 148 0 ?115 116 108 117 0 0 1 16 113 172 0 ?118 108 119 120 0 0 1 31 11
4 219 0 108 120 121 0 +0 -.002 0 0 1 0 0 0 1 325e-6 31 120 220 0 113 122 114 0 +
3252606517456515e-34 .02075 0 0 1 0 0 0 1 325e-6 31 121 218 0 116 114 117 0 -0 5
e-4 0 0 1 0 0 0 1 325e-6 16 116 155 0 ?123 124 112 121 0 0 1 31 117 151 0 112 12
1 125 0 -0 .0205 0 0 -1 0 0 0 -1 325e-6 30 125 273 0 124 117 126 0 --.0032 .0205
 .0027 1734723475976805e-31 -1 0 16 124 271 0 ?97 127 116 125 0 0 1 30 126 277 0
 127 125 128 0 --.0032 .001 .0032 0 0 -1 16 127 275 0 ?100 129 124 126 0 0 1 30
 128 281 0 129 126 130 0 +-.0032 .02 .0032 0 0 -1 16 129 279 0 ?131 132 127 128
 0 0 1 30 130 284 0 132 128 133 0 +-.0032 .0205 -.0027 1734723475976805e-31 -1 0
 16 132 282 0 ?94 134 129 130 0 0 1 30 133 294 0 134 130 135 0 +.0027 .0205 .003
2 0 0 -1 16 134 292 0 ?85 136 132 133 0 0 1 30 135 298 0 136 133 137 0 -.0032 .0
205 .0027 -1 0 0 16 136 296 0 ?88 138 134 135 0 0 1 30 137 302 0 138 135 139 0 +
-.0032 .0205 -.0027 -1 0 0 16 138 300 0 ?79 140 136 137 0 0 1 30 139 305 0 140 1
37 141 0 --.0027 .0205 .0032 0 0 -1 16 140 303 0 ?142 143 138 139 0 0 1 30 141 3
15 0 143 139 144 0 -.0027 5e-4 .0032 0 0 -1 16 143 313 0 ?73 145 140 141 0 0 1 3
0 144 319 0 145 141 146 0 --.0032 5e-4 .0027 1 0 0 16 145 317 0 ?70 147 143 144
 0 0 1 30 146 323 0 147 144 148 0 +-.0032 5e-4 -.0027 1 0 0 16 147 321 0 ?76 149
 145 146 0 0 1 30 148 326 0 149 146 150 0 +-.0027 5e-4 .0032 0 0 -1 16 149 324 0
 ?151 152 147 148 0 0 1 30 150 336 0 152 148 153 0 -.0027 -468375338513738e-33 -
.0032 1734723475976805e-31 1 0 16 152 334 0 ?61 154 149 150 0 0 1 30 153 340 0 1
54 150 155 0 -0 .02 -.0032 -1 0 0 16 154 338 0 ?64 156 152 153 0 0 1 30 155 344
 0 156 153 157 0 -0 .001 -.0032 1 0 0 16 156 342 0 ?158 159 154 155 0 0 1 30 157
 347 0 159 155 160 0 --.0027 -468375338513738e-33 -.0032 1734723475976805e-31 -1
 0 16 159 345 0 ?58 161 156 157 0 0 1 30 160 357 0 161 157 162 0 +.0027 .0205 .0
032 1734723475976805e-31 1 0 16 161 355 0 ?49 163 159 160 0 0 1 30 162 361 0 163
 160 164 0 +.0032 .001 .0032 1 0 0 16 163 359 0 ?52 165 161 162 0 0 1 30 164 365
 0 165 162 166 0 +-.0032 .02 .0032 -1 0 0 16 165 363 0 ?167 168 163 164 0 0 1 30
 166 368 0 168 164 169 0 +-.0027 5e-4 .0032 1734723475976805e-31 -1 0 16 168 366
 0 ?46 170 165 166 0 0 1 30 169 378 0 170 166 171 0 +.0032 .0205 -.0027 17347234
75976805e-31 1 0 16 170 376 0 ?33 35 168 169 0 0 1 30 171 382 0 35 169 172 0 -.0
032 .02 .0032 0 0 -1 16 35 380 0 ?29 24 170 171 0 0 1 30 172 386 0 24 171 25 0 -
.0032 5e-4 .0027 1734723475976805e-31 1 0 16 24 384 0 ?26 10 35 172 0 0 1 30 25
 389 0 10 172 173 0 +.0032 .001 .0032 0 0 -1 31 173 569 0 174 25 175 0 --.0027 .
02 -.0027 0 0 -1 -1 0 0 5e-4 16 174 501 0 ?91 176 0 173 0 0 1 31 175 568 0 176 1
73 177 0 --.0027 .02 .0027 0 0 1 1 0 0 5e-4 16 176 499 0 ?82 178 174 175 0 0 1 3
1 177 567 0 178 175 179 0 +-.0027 .02 -.0027 -1 0 0 0 0 1 5e-4 16 178 497 0 ?180
 181 176 177 0 0 1 31 179 566 0 181 177 182 0 +-.0027 .02 -.0027 0 1 0 0 0 1 5e-
4 16 181 496 0 ?183 184 178 179 0 0 1 31 182 565 0 184 179 185 0 +-.0027 .02 .00
27 0 1 0 0 0 1 5e-4 16 184 495 0 ?43 186 181 182 0 0 1 31 185 564 0 186 182 187
 0 +-.0027 .02 .0027 -1 0 0 0 0 1 5e-4 16 186 494 0 ?188 189 184 185 0 0 1 31 18
7 563 0 189 185 190 0 -.0027 .02 -.0027 1 -867361737988403e-30 0 867361737988403
e-30 1 0 5e-4 16 189 492 0 ?191 192 186 187 0 0 1 31 190 562 0 192 187 193 0 --.
0027 .001 -.0027 0 -1 0 0 0 -1 5e-4 16 192 489 0 ?194 195 189 190 0 0 1 31 193 5
61 0 195 190 196 0 --.0027 .001 .0027 0 -1 0 0 0 -1 5e-4 16 195 486 0 ?197 198 1
92 193 0 0 1 31 196 560 0 198 193 199 0 -.0027 .02 .0027 1 0 867361737988403e-30
 867361737988403e-30 0 -1 5e-4 16 198 483 0 ?200 201 195 196 0 0 1 31 199 559 0
 201 196 202 0 +.0027 .02 -.0027 0 0 -1 -1 0 0 5e-4 16 201 481 0 ?203 204 198 19
9 0 0 1 31 202 558 0 204 199 205 0 +.0027 .02 -.0027 0 1 0 0 0 1 5e-4 16 204 480
 0 ?206 207 201 202 0 0 1 31 205 557 0 207 202 208 0 +-.0027 .001 -.0027 -1 0 0
 0 0 1 5e-4 16 207 479 0 ?67 209 204 205 0 0 1 31 208 556 0 209 205 210 0 +-.002
7 .001 -.0027 0 0 -1 -1 0 0 5e-4 16 209 478 0 ?211 212 207 208 0 0 1 31 210 555
 0 212 208 213 0 +-.0027 .001 .0027 0 0 1 1 0 0 5e-4 16 212 477 0 ?214 215 209 2
10 0 0 1 31 213 554 0 215 210 216 0 +-.0027 .001 .0027 -1 0 0 0 0 1 5e-4 16 215
 476 0 ?217 218 212 213 0 0 1 31 216 553 0 218 213 219 0 +.0027 .02 .0027 0 1 0
 0 0 1 5e-4 16 218 475 0 ?220 221 215 216 0 0 1 31 219 552 0 221 216 222 0 +.002
7 .02 .0027 0 0 1 1 0 0 5e-4 16 221 474 0 ?223 224 218 219 0 0 1 31 222 551 0 22
4 219 225 0 -.0027 .001 -.0027 1734723475976805e-30 -1 0 1 1734723475976805e-30
 0 5e-4 16 224 470 0 ?226 227 221 222 0 0 1 31 225 550 0 227 222 228 0 -.0027 .0
01 -.0027 1 0 0 0 0 -1 5e-4 16 227 467 0 ?229 230 224 225 0 0 1 31 228 549 0 230
 225 231 0 -.0027 .001 .0027 1 0 0 0 0 -1 5e-4 16 230 462 0 ?232 233 227 228 0 0
 1 31 231 548 0 233 228 20 0 -.0027 .001 .0027 0 -1 -1734723475976805e-30 0 1734
723475976805e-30 -1 5e-4 16 233 459 0 ?234 235 230 231 0 0 1 31 20 547 0 235 231
 7 0 +.0027 .001 -.0027 0 0 -1 -1 0 0 5e-4 16 235 457 0 ?236 19 233 20 0 0 1 17
 236 0 237 238 239 74 240 235 0 229 +16 19 456 0 ?241 242 235 7 0 0 1 17 241 0 2
43 244 245 11 246 19 0 234 +16 242 167 0 ?247 248 19 249 0 0 1 17 247 0 250 247
 247 101 103 242 0 0 +16 248 169 0 ?251 252 242 253 0 0 1 31 249 224 0 242 0 253
 0 +-.00762 -.002 0 762515813616179e-31 -1 0 0 0 1 325e-6 31 253 223 0 248 249 2
54 0 +-.00762 .02075 0 762515813616179e-31 -1 0 0 0 1 325e-6 31 254 222 0 252 25
3 122 0 +-.00687 .0215 0 -1 0 0 0 0 1 325e-6 16 252 170 0 ?255 119 248 254 0 0 1
 31 122 221 0 119 254 120 0 +-75e-5 .0215 0 -1 0 0 0 0 1 325e-6 16 119 171 0 ?25
6 113 252 122 0 0 1 17 256 0 257 256 256 0 258 119 0 0 +15 257 199 0 256 259 260
 17 258 0 261 258 258 0 256 119 0 0 -15 261 204 0 258 262 0 14 262 201 263 ?259
 264 265 5 266 -0 0 259 264 22 81 1 263 927 267 262 268 0 0 269 270 14 259 197 2
69 ?271 262 257 5 272 -0 0 271 262 22 14 264 43 273 ?262 274 275 5 276 -0 0 262
 274 22 15 265 203 0 118 262 261 54 266 214 0 262 272 277 0 --75e-5 .02075 0 0 0
 -1 75e-5 325e-6 -1 0 0 13 22 29 0 0 0 0 0 0 9 15 14 15 85 278 ?279 0 280 5 281
 -0 0 279 0 22 81 1 278 930 267 15 282 0 273 283 284 14 279 83 283 ?285 15 286 5
 287 -0 0 285 15 22 15 280 268 0 131 15 0 50 281 89 0 15 287 288 0 +-.0032 .0205
 .0032 1 1734723475976805e-31 0 -1734723475976805e-31 1 0 50 287 88 0 279 289 28
1 0 +-.0032 5e-4 .0032 0 1 0 0 0 1 51 288 545 0 290 281 291 0 +-.0027 .02 .0032
 0 0 -1 5e-4 -1 0 0 14 290 450 292 ?0 293 294 5 288 +0 0 0 293 22 53 291 544 0 2
93 288 295 0 +-.0027 .02 -.0027 5e-4 0 0 1 1 0 0 14 293 448 296 ?290 297 298 5 2
91 +0 0 290 297 22 53 295 543 0 297 291 299 0 +-.0027 .02 .0027 5e-4 0 0 1 1 0 0
 14 297 446 300 ?293 301 302 5 295 +0 0 293 301 22 51 299 542 0 301 295 303 0 +-
.0032 .02 -.0027 -1 0 0 5e-4 0 0 1 14 301 444 304 ?297 305 306 5 299 +0 0 297 30
5 22 51 303 541 0 305 299 307 0 +-.0027 .0205 -.0027 1734723475976805e-31 -1 0 5
e-4 1 1734723475976805e-31 0 14 305 442 308 ?301 309 310 5 303 +0 0 301 309 22 5
1 307 540 0 309 303 311 0 +-.0027 -468375338513738e-33 .0027 -1734723475976805e-
31 1 0 5e-4 -1 -1734723475976805e-31 0 14 309 440 312 ?305 313 314 5 307 +0 0 30
5 313 22 51 311 539 0 313 307 315 0 +0 .02 .0027 1 0 0 5e-4 0 0 -1 14 313 438 31
6 ?309 317 318 5 311 +0 0 309 317 22 53 315 538 0 317 311 319 0 +.0027 .02 -.002
7 5e-4 0 0 1 1 0 0 14 317 436 320 ?313 321 322 5 315 +0 0 313 321 22 53 319 537
 0 321 315 323 0 +-.0027 .001 -.0027 5e-4 0 0 1 1 0 0 14 321 434 324 ?317 325 32
6 5 319 +0 0 317 325 22 53 323 536 0 325 319 327 0 +-.0027 .001 .0027 5e-4 0 0 1
 1 0 0 14 325 432 328 ?321 329 330 5 323 +0 0 321 329 22 53 327 535 0 329 323 33
1 0 +.0027 .02 .0027 5e-4 0 0 1 1 0 0 14 329 430 332 ?325 333 334 5 327 +0 0 325
 333 22 51 331 534 0 333 327 335 0 +.0027 .02 .0032 0 0 -1 5e-4 -1 0 0 14 333 42
8 336 ?329 337 338 5 331 +0 0 329 337 22 51 335 533 0 337 331 339 0 +.0027 .0205
 -.0027 1734723475976805e-31 1 0 5e-4 -1 1734723475976805e-31 0 14 337 424 340 ?
333 341 342 5 335 +0 0 333 341 22 51 339 532 0 341 335 343 0 +-.0032 .001 -.0027
 1 0 0 5e-4 0 0 -1 14 341 422 344 ?337 345 346 5 339 +0 0 337 345 22 51 343 531
 0 345 339 347 0 +-.0027 .001 .0032 0 0 -1 5e-4 -1 0 0 14 345 420 348 ?341 349 3
50 5 343 +0 0 341 349 22 51 347 530 0 349 343 351 0 +0 .001 .0027 -1 0 0 5e-4 0
 0 1 14 349 418 352 ?345 353 354 5 347 +0 0 345 353 22 51 351 529 0 353 347 355
 0 +.0027 -468375338513738e-33 .0027 -1734723475976805e-31 -1 0 5e-4 1 -17347234
75976805e-31 0 14 353 414 356 ?349 357 358 5 351 +0 0 349 357 22 53 355 528 0 35
7 351 18 0 +.0027 .001 -.0027 5e-4 0 0 1 1 0 0 14 357 412 359 ?353 360 237 5 355
 +0 0 353 360 22 53 18 527 0 360 355 6 0 +.0027 .001 .0027 5e-4 0 0 1 1 0 0 14 3
60 410 361 ?357 17 243 5 18 +0 0 357 17 22 81 1 361 950 267 360 362 0 359 363 36
4 14 17 406 363 ?360 365 366 5 6 +0 0 360 365 22 15 243 411 0 245 360 0 17 245 0
 243 241 244 71 232 230 0 367 -17 244 0 243 245 241 50 234 233 0 368 -17 232 0 3
54 369 367 50 245 230 0 244 +17 367 0 354 232 370 71 70 145 0 0 -15 354 419 0 23
2 349 0 17 370 0 354 367 369 68 217 215 0 214 -17 70 0 286 151 73 68 367 145 0 3
71 +15 286 310 0 70 279 372 17 151 0 286 76 70 65 371 149 0 0 +17 73 0 286 70 76
 71 373 143 0 246 +17 371 0 350 374 375 68 151 149 0 370 -15 350 421 0 375 345 0
 17 374 0 350 376 371 98 214 212 0 377 -17 375 0 350 371 376 65 211 209 0 378 -1
7 376 0 350 375 374 92 100 127 0 211 -17 211 0 326 379 67 92 375 209 0 194 +17 3
78 0 346 380 229 65 76 147 0 151 -15 346 423 0 229 341 0 17 380 0 346 381 378 53
 67 207 0 158 -17 229 0 346 378 381 74 238 227 0 0 +17 76 0 286 73 151 74 378 14
7 0 373 +17 373 0 366 240 246 74 73 143 0 236 -15 366 407 0 246 17 0 17 240 0 36
6 31 373 36 236 235 0 23 -17 246 0 366 373 31 71 241 19 0 245 -17 31 0 366 246 2
40 11 23 10 0 241 -17 23 0 28 33 26 36 31 10 0 0 +15 28 373 0 26 285 0 17 33 0 2
8 29 23 32 40 170 0 34 +17 40 0 342 226 382 36 33 170 0 239 -17 34 0 338 383 384
 32 29 35 0 382 -15 338 429 0 384 333 0 17 383 0 338 385 34 83 203 201 0 386 -17
 384 0 338 34 385 27 223 221 0 220 -17 382 0 342 40 387 32 206 204 0 203 -15 342
 425 0 226 337 0 17 387 0 342 382 226 62 61 152 0 206 -17 206 0 322 386 203 62 3
82 204 0 191 +17 203 0 322 206 386 32 383 201 0 0 +15 322 437 0 203 317 0 17 386
 0 322 203 206 83 191 189 0 388 -17 191 0 306 389 388 62 386 189 0 0 +17 388 0 3
06 191 390 83 79 138 0 0 -15 306 445 0 191 301 0 17 390 0 306 388 389 77 180 178
 0 391 -17 79 0 392 142 85 77 388 138 0 390 +15 392 289 0 79 393 394 17 142 0 39
2 88 79 80 391 140 0 0 +17 85 0 392 79 88 83 385 134 0 383 +17 88 0 392 85 142 8
6 395 136 0 385 +17 385 0 338 384 383 86 85 134 0 223 -17 223 0 334 396 220 86 3
84 221 0 200 +15 334 431 0 220 329 0 17 396 0 334 220 223 47 200 198 0 397 -17 2
20 0 334 223 396 27 398 218 0 0 +17 200 0 318 395 397 86 396 198 0 0 +15 318 439
 0 200 313 0 17 395 0 318 399 200 80 88 136 0 142 -17 397 0 318 200 399 47 167 1
65 0 0 -17 399 0 318 397 395 41 188 186 0 400 -17 167 0 401 46 49 41 397 165 0 0
 +15 401 352 0 167 274 0 17 46 0 401 52 167 44 400 168 0 369 +17 49 0 401 167 52
 47 368 161 0 398 +17 52 0 401 49 46 50 369 163 0 232 +17 368 0 358 234 398 50 4
9 161 0 0 -17 398 0 358 368 30 47 220 218 0 396 -15 358 415 0 234 353 0 17 30 0
 358 398 234 27 26 24 0 384 -17 234 0 358 30 368 11 244 233 0 0 +17 369 0 354 37
0 232 44 52 163 0 217 -17 217 0 330 377 214 44 370 215 0 197 +15 330 433 0 214 3
25 0 17 377 0 330 214 217 98 197 195 0 402 -17 214 0 330 217 377 68 374 212 0 0
 +17 197 0 314 400 402 44 377 195 0 0 +15 314 441 0 197 309 0 17 400 0 314 403 1
97 41 46 168 0 167 -17 402 0 314 197 403 98 97 124 0 0 -17 403 0 314 402 400 95
 43 184 0 404 -17 97 0 280 131 100 95 402 124 0 403 +17 131 0 280 94 97 89 405 1
29 0 0 +17 100 0 280 97 94 98 376 127 0 374 +17 94 0 280 100 131 92 406 132 0 37
6 +17 406 0 310 407 194 89 94 132 0 131 -15 310 443 0 194 305 0 17 407 0 310 55
 406 56 183 181 0 180 -17 194 0 310 406 55 92 379 192 0 0 +17 55 0 310 194 407 5
3 58 159 0 379 -17 379 0 326 67 211 53 194 192 0 380 -15 326 435 0 67 321 0 17 6
7 0 326 211 379 65 380 207 0 375 +17 58 0 275 64 158 56 55 159 0 389 +15 275 331
 0 158 264 0 17 64 0 275 61 58 62 389 154 0 387 +17 158 0 275 58 61 53 381 156 0
 0 +17 389 0 306 390 191 56 64 154 0 407 -17 61 0 275 158 64 59 387 152 0 226 +1
7 381 0 346 229 380 59 158 156 0 0 -17 226 0 342 387 40 59 239 224 0 238 +17 239
 0 237 236 238 36 226 224 0 240 -17 238 0 237 239 236 59 229 227 0 381 -15 237 4
13 0 239 357 0 17 183 0 298 408 180 89 407 181 0 406 +17 180 0 298 183 408 56 39
0 178 0 0 +15 298 449 0 180 293 0 17 408 0 298 180 183 77 91 174 0 0 -17 91 0 29
4 405 391 89 408 174 0 183 +15 294 451 0 82 290 0 17 405 0 294 82 91 95 131 129
 0 0 -17 391 0 294 91 82 77 142 140 0 408 -17 82 0 294 391 405 80 404 176 0 188
 +17 404 0 302 43 188 95 82 176 0 405 -17 188 0 302 404 43 80 399 186 0 395 +15
 302 447 0 43 297 0 17 43 0 302 188 404 41 403 184 0 399 +14 274 1 409 ?264 393
 401 5 410 +0 0 264 393 22 81 1 409 952 267 274 411 0 363 412 413 14 393 79 412
 ?274 285 392 5 414 -0 0 274 285 22 50 410 2 0 274 415 276 0 +0 0 .0032 0 0 1 1
 0 0 50 415 211 0 416 417 410 0 +-.00762 -.002 0 762515813616179e-31 -1 0 0 0 1
 50 276 65 0 264 410 414 0 +0 0 -.0032 0 0 1 1 0 0 50 414 86 0 393 276 289 0 +-.
0032 .0205 .0032 0 -1 0 0 0 -1 50 289 87 0 285 414 287 0 +.0032 .0205 .0032 -1 1
734723475976805e-31 0 -1734723475976805e-31 -1 0 14 285 81 418 ?393 279 28 5 289
 -0 0 393 279 22 81 1 418 954 267 285 419 0 412 420 421 80 1 267 422 423 9000 1
 1 1 1 1 1 1 1 0 FFFFTFTFFFFFFF1 81 1 419 825 424 285 0 418 425 426 427 81 1 412
 953 267 393 426 0 409 418 428 81 1 420 955 267 365 429 0 418 430 431 82 1 421 -
499908489 14 365 186 420 ?17 109 111 5 417 -0 0 17 109 22 81 1 429 836 424 365 0
 420 432 433 434 81 1 430 956 267 109 432 0 420 435 436 82 1 431 -165871498 14 1
09 175 430 ?365 437 106 5 277 -437 437 365 437 22 81 1 432 835 424 109 0 430 438
 429 439 81 1 435 957 267 437 438 0 430 440 441 82 1 436 -144834442 14 437 179 4
35 ?109 416 442 5 277 -109 109 109 416 22 81 1 438 834 424 437 0 435 443 432 444
 81 1 440 958 267 416 443 0 435 445 446 82 1 441 -145358730 14 416 183 440 ?437
 447 250 5 415 +0 0 437 447 22 81 1 443 833 424 416 0 440 448 438 449 81 1 445 9
59 267 447 448 0 440 450 451 82 1 446 -166723466 14 447 189 445 ?416 271 452 5 4
53 -0 0 416 271 22 81 1 448 832 424 447 0 445 454 443 455 81 1 450 960 267 271 4
54 0 445 0 456 82 1 451 -171442058 14 271 193 450 ?447 259 457 5 458 -0 0 447 25
9 22 81 1 454 831 424 271 0 450 459 448 460 82 1 456 -170721162 80 1 424 0 461 8
001 0 0 0 0 3 5 0 0 0 FFFFTFTFFFFFFF2 81 1 459 830 424 259 0 269 268 454 462 83
 3 460 .8 .811764705882353 .8 81 1 269 928 267 259 459 0 263 273 463 81 1 268 82
9 424 262 0 263 464 459 465 83 3 462 .8 .811764705882353 .8 81 1 464 828 424 264
 0 273 411 268 466 83 3 465 .8 .811764705882353 .8 81 1 273 929 267 264 464 0 26
9 278 467 81 1 411 827 424 274 0 409 426 464 468 83 3 466 1 1 1 81 1 426 826 424
 393 0 412 419 411 469 83 3 468 1 1 1 83 3 469 1 1 1 82 1 467 -511377289 82 1 46
3 -170327946 79 15 461 SDL/TYSA_COLOUR15 457 195 0 255 271 470 54 458 216 0 271
 453 272 0 --.00687 .02075 0 0 0 -1 75e-5 325e-6 -1 0 0 51 453 217 0 447 0 458 0
 --.00762 -.002 0 -762515813616179e-31 1 0 325e-6 -1 -762515813616179e-31 0 51 2
72 215 0 259 458 266 0 --.00687 .0215 0 1 0 0 325e-6 0 0 -1 17 255 0 457 255 255
 0 471 252 0 0 +15 470 196 0 472 271 0 17 472 0 470 472 472 0 251 248 0 0 -17 25
1 0 452 251 251 0 472 248 0 0 +15 452 191 0 251 447 473 15 473 192 0 103 447 0 1
7 103 0 473 103 103 101 247 242 0 247 -17 471 0 260 471 471 0 255 252 0 0 -15 26
0 200 0 471 259 0 83 3 455 .8 .811764705882353 .8 83 3 449 .8 .811764705882353 .
8 15 250 185 0 247 416 0 83 3 444 .8 .811764705882353 .8 15 442 181 0 474 437 47
5 51 277 213 0 109 266 417 0 -0 .02075 0 0 -1 0 325e-6 0 0 -1 50 417 212 0 365 2
77 415 0 +0 -.002 0 0 1 0 0 0 1 17 474 0 442 474 474 0 118 113 0 0 -15 475 182 0
 115 437 0 17 115 0 475 115 115 0 476 112 0 0 +17 476 0 394 476 476 0 115 112 0
 0 -15 394 150 0 476 393 0 17 118 0 265 118 118 0 474 113 0 0 +83 3 439 .8 .8117
64705882353 .8 81 1 433 837 424 17 0 363 429 362 477 83 3 434 .8 .81176470588235
3 .8 81 1 363 951 267 17 433 0 361 409 478 81 1 362 838 424 360 0 361 433 479 48
0 83 3 477 1 1 1 81 1 479 839 424 357 0 359 362 481 482 83 3 480 1 1 1 81 1 359
 949 267 357 479 0 356 361 483 81 1 481 840 424 353 0 356 479 484 485 83 3 482 1
 1 1 81 1 356 948 267 353 481 0 352 359 486 81 1 484 841 424 349 0 352 481 487 4
88 83 3 485 1 1 1 81 1 352 947 267 349 484 0 348 356 489 81 1 487 842 424 345 0
 348 484 490 491 83 3 488 1 1 1 81 1 348 946 267 345 487 0 344 352 492 81 1 490
 843 424 341 0 344 487 493 494 83 3 491 1 1 1 81 1 344 945 267 341 490 0 340 348
 495 81 1 493 844 424 337 0 340 490 496 497 83 3 494 1 1 1 81 1 340 944 267 337
 493 0 336 344 498 81 1 496 845 424 333 0 336 493 499 500 83 3 497 1 1 1 81 1 33
6 943 267 333 496 0 332 340 501 81 1 499 846 424 329 0 332 496 502 503 83 3 500
 1 1 1 81 1 332 942 267 329 499 0 328 336 504 81 1 502 847 424 325 0 328 499 505
 506 83 3 503 1 1 1 81 1 328 941 267 325 502 0 324 332 507 81 1 505 848 424 321
 0 324 502 508 509 83 3 506 1 1 1 81 1 324 940 267 321 505 0 320 328 510 81 1 50
8 849 424 317 0 320 505 511 512 83 3 509 1 1 1 81 1 320 939 267 317 508 0 316 32
4 513 81 1 511 850 424 313 0 316 508 514 515 83 3 512 1 1 1 81 1 316 938 267 313
 511 0 312 320 516 81 1 514 851 424 309 0 312 511 517 518 83 3 515 1 1 1 81 1 31
2 937 267 309 514 0 308 316 519 81 1 517 852 424 305 0 308 514 520 521 83 3 518
 1 1 1 81 1 308 936 267 305 517 0 304 312 522 81 1 520 853 424 301 0 304 517 523
 524 83 3 521 1 1 1 81 1 304 935 267 301 520 0 300 308 525 81 1 523 854 424 297
 0 300 520 526 527 83 3 524 1 1 1 81 1 300 934 267 297 523 0 296 304 528 81 1 52
6 855 424 293 0 296 523 529 530 83 3 527 1 1 1 81 1 296 933 267 293 526 0 292 30
0 531 81 1 529 856 424 290 0 292 526 0 532 83 3 530 1 1 1 81 1 292 932 267 290 5
29 0 283 296 533 83 3 532 1 1 1 81 1 283 931 267 279 425 0 278 292 534 82 1 533
 -69664649 81 1 425 824 424 279 0 283 282 419 535 82 1 534 -510984073 81 1 282 8
23 424 15 0 278 0 425 536 83 3 535 1 1 1 83 3 536 1 1 1 82 1 531 -68091785 82 1
 528 -67239817 82 1 525 -66387849 82 1 522 -65208201 82 1 519 -64094089 82 1 516
 -62979977 82 1 513 -61865865 82 1 510 -61079433 82 1 507 -60227465 82 1 504 -59
375497 82 1 501 -58523529 82 1 498 -57737097 82 1 495 -56622985 82 1 492 -555088
73 82 1 489 -55115657 82 1 486 -53673865 82 1 483 -52559753 82 1 478 -51380105 1
5 111 188 0 107 365 0 82 1 428 -500301705 83 3 427 1 1 1 79 14 423 SWEntUnchange
d82 1 413 -500432777 15 372 157 0 537 279 0 17 537 0 372 537 537 0 123 116 0 0 -
17 123 0 110 123 123 0 537 116 0 0 +15 110 178 0 123 109 0 82 1 364 -52166537 82
 1 284 -511115145 82 1 270 -169934730 19 16 95 0 1 0 9 5 S74 20 14 3 0 0 450 2 5
29 0 0 0 0 0 0 0 0 0 0 0 0 0 0 0 0 0 80 2 12 538 539 8004 0 0 0 0 3 5 0 0 0 FFTF
FFFFFFFFFF2 3 83 1 13 1 79 16 539 SDL/TYSA_DENSITY1 0 
