**ABCDEFGHIJKLMNOPQRSTUVWXYZabcdefghijklmnopqrstuvwxyz**************************
**PARASOLID !"#$%&'()*+,-./:;<=>?@[\]^_`{|}~0123456789**************************
**PART1;
MC=AMD64;
MC_MODEL=Intel64 Family 6 Model 158 Stepping 13, GenuineIntel;
MC_ID=unknown;
OS=Windows_NT;
OS_RELEASE=unknown;
FRU=Parasolid Version 30.0, build 310,  6- 8-2018;
APPL=SOLIDWORKS 2018-2018316;
SITE=;
USER=unknown;
FORMAT=text;
GUISE=transmit;
KEY=R_Power_L25.0_W9.0_P30.48_Horizontal;
FILE=R_Power_L25.0_W9.0_P30.48_Horizontal.x_t;
DATE=Sat Mar  2 13:15:26 2024;
**PART2;
SCH=SCH_3000310_30000;
USFLD_SIZE=0;
**PART3;
**END_OF_HEADER*****************************************************************
T51 : TRANSMIT FILE created by modeller version 300031017 SCH_2000000_200000 12
 1 941 2 3 0 0 0 0 1e3 1e-8 0 4 0 1 0 1 1 5 6 7 8 9 10 11 0 0 0 0 81 2 2 678 12
 1 0 0 0 0 13 0 70 3 0 4 T1 0 0 3 20 1 14 14 13 5 94 0 1 0 15 0 0 16 0 51 6 396
 0 17 18 0 0 +.012 .009 .0045 0 0 -1 5e-4 -1 0 0 31 7 541 0 19 20 0 0 +.0125 .00
5 0 -1 -192747052886312e-30 0 192747052886312e-30 -1 0 4e-4 29 8 256 0 11 21 0 .
012 .0095 .004 19 9 28 0 1 16 0 22 V16 10 258 0 ?23 0 24 25 0 0 1 18 11 254 0 26
 0 27 8 ?1 17 26 0 28 23 29 11 30 24 0 31 +18 27 250 0 29 11 32 21 ?1 17 29 0 28
 26 33 27 34 35 0 30 +18 32 246 0 33 27 36 37 ?1 29 21 252 0 27 37 8 -.012 .0095
 .004 29 37 248 0 32 38 21 -.012 .0095 -.004 29 38 245 0 36 39 37 .012 .0095 -.0
04 18 36 243 0 40 32 41 38 ?1 29 39 236 0 41 42 38 .012 .001 .0045 18 41 234 0 4
3 36 44 39 ?1 29 42 232 0 44 45 39 -.012 .001 .0045 18 44 230 0 46 41 47 42 ?1 2
9 45 228 0 47 48 42 -.012 .009 .0045 18 47 226 0 49 44 50 45 ?1 29 48 225 0 50 5
1 45 .012 .009 .0045 18 50 223 0 52 47 53 48 ?1 29 51 216 0 53 54 48 .012 .001 -
.0045 18 53 214 0 55 50 56 51 ?1 29 54 212 0 56 57 51 -.012 .001 -.0045 18 56 21
0 0 58 53 59 54 ?1 29 57 208 0 59 60 54 .012 .009 -.0045 18 59 206 0 61 56 62 57
 ?1 29 60 205 0 62 63 57 -.012 .009 -.0045 18 62 203 0 64 59 65 60 ?1 29 63 196
 0 65 66 60 .0125 .001 -.004 18 65 194 0 67 62 68 63 ?1 29 66 192 0 68 69 63 .01
25 .001 .004 18 68 190 0 70 65 71 66 ?1 29 69 188 0 71 72 66 .0125 .009 .004 18
 71 186 0 73 68 74 69 ?1 29 72 185 0 74 75 69 .0125 .009 -.004 18 74 183 0 76 71
 77 72 ?1 29 75 176 0 77 78 72 -.0125 .001 -.004 18 77 174 0 79 74 80 75 ?1 29 7
8 172 0 80 81 75 -.0125 .001 .004 18 80 170 0 82 77 83 78 ?1 29 81 168 0 83 84 7
8 -.0125 .009 -.004 18 83 166 0 85 80 86 81 ?1 29 84 165 0 86 87 81 -.0125 .009
 .004 18 86 163 0 88 83 89 84 ?1 29 87 156 0 89 90 84 -.012 5e-4 -.004 18 89 154
 0 91 86 92 87 ?1 29 90 152 0 92 93 87 .012 5e-4 -.004 18 92 150 0 94 89 95 90 ?
1 29 93 148 0 95 96 90 -.012 5e-4 .004 18 95 146 0 97 92 98 93 ?1 29 96 145 0 98
 99 93 .012 5e-4 .004 18 98 143 0 100 95 101 96 ?1 29 99 613 0 101 102 96 -.0152
4 -.002 4e-4 18 101 561 0 103 98 104 99 ?1 29 102 614 0 104 0 99 .01524 -.002 4e
-4 18 104 562 0 105 101 0 102 ?1 17 105 0 106 105 105 104 107 108 0 107 +15 106
 576 0 105 109 0 17 107 0 110 107 107 104 105 108 0 0 -16 108 552 0 ?105 19 111
 112 0 0 1 16 19 558 0 ?113 114 108 7 0 0 1 16 111 560 0 ?115 108 116 117 0 0 1
 31 112 607 0 108 117 118 0 +.01524 -.002 0 0 -1 0 0 0 1 4e-4 31 117 608 0 111 1
19 112 0 +.01524 .00425 0 0 -1 0 0 0 1 4e-4 31 118 606 0 114 112 120 0 +-.0125 .
005 0 1 192747052886312e-30 0 -192747052886312e-30 1 0 4e-4 16 114 557 0 ?121 12
2 19 118 0 0 1 30 120 149 0 123 118 124 0 --.0125 5e-4 .004 1 0 0 16 123 147 0 ?
97 125 126 120 0 0 1 30 124 153 0 125 120 127 0 -.012 5e-4 .0045 0 0 -1 16 125 1
51 0 ?100 128 123 124 0 0 1 30 127 157 0 128 124 129 0 +-.012 5e-4 .0045 0 0 -1
 16 128 155 0 ?130 131 125 127 0 0 1 30 129 160 0 131 127 132 0 +-.0125 5e-4 -.0
04 1 0 0 16 131 158 0 ?94 133 128 129 0 0 1 30 132 169 0 133 129 134 0 +-.0125 .
009 .0045 0 0 -1 16 133 167 0 ?85 135 131 132 0 0 1 30 134 173 0 135 132 136 0 -
-.0125 .0095 .004 192747052886312e-30 -1 0 16 135 171 0 ?88 137 133 134 0 0 1 30
 136 177 0 137 134 138 0 +-.0125 .0095 -.004 192747052886312e-30 -1 0 16 137 175
 0 ?79 139 135 136 0 0 1 30 138 180 0 139 136 140 0 --.0125 .001 .0045 0 0 -1 16
 139 178 0 ?141 142 137 138 0 0 1 30 140 189 0 142 138 143 0 -.0125 .009 .0045 0
 0 -1 16 142 187 0 ?73 144 139 140 0 0 1 30 143 193 0 144 140 145 0 -.0125 5e-4
 .004 -192747052886312e-30 1 0 16 144 191 0 ?70 146 142 143 0 0 1 30 145 197 0 1
46 143 147 0 +.0125 .0095 -.004 -192747052886312e-30 1 0 16 146 195 0 ?76 148 14
4 145 0 0 1 30 147 200 0 148 145 149 0 +.0125 .001 .0045 0 0 -1 16 148 198 0 ?15
0 151 146 147 0 0 1 30 149 209 0 151 147 152 0 --12490009027033e-31 .009 -.0045
 -1 -1387778780781446e-31 0 16 151 207 0 ?61 153 148 149 0 0 1 30 152 213 0 153
 149 154 0 --.012 -2312964634635745e-33 -.0045 192747052886312e-30 -1 0 16 153 2
11 0 ?64 155 151 152 0 0 1 30 154 217 0 155 152 156 0 -.012 231296463463574e-32
 -.0045 -192747052886312e-30 1 0 16 155 215 0 ?55 157 153 154 0 0 1 30 156 220 0
 157 154 158 0 -0 .001 -.0045 1 0 0 16 157 218 0 ?159 160 155 156 0 0 1 30 158 2
29 0 160 156 161 0 +-.0125 .009 .0045 -1 -1387778780781446e-31 0 16 160 227 0 ?4
9 162 157 158 0 0 1 30 161 233 0 162 158 163 0 +-.012 5e-4 .0045 192747052886312
e-30 -1 0 16 162 231 0 ?46 164 160 161 0 0 1 30 163 237 0 164 161 165 0 +.0125 .
001 .0045 1 0 0 16 164 235 0 ?43 166 162 163 0 0 1 30 165 240 0 166 163 167 0 +.
012 .0095 .0045 -192747052886312e-30 1 0 16 166 238 0 ?168 169 164 165 0 0 1 30
 167 249 0 169 165 170 0 +-.0125 .0095 -.004 -1 -1387778780781446e-31 0 16 169 2
47 0 ?33 35 166 167 0 0 1 30 170 253 0 35 167 171 0 --.012 .0095 .0045 0 0 -1 16
 35 251 0 ?29 24 169 170 0 0 1 30 171 257 0 24 170 25 0 -.0125 .0095 .004 -1 -13
87778780781446e-31 0 16 24 255 0 ?26 10 35 171 0 0 1 30 25 260 0 10 171 172 0 +.
012 .0095 .0045 0 0 -1 31 172 439 0 122 25 173 0 --.012 .001 -.004 0 0 -1 -1 0 0
 5e-4 16 122 371 0 ?91 174 114 172 0 0 1 31 173 438 0 174 172 175 0 --.012 .001
 .004 0 0 1 1 0 0 5e-4 16 174 369 0 ?82 176 122 173 0 0 1 31 175 437 0 176 173 1
77 0 +-.012 .001 -.004 0 -1 0 0 0 -1 5e-4 16 176 367 0 ?58 178 174 175 0 0 1 31
 177 436 0 178 175 179 0 +-.012 .001 -.004 -1 0 0 0 0 1 5e-4 16 178 366 0 ?180 1
81 176 177 0 0 1 31 179 435 0 181 177 182 0 +-.012 .001 .004 -1 0 0 0 0 1 5e-4 1
6 181 365 0 ?183 184 178 179 0 0 1 31 182 434 0 184 179 185 0 +-.012 .001 .004 0
 -1 0 0 0 -1 5e-4 16 184 364 0 ?186 187 181 182 0 0 1 31 185 433 0 187 182 188 0
 --.012 .009 -.004 0 1 0 0 0 1 5e-4 16 187 362 0 ?189 190 184 185 0 0 1 31 188 4
32 0 190 185 191 0 -.012 .001 -.004 1 0 0 0 0 -1 5e-4 16 190 359 0 ?192 193 187
 188 0 0 1 31 191 431 0 193 188 194 0 -.012 .001 .004 1 0 0 0 0 -1 5e-4 16 193 3
56 0 ?195 196 190 191 0 0 1 31 194 430 0 196 191 197 0 --.012 .009 .004 0 1 0 0
 0 1 5e-4 16 196 353 0 ?198 199 193 194 0 0 1 31 197 429 0 199 194 200 0 +-.012
 .009 -.004 0 0 -1 -1 0 0 5e-4 16 199 351 0 ?201 202 196 197 0 0 1 31 200 428 0
 202 197 203 0 +-.012 .009 -.004 -1 0 0 0 0 1 5e-4 16 202 350 0 ?204 205 199 200
 0 0 1 31 203 427 0 205 200 206 0 +.012 .001 -.004 -1734723475976805e-30 -1 0 1
 -1734723475976805e-30 0 5e-4 16 205 349 0 ?67 207 202 203 0 0 1 31 206 426 0 20
7 203 208 0 +.012 .001 -.004 0 0 -1 -1 0 0 5e-4 16 207 348 0 ?209 210 205 206 0
 0 1 31 208 425 0 210 206 211 0 +.012 .001 .004 0 0 1 1 0 0 5e-4 16 210 347 0 ?2
12 213 207 208 0 0 1 31 211 424 0 213 208 214 0 +.012 .001 .004 0 -1 17347234759
7681e-29 0 -173472347597681e-29 -1 5e-4 16 213 346 0 ?215 216 210 211 0 0 1 31 2
14 423 0 216 211 217 0 +-.012 .009 .004 -1 0 0 0 0 1 5e-4 16 216 345 0 ?218 219
 213 214 0 0 1 31 217 422 0 219 214 220 0 +-.012 .009 .004 0 0 1 1 0 0 5e-4 16 2
19 344 0 ?221 222 216 217 0 0 1 31 220 421 0 222 217 223 0 -.012 .009 -.004 1 0
 0 0 0 -1 5e-4 16 222 340 0 ?224 225 219 220 0 0 1 31 223 420 0 225 220 226 0 -.
012 .009 -.004 0 1 0 0 0 1 5e-4 16 225 337 0 ?227 228 222 223 0 0 1 31 226 419 0
 228 223 229 0 -.012 .009 .004 0 1 0 0 0 1 5e-4 16 228 332 0 ?230 231 225 226 0
 0 1 31 229 418 0 231 226 232 0 -.012 .009 .004 1 0 0 0 0 -1 5e-4 16 231 329 0 ?
233 234 228 229 0 0 1 31 232 417 0 234 229 20 0 +.012 .009 -.004 0 0 -1 -1 0 0 5
e-4 16 234 327 0 ?235 126 231 232 0 0 1 31 20 416 0 126 232 7 0 +.012 .009 .004
 0 0 1 1 0 0 5e-4 16 126 326 0 ?236 123 234 20 0 0 1 17 236 0 237 238 239 11 240
 126 0 233 +15 237 281 0 239 241 0 17 238 0 237 239 236 50 233 231 0 230 -17 239
 0 237 236 238 71 230 228 0 242 -17 240 0 243 244 31 71 236 126 0 239 -17 233 0
 245 30 52 11 238 231 0 0 +15 245 285 0 233 246 0 17 30 0 245 247 233 27 26 24 0
 248 -17 52 0 245 233 247 50 49 160 0 238 -17 247 0 245 52 30 47 218 216 0 249 -
17 49 0 250 46 168 47 52 160 0 247 +15 250 224 0 43 251 0 17 46 0 250 43 49 44 2
52 162 0 253 +17 168 0 250 49 43 50 254 166 0 0 +17 43 0 250 168 46 41 253 164 0
 254 +17 254 0 255 256 230 41 168 166 0 215 -15 255 289 0 230 257 0 17 256 0 255
 242 254 68 215 213 0 212 -17 230 0 255 254 242 50 239 228 0 168 +17 215 0 258 2
59 212 41 256 213 0 195 +15 258 303 0 212 260 0 17 259 0 258 212 215 98 195 193
 0 261 -17 212 0 258 215 259 68 262 210 0 0 +17 195 0 263 253 261 41 259 193 0 0
 +15 263 311 0 195 264 0 17 253 0 263 265 195 44 43 164 0 266 -17 261 0 263 195
 265 98 97 123 0 0 -17 265 0 263 261 253 95 183 181 0 267 -17 97 0 268 130 100 9
5 261 123 0 265 +15 268 144 0 130 269 0 17 130 0 268 94 97 89 270 128 0 0 +17 10
0 0 268 97 94 98 271 125 0 262 +17 94 0 268 100 130 92 272 131 0 271 +17 271 0 2
73 274 262 92 100 125 0 209 -17 262 0 273 271 275 98 212 210 0 259 -15 273 291 0
 274 276 0 17 275 0 273 262 274 68 150 148 0 256 -17 274 0 273 275 271 65 209 20
7 0 277 -17 150 0 278 76 70 65 275 148 0 0 +15 278 184 0 70 279 0 17 76 0 278 73
 150 74 277 146 0 244 +17 70 0 278 150 73 68 242 144 0 275 +17 73 0 278 70 76 71
 244 142 0 240 +17 242 0 255 230 256 71 70 144 0 0 -17 244 0 243 280 240 74 73 1
42 0 235 -15 243 277 0 240 17 0 17 280 0 243 31 244 36 235 234 0 23 -17 235 0 28
1 282 283 74 280 234 0 227 +15 281 283 0 283 284 0 17 282 0 281 283 235 59 227 2
25 0 285 -17 283 0 281 235 282 36 224 222 0 280 -17 227 0 286 277 285 74 282 225
 0 0 +15 286 293 0 227 287 0 17 277 0 286 288 227 65 76 146 0 150 -17 285 0 286
 227 288 59 55 155 0 0 -17 288 0 286 285 277 53 67 205 0 289 -17 55 0 290 159 61
 53 285 155 0 288 +15 290 204 0 55 291 0 17 159 0 290 64 55 56 292 157 0 0 +17 6
1 0 290 55 64 59 293 151 0 224 +17 64 0 290 61 159 62 294 153 0 293 +17 293 0 29
5 296 224 62 61 151 0 204 -17 224 0 295 293 40 59 283 222 0 282 +15 295 295 0 22
4 297 0 17 40 0 295 224 296 36 33 169 0 283 -17 296 0 295 40 293 32 204 202 0 20
1 -17 33 0 28 29 23 32 40 169 0 34 +15 28 244 0 26 298 0 17 23 0 28 33 26 36 31
 10 0 0 +17 34 0 299 300 248 32 29 35 0 296 -15 299 299 0 248 301 0 17 300 0 299
 302 34 83 201 199 0 303 -17 248 0 299 34 302 27 221 219 0 218 -17 302 0 299 248
 300 86 85 133 0 221 -17 221 0 304 249 218 86 248 219 0 198 +17 218 0 304 221 24
9 27 247 216 0 0 +15 304 301 0 218 305 0 17 249 0 304 218 221 47 198 196 0 252 -
17 198 0 306 307 252 86 249 196 0 0 +17 252 0 306 198 266 47 46 162 0 0 -15 306
 309 0 198 308 0 17 266 0 306 252 307 44 186 184 0 183 -17 307 0 306 266 198 80
 88 135 0 141 -17 186 0 309 267 183 80 266 184 0 307 +17 183 0 309 186 267 44 26
5 181 0 0 +15 309 317 0 183 310 0 17 267 0 309 183 186 95 82 174 0 270 -17 82 0
 311 312 270 80 267 174 0 186 +17 270 0 311 82 91 95 130 128 0 0 -15 311 321 0 8
2 313 0 17 91 0 311 270 312 89 314 122 0 180 +17 312 0 311 91 82 77 141 139 0 31
4 -17 314 0 315 58 180 77 91 122 0 0 -17 180 0 315 314 58 89 316 178 0 272 +15 3
15 319 0 58 317 0 17 58 0 315 180 314 56 318 176 0 316 +17 316 0 319 292 272 56
 180 178 0 294 -17 272 0 319 316 192 89 94 131 0 130 -15 319 313 0 192 320 0 17
 192 0 319 272 292 92 289 190 0 0 +17 292 0 319 192 316 53 159 157 0 0 -17 289 0
 321 67 209 53 192 190 0 292 -15 321 305 0 67 322 0 17 67 0 321 209 289 65 288 2
05 0 274 +17 209 0 321 289 67 92 274 207 0 192 +14 322 304 323 ?324 260 321 5 32
5 +0 0 324 260 22 81 1 323 908 326 322 327 0 0 328 329 14 324 306 328 ?308 322 3
30 5 331 +0 0 308 322 22 14 260 302 332 ?322 305 258 5 333 +0 0 322 305 22 53 32
5 407 0 322 331 333 0 +.012 .001 -.004 5e-4 0 0 1 1 0 0 13 22 29 0 0 0 0 0 0 9 1
5 14 15 85 334 ?269 0 335 5 336 -0 0 269 0 22 81 1 334 911 326 15 337 0 332 338
 339 14 269 83 338 ?279 15 268 5 340 -0 0 279 15 22 15 335 545 0 121 15 341 50 3
36 89 0 15 340 342 0 +-.0125 .0095 .0045 1 192747052886312e-30 0 -19274705288631
2e-30 1 0 50 340 88 0 269 343 336 0 +-.0125 5e-4 .0045 0 1 0 0 0 1 51 342 415 0
 313 336 344 0 +-.012 .001 .0045 0 0 -1 5e-4 -1 0 0 14 313 320 345 ?109 317 311
 5 342 +0 0 109 317 22 53 344 414 0 317 342 346 0 +-.012 .001 -.004 5e-4 0 0 1 1
 0 0 14 317 318 347 ?313 310 315 5 344 +0 0 313 310 22 53 346 413 0 310 344 348
 0 +-.012 .001 .004 5e-4 0 0 1 1 0 0 14 310 316 349 ?317 350 309 5 346 +0 0 317
 350 22 51 348 412 0 350 346 351 0 +-.012 .0095 -.004 192747052886312e-30 -1 0 5
e-4 1 192747052886312e-30 0 14 350 314 352 ?310 320 353 5 348 +0 0 310 320 22 51
 351 411 0 320 348 354 0 +-.0125 .001 -.004 1 0 0 5e-4 0 0 -1 14 320 312 355 ?35
0 264 319 5 351 +0 0 350 264 22 51 354 410 0 264 351 356 0 +0 .001 .004 -1 0 0 5
e-4 0 0 1 14 264 310 357 ?320 308 263 5 354 +0 0 320 308 22 51 356 409 0 308 354
 331 0 +-.012 -2312964634635745e-33 .004 -192747052886312e-30 1 0 5e-4 -1 -19274
7052886312e-30 0 14 308 308 358 ?264 324 306 5 356 +0 0 264 324 22 53 331 408 0
 324 356 325 0 +-.012 .009 -.004 5e-4 0 0 1 1 0 0 81 1 358 919 326 308 359 0 357
 360 361 80 1 326 362 363 9000 1 1 1 1 1 1 1 1 0 FFFFTFTFFFFFFF1 81 1 359 823 36
4 308 0 358 365 366 367 81 1 357 918 326 264 366 0 355 358 368 81 1 360 920 326
 109 369 0 358 370 371 82 1 361 -1976303463 14 109 574 360 ?372 313 106 5 373 +0
 0 372 313 22 81 1 369 830 364 109 0 360 374 375 376 81 1 370 921 326 372 375 0
 360 377 378 82 1 371 -1432092514 14 372 593 370 ?379 109 110 5 380 +0 0 379 109
 22 81 1 375 831 364 372 0 370 369 381 382 81 1 377 922 326 379 381 0 370 383 38
4 82 1 378 -1435369314 14 379 589 377 ?385 372 386 5 387 +0 0 385 372 22 81 1 38
1 832 364 379 0 377 375 388 389 81 1 383 923 326 385 388 0 377 390 391 82 1 384
 -1435762530 14 385 567 383 ?392 379 393 5 394 +392 392 392 379 22 81 1 388 833
 364 385 0 383 381 395 396 81 1 390 924 326 392 395 0 383 397 398 82 1 391 -1410
727778 14 392 563 390 ?399 385 400 5 394 +385 385 401 385 22 81 1 395 834 364 39
2 0 390 388 402 403 81 1 397 925 326 399 402 0 390 404 405 82 1 398 -1410203490
 14 399 571 397 ?406 392 407 5 408 -0 0 0 406 22 81 1 402 835 364 399 0 397 395
 409 410 81 1 404 926 326 406 409 0 397 411 412 82 1 405 -1432944482 14 406 577
 404 ?401 399 413 5 414 +0 0 399 401 22 81 1 409 836 364 406 0 404 402 415 416 8
1 1 411 927 326 401 415 0 404 417 418 82 1 412 -1436942178 14 401 581 411 ?0 406
 419 5 420 +0 0 406 392 22 81 1 415 837 364 401 0 411 409 0 421 81 1 417 928 326
 305 422 0 411 423 424 82 1 418 -1436548962 14 305 300 417 ?260 301 304 5 425 +0
 0 260 301 22 81 1 422 819 364 305 0 417 426 427 428 81 1 423 929 326 301 426 0
 417 429 430 82 1 424 -1972698983 14 301 298 423 ?305 297 299 5 431 +0 0 305 297
 22 81 1 426 818 364 301 0 423 432 422 433 81 1 429 930 326 297 432 0 423 434 43
5 82 1 430 -1971847015 14 297 294 429 ?301 287 295 5 436 +0 0 301 287 22 81 1 43
2 817 364 297 0 429 437 426 438 81 1 434 931 326 287 437 0 429 439 440 82 1 435
 -1971060583 14 287 292 434 ?297 276 286 5 441 +0 0 297 276 22 81 1 437 816 364
 287 0 434 442 432 443 81 1 439 932 326 276 442 0 434 444 445 82 1 440 -19699464
71 14 276 290 439 ?287 257 273 5 446 +0 0 287 257 22 81 1 442 815 364 276 0 439
 447 437 448 81 1 444 933 326 257 447 0 439 449 450 82 1 445 -1968832359 14 257
 288 444 ?276 246 255 5 451 +0 0 276 246 22 81 1 447 814 364 257 0 444 452 442 4
53 81 1 449 934 326 246 452 0 444 454 455 82 1 450 -1968439143 14 246 284 449 ?2
57 284 245 5 456 +0 0 257 284 22 81 1 452 813 364 246 0 449 457 447 458 81 1 454
 935 326 284 457 0 449 459 460 82 1 455 -1966997351 14 284 282 454 ?246 241 281
 5 461 +0 0 246 241 22 81 1 457 812 364 284 0 454 462 452 463 81 1 459 936 326 2
41 462 0 454 464 465 82 1 460 -1965883239 14 241 280 459 ?284 17 237 5 18 +0 0 2
84 17 22 81 1 462 811 364 241 0 459 466 457 467 81 1 464 937 326 17 466 0 459 46
8 469 82 1 465 -1965490023 14 17 276 464 ?241 291 243 5 6 +0 0 241 291 22 81 1 4
66 810 364 17 0 464 470 462 471 81 1 468 938 326 291 470 0 464 472 473 82 1 469
 -1964703591 14 291 43 468 ?17 251 290 5 474 -0 0 17 251 22 81 1 470 809 364 291
 0 468 475 466 476 81 1 472 939 326 251 475 0 468 477 478 82 1 473 -1993408359 1
4 251 1 472 ?291 298 250 5 479 +0 0 291 298 22 81 1 475 808 364 251 0 472 480 47
0 481 81 1 477 940 326 298 480 0 472 482 483 82 1 478 -1999044455 14 298 79 477
 ?251 279 28 5 484 -0 0 251 279 22 81 1 480 807 364 298 0 477 485 475 486 81 1 4
82 941 326 279 485 0 477 0 487 82 1 483 -1992490855 14 279 81 482 ?298 269 488 5
 343 -0 0 298 269 22 81 1 485 806 364 279 0 482 489 480 490 82 1 487 -1992228706
 80 1 364 0 491 8001 0 0 0 0 3 5 0 0 0 FFFFTFTFFFFFFF2 81 1 489 805 364 269 0 33
8 337 485 492 83 3 490 1 1 1 81 1 338 912 326 269 489 0 334 345 493 81 1 337 804
 364 15 0 334 0 489 494 83 3 492 1 1 1 83 3 494 1 1 1 81 1 345 913 326 313 374 0
 338 347 495 82 1 493 -1991966567 81 1 374 829 364 313 0 345 496 369 497 81 1 34
7 914 326 317 496 0 345 349 498 82 1 495 -1982988135 81 1 496 828 364 317 0 347
 499 374 500 81 1 349 915 326 310 499 0 347 352 501 82 1 498 -1981415271 81 1 49
9 827 364 310 0 349 502 496 503 81 1 352 916 326 350 502 0 349 355 504 82 1 501
 -1980563303 81 1 502 826 364 350 0 352 505 499 506 81 1 355 917 326 320 505 0 3
52 357 507 82 1 504 -1979711335 81 1 505 825 364 320 0 355 366 502 508 82 1 507
 -1978531687 81 1 366 824 364 264 0 357 359 505 509 83 3 508 1 1 1 83 3 509 1 1
 1 83 3 506 1 1 1 83 3 503 1 1 1 83 3 500 1 1 1 83 3 497 1 1 1 79 15 491 SDL/TYS
A_COLOUR15 488 539 0 113 279 278 50 343 87 0 279 484 340 0 +.0125 .0095 .0045 -1
 -192747052886312e-30 0 192747052886312e-30 -1 0 50 484 86 0 298 474 343 0 +-.01
25 .0095 .0045 1387778780781446e-31 -1 0 1 1387778780781446e-31 0 50 474 65 0 29
1 479 484 0 +0 0 -.0045 0 0 1 1 0 0 50 479 2 0 251 408 474 0 +0 0 .0045 0 0 1 1
 0 0 50 408 599 0 399 373 479 0 +-.01524 -.002 0 0 1 0 0 0 1 50 373 600 0 109 38
0 408 0 +.01524 -.002 0 0 -1 0 0 0 1 51 380 601 0 372 387 373 0 +.01524 .00425 0
 0 -1 0 4e-4 0 0 -1 54 387 602 0 379 394 380 0 +.01449 .00425 0 0 0 -1 75e-5 4e-
4 -1 0 0 51 394 603 0 392 420 387 0 +-.01449 .005 0 1 0 0 4e-4 0 0 -1 54 420 604
 0 401 414 394 0 +-.01449 .00425 0 0 0 -1 75e-5 4e-4 -1 0 0 51 414 605 0 406 0 4
20 0 +-.01524 -.002 0 0 1 0 4e-4 0 0 1 17 113 0 488 113 113 0 510 19 0 0 +17 510
 0 511 510 510 0 113 19 0 0 -15 511 570 0 510 385 0 83 3 486 1 1 1 83 3 481 1 1
 1 83 3 476 1 1 1 83 3 471 1 1 1 83 3 467 1 1 1 53 18 397 0 241 461 6 0 +.012 .0
09 .004 5e-4 0 0 1 1 0 0 53 461 398 0 284 456 18 0 +.012 .009 -.004 5e-4 0 0 1 1
 0 0 51 456 399 0 246 451 461 0 +-12490009027033e-31 .009 .004 1 138777878078144
6e-31 0 5e-4 -1387778780781446e-31 1 0 51 451 400 0 257 446 456 0 +.012 23129646
3463574e-32 .004 192747052886312e-30 -1 0 5e-4 1 192747052886312e-30 0 51 446 40
1 0 276 441 451 0 +.012 .001 .0045 0 0 -1 5e-4 -1 0 0 51 441 402 0 287 436 446 0
 +.012 .0095 -.004 -192747052886312e-30 1 0 5e-4 -1 -192747052886312e-30 0 51 43
6 403 0 297 431 441 0 +-.0125 .009 -.004 -1 -1387778780781446e-31 0 5e-4 1387778
780781446e-31 -1 0 51 431 404 0 301 425 436 0 +-.012 .009 .0045 0 0 -1 5e-4 -1 0
 0 53 425 405 0 305 333 431 0 +-.012 .009 .004 5e-4 0 0 1 1 0 0 53 333 406 0 260
 325 425 0 +.012 .001 .004 5e-4 0 0 1 1 0 0 83 3 463 1 1 1 83 3 458 1 1 1 83 3 4
53 1 1 1 83 3 448 1 1 1 83 3 443 1 1 1 83 3 438 1 1 1 83 3 433 1 1 1 81 1 427 82
0 364 260 0 332 422 327 512 83 3 428 1 1 1 81 1 332 910 326 260 427 0 328 334 51
3 81 1 327 821 364 322 0 323 427 365 514 83 3 512 1 1 1 81 1 365 822 364 324 0 3
28 327 359 515 83 3 514 1 1 1 81 1 328 909 326 324 365 0 323 332 516 83 3 515 1
 1 1 82 1 516 -1975189351 82 1 513 -1973550951 83 3 421 .8 .811764705882353 .8 1
5 419 583 0 517 401 518 17 517 0 419 517 517 0 519 520 0 0 -15 518 584 0 521 401
 0 17 521 0 518 521 521 0 522 523 0 0 +17 522 0 413 522 522 0 521 523 0 0 -16 52
3 556 0 ?521 520 524 525 0 0 1 16 520 551 0 ?519 116 523 526 0 0 1 16 524 554 0
 ?527 523 0 528 0 0 1 31 525 611 0 523 528 526 0 +-.01524 .00425 0 0 1 0 0 0 1 4
e-4 31 528 612 0 524 0 525 0 +-.01524 -.002 0 0 1 0 0 0 1 4e-4 31 526 610 0 520
 525 119 0 +-.01449 .005 0 1 0 0 0 0 1 4e-4 31 119 609 0 116 526 117 0 +.01449 .
005 0 1 0 0 0 0 1 4e-4 16 116 559 0 ?529 111 520 119 0 0 1 17 529 0 530 529 529
 0 531 116 0 0 +15 530 592 0 529 379 0 17 531 0 393 531 531 0 529 116 0 0 -15 39
3 569 0 531 385 511 17 527 0 532 527 527 101 103 524 0 0 +15 532 580 0 527 406 0
 17 103 0 407 103 103 101 527 524 0 527 -15 407 573 0 103 399 0 17 519 0 400 519
 519 0 517 520 0 0 +15 400 565 0 519 392 533 15 533 566 0 534 392 0 17 534 0 533
 534 534 0 121 114 0 0 -17 121 0 335 121 121 0 534 114 0 0 +15 413 579 0 522 406
 532 83 3 416 .8 .811764705882353 .8 83 3 410 .8 .811764705882353 .8 83 3 403 .8
 .811764705882353 .8 83 3 396 .8 .811764705882353 .8 83 3 389 .8 .81176470588235
3 .8 15 386 591 0 535 379 530 17 535 0 386 535 535 0 115 111 0 0 -17 115 0 536 1
15 115 0 535 111 0 0 +15 536 596 0 115 372 0 83 3 382 .8 .811764705882353 .8 15
 110 595 0 107 372 536 83 3 376 .8 .811764705882353 .8 82 1 368 -1977417575 83 3
 367 1 1 1 79 14 363 SWEntUnchanged15 353 315 0 189 350 0 17 189 0 353 294 537 6
2 303 187 0 0 +17 294 0 353 318 189 56 64 153 0 159 -17 537 0 353 189 318 83 79
 137 0 0 -17 303 0 330 201 204 83 189 187 0 537 -15 330 307 0 201 324 0 17 201 0
 330 204 303 32 300 199 0 0 +17 204 0 330 303 201 62 296 202 0 189 +17 318 0 353
 537 294 77 58 176 0 312 -17 79 0 341 141 85 77 537 137 0 318 +15 341 164 0 79 1
5 0 17 141 0 341 88 79 80 312 139 0 0 +17 85 0 341 79 88 83 302 133 0 300 +17 88
 0 341 85 141 86 307 135 0 302 +82 1 339 -1991704418 82 1 329 -1974402919 17 31
 0 243 240 280 11 23 10 0 236 -19 16 95 0 1 0 9 5 S74 20 14 3 0 0 482 2 415 0 0
 0 0 0 0 0 0 0 0 0 0 0 0 0 0 0 80 2 12 538 539 8004 0 0 0 0 3 5 0 0 0 FFTFFFFFFF
FFFF2 3 83 1 13 1 79 16 539 SDL/TYSA_DENSITY1 0 
