**ABCDEFGHIJKLMNOPQRSTUVWXYZabcdefghijklmnopqrstuvwxyz**************************
**PARASOLID !"#$%&'()*+,-./:;<=>?@[\]^_`{|}~0123456789**************************
**PART1;
MC=AMD64;
MC_MODEL=Intel64 Family 6 Model 158 Stepping 13, GenuineIntel;
MC_ID=unknown;
OS=Windows_NT;
OS_RELEASE=unknown;
FRU=Parasolid Version 30.0, build 310,  6- 8-2018;
APPL=SOLIDWORKS 2018-2018316;
SITE=;
USER=unknown;
FORMAT=text;
GUISE=transmit;
KEY=R_Power_L20.0_W6.4_P22.00_Horizontal;
FILE=R_Power_L20.0_W6.4_P22.00_Horizontal.x_t;
DATE=Sat Mar  2 12:45:42 2024;
**PART2;
SCH=SCH_3000310_30000;
USFLD_SIZE=0;
**PART3;
**END_OF_HEADER*****************************************************************
T51 : TRANSMIT FILE created by modeller version 300031017 SCH_2000000_200000 12
 1 1047 2 3 0 0 0 0 1e3 1e-8 0 4 0 1 0 1 1 5 6 7 8 9 10 11 0 0 0 0 81 2 2 810 12
 1 0 0 0 0 13 0 70 3 0 4 T1 0 0 3 20 1 14 14 13 5 94 0 1 0 15 0 0 16 0 51 6 397
 0 17 18 0 0 +.0095 .0064 .0032 0 0 -1 5e-4 -1 0 0 31 7 671 0 19 20 0 0 +.01 .00
37 0 -1 0 0 0 0 1 325e-6 29 8 257 0 11 21 0 .0095 .0069 .0027 19 9 28 0 1 16 0 2
2 V16 10 259 0 ?23 0 24 25 0 0 1 18 11 255 0 26 0 27 8 ?1 17 26 0 28 23 29 11 30
 24 0 31 +18 27 251 0 29 11 32 21 ?1 17 29 0 28 26 33 27 34 35 0 30 +18 32 247 0
 33 27 36 37 ?1 29 21 253 0 27 37 8 -.0095 .0069 .0027 29 37 249 0 32 38 21 -.00
95 .0069 -.0027 29 38 246 0 36 39 37 .0095 .0069 -.0027 18 36 244 0 40 32 41 38
 ?1 29 39 237 0 41 42 38 .0095 .001 .0032 18 41 235 0 43 36 44 39 ?1 29 42 233 0
 44 45 39 -.0095 .001 .0032 18 44 231 0 46 41 47 42 ?1 29 45 229 0 47 48 42 -.00
95 .0064 .0032 18 47 227 0 49 44 50 45 ?1 29 48 226 0 50 51 45 .0095 .0064 .0032
 18 50 224 0 52 47 53 48 ?1 29 51 217 0 53 54 48 .0095 .001 -.0032 18 53 215 0 5
5 50 56 51 ?1 29 54 213 0 56 57 51 -.0095 .001 -.0032 18 56 211 0 58 53 59 54 ?1
 29 57 209 0 59 60 54 .0095 .0064 -.0032 18 59 207 0 61 56 62 57 ?1 29 60 206 0
 62 63 57 -.0095 .0064 -.0032 18 62 204 0 64 59 65 60 ?1 29 63 197 0 65 66 60 .0
1 .001 -.0027 18 65 195 0 67 62 68 63 ?1 29 66 193 0 68 69 63 .01 .001 .0027 18
 68 191 0 70 65 71 66 ?1 29 69 189 0 71 72 66 .01 .0064 .0027 18 71 187 0 73 68
 74 69 ?1 29 72 186 0 74 75 69 .01 .0064 -.0027 18 74 184 0 76 71 77 72 ?1 29 75
 177 0 77 78 72 -.01 .001 -.0027 18 77 175 0 79 74 80 75 ?1 29 78 173 0 80 81 75
 -.01 .001 .0027 18 80 171 0 82 77 83 78 ?1 29 81 169 0 83 84 78 -.01 .0064 -.00
27 18 83 167 0 85 80 86 81 ?1 29 84 166 0 86 87 81 -.01 .0064 .0027 18 86 164 0
 88 83 89 84 ?1 29 87 157 0 89 90 84 -.0095 5e-4 -.0027 18 89 155 0 91 86 92 87
 ?1 29 90 153 0 92 93 87 .0095 5e-4 -.0027 18 92 151 0 94 89 95 90 ?1 29 93 149
 0 95 96 90 -.0095 5e-4 .0027 18 95 147 0 97 92 98 93 ?1 29 96 146 0 98 99 93 .0
095 5e-4 .0027 18 98 144 0 100 95 101 96 ?1 29 99 745 0 101 102 96 -.011 -.002 3
25e-6 18 101 693 0 103 98 104 99 ?1 29 102 746 0 104 0 99 .011 -.002 325e-6 18 1
04 694 0 105 101 0 102 ?1 17 105 0 106 105 105 104 107 108 0 107 +15 106 708 0 1
05 109 0 17 107 0 110 107 107 104 105 108 0 0 -16 108 684 0 ?105 19 111 112 0 0
 1 16 19 690 0 ?113 114 108 7 0 0 1 16 111 692 0 ?115 108 116 117 0 0 1 31 112 7
39 0 108 117 118 0 +.011 -.002 0 0 -1 0 0 0 1 325e-6 31 117 740 0 111 119 112 0
 +.011 .00295 0 0 -1 0 0 0 1 325e-6 31 118 738 0 114 112 120 0 +-.01 .0037 0 1 0
 0 0 0 -1 325e-6 16 114 689 0 ?121 122 19 118 0 0 1 30 120 150 0 123 118 124 0 -
-.01 5e-4 .0027 1 0 0 16 123 148 0 ?97 125 126 120 0 0 1 30 124 154 0 125 120 12
7 0 -.0095 5e-4 .0032 0 0 -1 16 125 152 0 ?100 128 123 124 0 0 1 30 127 158 0 12
8 124 129 0 +-.0095 5e-4 .0032 0 0 -1 16 128 156 0 ?130 131 125 127 0 0 1 30 129
 161 0 131 127 132 0 +-.01 5e-4 -.0027 1 0 0 16 131 159 0 ?94 133 128 129 0 0 1
 30 132 170 0 133 129 134 0 +-.01 .0064 .0032 0 0 -1 16 133 168 0 ?85 135 131 13
2 0 0 1 30 134 174 0 135 132 136 0 --.01 .0069 .0027 0 -1 0 16 135 172 0 ?88 137
 133 134 0 0 1 30 136 178 0 137 134 138 0 +-.01 .0069 -.0027 0 -1 0 16 137 176 0
 ?79 139 135 136 0 0 1 30 138 181 0 139 136 140 0 --.01 .001 .0032 0 0 -1 16 139
 179 0 ?141 142 137 138 0 0 1 30 140 190 0 142 138 143 0 -.01 .0064 .0032 0 0 -1
 16 142 188 0 ?73 144 139 140 0 0 1 30 143 194 0 144 140 145 0 -.01 5e-4 .0027 0
 1 0 16 144 192 0 ?70 146 142 143 0 0 1 30 145 198 0 146 143 147 0 +.01 .0069 -.
0027 0 1 0 16 146 196 0 ?76 148 144 145 0 0 1 30 147 201 0 148 145 149 0 +.01 .0
01 .0032 0 0 -1 16 148 199 0 ?150 151 146 147 0 0 1 30 149 210 0 151 147 152 0 -
-832667268468868e-33 .0064 -.0032 -1 -1301042606982604e-31 0 16 151 208 0 ?61 15
3 148 149 0 0 1 30 152 214 0 153 149 154 0 --.0095 0 -.0032 0 -1 0 16 153 212 0
 ?64 155 151 152 0 0 1 30 154 218 0 155 152 156 0 -.0095 0 -.0032 0 1 0 16 155 2
16 0 ?55 157 153 154 0 0 1 30 156 221 0 157 154 158 0 -0 .001 -.0032 1 0 0 16 15
7 219 0 ?159 160 155 156 0 0 1 30 158 230 0 160 156 161 0 +-.01 .0064 .0032 -1 -
1301042606982604e-31 0 16 160 228 0 ?49 162 157 158 0 0 1 30 161 234 0 162 158 1
63 0 +-.0095 5e-4 .0032 0 -1 0 16 162 232 0 ?46 164 160 161 0 0 1 30 163 238 0 1
64 161 165 0 +.01 .001 .0032 1 0 0 16 164 236 0 ?43 166 162 163 0 0 1 30 165 241
 0 166 163 167 0 +.0095 .0069 .0032 0 1 0 16 166 239 0 ?168 169 164 165 0 0 1 30
 167 250 0 169 165 170 0 +-.01 .0069 -.0027 -1 -1301042606982604e-31 0 16 169 24
8 0 ?33 35 166 167 0 0 1 30 170 254 0 35 167 171 0 --.0095 .0069 .0032 0 0 -1 16
 35 252 0 ?29 24 169 170 0 0 1 30 171 258 0 24 170 25 0 -.01 .0069 .0027 -1 -130
1042606982604e-31 0 16 24 256 0 ?26 10 35 171 0 0 1 30 25 261 0 10 171 172 0 +.0
095 .0069 .0032 0 0 -1 31 172 440 0 122 25 173 0 --.0095 .001 -.0027 0 0 -1 -1 0
 0 5e-4 16 122 372 0 ?91 174 114 172 0 0 1 31 173 439 0 174 172 175 0 --.0095 .0
01 .0027 0 0 1 1 0 0 5e-4 16 174 370 0 ?82 176 122 173 0 0 1 31 175 438 0 176 17
3 177 0 +-.0095 .001 -.0027 0 -1 0 0 0 -1 5e-4 16 176 368 0 ?58 178 174 175 0 0
 1 31 177 437 0 178 175 179 0 +-.0095 .001 -.0027 -1 0 0 0 0 1 5e-4 16 178 367 0
 ?180 181 176 177 0 0 1 31 179 436 0 181 177 182 0 +-.0095 .001 .0027 -1 0 0 0 0
 1 5e-4 16 181 366 0 ?183 184 178 179 0 0 1 31 182 435 0 184 179 185 0 +-.0095 .
001 .0027 0 -1 0 0 0 -1 5e-4 16 184 365 0 ?186 187 181 182 0 0 1 31 185 434 0 18
7 182 188 0 --.0095 .0064 -.0027 0 1 0 0 0 1 5e-4 16 187 363 0 ?189 190 184 185
 0 0 1 31 188 433 0 190 185 191 0 -.0095 .001 -.0027 1 0 0 0 0 -1 5e-4 16 190 36
0 0 ?192 193 187 188 0 0 1 31 191 432 0 193 188 194 0 -.0095 .001 .0027 1 0 0 0
 0 -1 5e-4 16 193 357 0 ?195 196 190 191 0 0 1 31 194 431 0 196 191 197 0 --.009
5 .0064 .0027 0 1 0 0 0 1 5e-4 16 196 354 0 ?198 199 193 194 0 0 1 31 197 430 0
 199 194 200 0 +-.0095 .0064 -.0027 0 0 -1 -1 0 0 5e-4 16 199 352 0 ?201 202 196
 197 0 0 1 31 200 429 0 202 197 203 0 +-.0095 .0064 -.0027 -1 0 0 0 0 1 5e-4 16
 202 351 0 ?204 205 199 200 0 0 1 31 203 428 0 205 200 206 0 +.0095 .001 -.0027
 0 -1 0 0 0 -1 5e-4 16 205 350 0 ?67 207 202 203 0 0 1 31 206 427 0 207 203 208
 0 +.0095 .001 -.0027 0 0 -1 -1 0 0 5e-4 16 207 349 0 ?209 210 205 206 0 0 1 31
 208 426 0 210 206 211 0 +.0095 .001 .0027 0 0 1 1 0 0 5e-4 16 210 348 0 ?212 21
3 207 208 0 0 1 31 211 425 0 213 208 214 0 +.0095 .001 .0027 0 -1 0 0 0 -1 5e-4
 16 213 347 0 ?215 216 210 211 0 0 1 31 214 424 0 216 211 217 0 +-.0095 .0064 .0
027 -1 0 0 0 0 1 5e-4 16 216 346 0 ?218 219 213 214 0 0 1 31 217 423 0 219 214 2
20 0 +-.0095 .0064 .0027 0 0 1 1 0 0 5e-4 16 219 345 0 ?221 222 216 217 0 0 1 31
 220 422 0 222 217 223 0 -.0095 .0064 -.0027 1 0 0 0 0 -1 5e-4 16 222 341 0 ?224
 225 219 220 0 0 1 31 223 421 0 225 220 226 0 -.0095 .0064 -.0027 0 1 0 0 0 1 5e
-4 16 225 338 0 ?227 228 222 223 0 0 1 31 226 420 0 228 223 229 0 -.0095 .0064 .
0027 0 1 0 0 0 1 5e-4 16 228 333 0 ?230 231 225 226 0 0 1 31 229 419 0 231 226 2
32 0 -.0095 .0064 .0027 1 0 0 0 0 -1 5e-4 16 231 330 0 ?233 234 228 229 0 0 1 31
 232 418 0 234 229 20 0 +.0095 .0064 -.0027 0 0 -1 -1 0 0 5e-4 16 234 328 0 ?235
 126 231 232 0 0 1 31 20 417 0 126 232 7 0 +.0095 .0064 .0027 0 0 1 1 0 0 5e-4 1
6 126 327 0 ?236 123 234 20 0 0 1 17 236 0 237 238 239 11 240 126 0 233 +15 237
 282 0 239 241 0 17 238 0 237 239 236 50 233 231 0 230 -17 239 0 237 236 238 71
 230 228 0 242 -17 240 0 243 244 31 71 236 126 0 239 -17 233 0 245 30 52 11 238
 231 0 0 +15 245 286 0 233 246 0 17 30 0 245 247 233 27 26 24 0 248 -17 52 0 245
 233 247 50 49 160 0 238 -17 247 0 245 52 30 47 218 216 0 249 -17 49 0 250 46 16
8 47 52 160 0 247 +15 250 225 0 43 251 0 17 46 0 250 43 49 44 252 162 0 253 +17
 168 0 250 49 43 50 254 166 0 0 +17 43 0 250 168 46 41 253 164 0 254 +17 254 0 2
55 256 230 41 168 166 0 215 -15 255 290 0 230 257 0 17 256 0 255 242 254 68 215
 213 0 212 -17 230 0 255 254 242 50 239 228 0 168 +17 215 0 258 259 212 41 256 2
13 0 195 +15 258 304 0 212 260 0 17 259 0 258 212 215 98 195 193 0 261 -17 212 0
 258 215 259 68 262 210 0 0 +17 195 0 263 253 261 41 259 193 0 0 +15 263 312 0 1
95 264 0 17 253 0 263 265 195 44 43 164 0 266 -17 261 0 263 195 265 98 97 123 0
 0 -17 265 0 263 261 253 95 183 181 0 267 -17 97 0 268 130 100 95 261 123 0 265
 +15 268 145 0 130 269 0 17 130 0 268 94 97 89 270 128 0 0 +17 100 0 268 97 94 9
8 271 125 0 262 +17 94 0 268 100 130 92 272 131 0 271 +17 271 0 273 274 262 92 1
00 125 0 209 -17 262 0 273 271 275 98 212 210 0 259 -15 273 292 0 274 276 0 17 2
75 0 273 262 274 68 150 148 0 256 -17 274 0 273 275 271 65 209 207 0 277 -17 150
 0 278 76 70 65 275 148 0 0 +15 278 185 0 70 279 0 17 76 0 278 73 150 74 277 146
 0 244 +17 70 0 278 150 73 68 242 144 0 275 +17 73 0 278 70 76 71 244 142 0 240
 +17 242 0 255 230 256 71 70 144 0 0 -17 244 0 243 280 240 74 73 142 0 235 -15 2
43 278 0 240 17 0 17 280 0 243 31 244 36 235 234 0 23 -17 235 0 281 282 283 74 2
80 234 0 227 +15 281 284 0 283 284 0 17 282 0 281 283 235 59 227 225 0 285 -17 2
83 0 281 235 282 36 224 222 0 280 -17 227 0 286 277 285 74 282 225 0 0 +15 286 2
94 0 227 287 0 17 277 0 286 288 227 65 76 146 0 150 -17 285 0 286 227 288 59 55
 155 0 0 -17 288 0 286 285 277 53 67 205 0 289 -17 55 0 290 159 61 53 285 155 0
 288 +15 290 205 0 55 291 0 17 159 0 290 64 55 56 292 157 0 0 +17 61 0 290 55 64
 59 293 151 0 224 +17 64 0 290 61 159 62 294 153 0 293 +17 293 0 295 296 224 62
 61 151 0 204 -17 224 0 295 293 40 59 283 222 0 282 +15 295 296 0 224 297 0 17 4
0 0 295 224 296 36 33 169 0 283 -17 296 0 295 40 293 32 204 202 0 201 -17 33 0 2
8 29 23 32 40 169 0 34 +15 28 245 0 26 298 0 17 23 0 28 33 26 36 31 10 0 0 +17 3
4 0 299 300 248 32 29 35 0 296 -15 299 300 0 248 301 0 17 300 0 299 302 34 83 20
1 199 0 303 -17 248 0 299 34 302 27 221 219 0 218 -17 302 0 299 248 300 86 85 13
3 0 221 -17 221 0 304 249 218 86 248 219 0 198 +17 218 0 304 221 249 27 247 216
 0 0 +15 304 302 0 218 305 0 17 249 0 304 218 221 47 198 196 0 252 -17 198 0 306
 307 252 86 249 196 0 0 +17 252 0 306 198 266 47 46 162 0 0 -15 306 310 0 198 30
8 0 17 266 0 306 252 307 44 186 184 0 183 -17 307 0 306 266 198 80 88 135 0 141
 -17 186 0 309 267 183 80 266 184 0 307 +17 183 0 309 186 267 44 265 181 0 0 +15
 309 318 0 183 310 0 17 267 0 309 183 186 95 82 174 0 270 -17 82 0 311 312 270 8
0 267 174 0 186 +17 270 0 311 82 91 95 130 128 0 0 -15 311 322 0 82 313 0 17 91
 0 311 270 312 89 314 122 0 180 +17 312 0 311 91 82 77 141 139 0 314 -17 314 0 3
15 58 180 77 91 122 0 0 -17 180 0 315 314 58 89 316 178 0 272 +15 315 320 0 58 3
17 0 17 58 0 315 180 314 56 318 176 0 316 +17 316 0 319 292 272 56 180 178 0 294
 -17 272 0 319 316 192 89 94 131 0 130 -15 319 314 0 192 320 0 17 192 0 319 272
 292 92 289 190 0 0 +17 292 0 319 192 316 53 159 157 0 0 -17 289 0 321 67 209 53
 192 190 0 292 -15 321 306 0 67 322 0 17 67 0 321 209 289 65 288 205 0 274 +17 2
09 0 321 289 67 92 274 207 0 192 +14 322 305 323 ?324 260 321 5 325 +0 0 324 260
 22 81 1 323 1014 326 322 327 0 0 328 329 14 324 307 328 ?308 322 330 5 331 +0 0
 308 322 22 14 260 303 332 ?322 305 258 5 333 +0 0 322 305 22 53 325 408 0 322 3
31 333 0 +.0095 .001 -.0027 5e-4 0 0 1 1 0 0 13 22 29 0 0 0 0 0 0 9 15 14 15 85
 334 ?269 0 335 5 336 -0 0 269 0 22 81 1 334 1017 326 15 337 0 332 338 339 14 26
9 83 338 ?279 15 268 5 340 -0 0 279 15 22 15 335 676 0 121 15 341 50 336 89 0 15
 340 342 0 +-.01 .0069 .0032 1 0 0 0 0 -1 50 340 88 0 269 343 336 0 +-.01 5e-4 .
0032 0 1 0 0 0 1 51 342 416 0 313 336 344 0 +-.0095 .001 .0032 0 0 -1 5e-4 -1 0
 0 14 313 321 345 ?109 317 311 5 342 +0 0 109 317 22 53 344 415 0 317 342 346 0
 +-.0095 .001 -.0027 5e-4 0 0 1 1 0 0 14 317 319 347 ?313 310 315 5 344 +0 0 313
 310 22 53 346 414 0 310 344 348 0 +-.0095 .001 .0027 5e-4 0 0 1 1 0 0 14 310 31
7 349 ?317 350 309 5 346 +0 0 317 350 22 51 348 413 0 350 346 351 0 +-.0095 .006
9 -.0027 0 -1 0 5e-4 0 0 -1 14 350 315 352 ?310 320 353 5 348 +0 0 310 320 22 51
 351 412 0 320 348 354 0 +-.01 .001 -.0027 1 0 0 5e-4 0 0 -1 14 320 313 355 ?350
 264 319 5 351 +0 0 350 264 22 51 354 411 0 264 351 356 0 +0 .001 .0027 -1 0 0 5
e-4 0 0 1 14 264 311 357 ?320 308 263 5 354 +0 0 320 308 22 51 356 410 0 308 354
 331 0 +-.0095 0 .0027 0 1 0 5e-4 0 0 1 14 308 309 358 ?264 324 306 5 356 +0 0 2
64 324 22 53 331 409 0 324 356 325 0 +-.0095 .0064 -.0027 5e-4 0 0 1 1 0 0 81 1
 358 1025 326 308 359 0 357 360 361 80 1 326 362 363 9000 1 1 1 1 1 1 1 1 0 FFFF
TFTFFFFFFF1 81 1 359 929 364 308 0 358 365 366 367 81 1 357 1024 326 264 366 0 3
55 358 368 81 1 360 1026 326 109 369 0 358 370 371 82 1 361 -1721892759 14 109 7
06 360 ?372 313 106 5 373 +0 0 372 313 22 81 1 369 936 364 109 0 360 374 375 376
 81 1 370 1027 326 372 375 0 360 377 378 82 1 371 766312558 14 372 725 370 ?379
 109 110 5 380 +0 0 379 109 22 81 1 375 937 364 372 0 370 369 381 382 81 1 377 1
028 326 379 381 0 370 383 384 82 1 378 763035758 14 379 721 377 ?385 372 386 5 3
87 +0 0 385 372 22 81 1 381 938 364 379 0 377 375 388 389 81 1 383 1029 326 385
 388 0 377 390 391 82 1 384 762642542 14 385 699 383 ?392 379 393 5 394 +392 392
 392 379 22 81 1 388 939 364 385 0 383 381 395 396 81 1 390 1030 326 392 395 0 3
83 397 398 82 1 391 787808366 14 392 695 390 ?399 385 400 5 394 +385 385 401 385
 22 81 1 395 940 364 392 0 390 388 402 403 81 1 397 1031 326 399 402 0 390 404 4
05 82 1 398 788332654 14 399 703 397 ?406 392 407 5 408 -0 0 0 406 22 81 1 402 9
41 364 399 0 397 395 409 410 81 1 404 1032 326 406 409 0 397 411 412 82 1 405 76
5460590 14 406 709 404 ?401 399 413 5 414 +0 0 399 401 22 81 1 409 942 364 406 0
 404 402 415 416 81 1 411 1033 326 401 415 0 404 417 418 82 1 412 761462894 14 4
01 713 411 ?0 406 419 5 420 +0 0 406 392 22 81 1 415 943 364 401 0 411 409 0 421
 81 1 417 1034 326 305 422 0 411 423 424 82 1 418 761856110 14 305 301 417 ?260
 301 304 5 425 +0 0 260 301 22 81 1 422 925 364 305 0 417 426 427 428 81 1 423 1
035 326 301 426 0 417 429 430 82 1 424 -1718288279 14 301 299 423 ?305 297 299 5
 431 +0 0 305 297 22 81 1 426 924 364 301 0 423 432 422 433 81 1 429 1036 326 29
7 432 0 423 434 435 82 1 430 -1717436311 14 297 295 429 ?301 287 295 5 436 +0 0
 301 287 22 81 1 432 923 364 297 0 429 437 426 438 81 1 434 1037 326 287 437 0 4
29 439 440 82 1 435 -1716649879 14 287 293 434 ?297 276 286 5 441 +0 0 297 276 2
2 81 1 437 922 364 287 0 434 442 432 443 81 1 439 1038 326 276 442 0 434 444 445
 82 1 440 -1715535767 14 276 291 439 ?287 257 273 5 446 +0 0 287 257 22 81 1 442
 921 364 276 0 439 447 437 448 81 1 444 1039 326 257 447 0 439 449 450 82 1 445
 -1714421655 14 257 289 444 ?276 246 255 5 451 +0 0 276 246 22 81 1 447 920 364
 257 0 444 452 442 453 81 1 449 1040 326 246 452 0 444 454 455 82 1 450 -1714028
439 14 246 285 449 ?257 284 245 5 456 +0 0 257 284 22 81 1 452 919 364 246 0 449
 457 447 458 81 1 454 1041 326 284 457 0 449 459 460 82 1 455 -1712586647 14 284
 283 454 ?246 241 281 5 461 +0 0 246 241 22 81 1 457 918 364 284 0 454 462 452 4
63 81 1 459 1042 326 241 462 0 454 464 465 82 1 460 -1711472535 14 241 281 459 ?
284 17 237 5 18 +0 0 284 17 22 81 1 462 917 364 241 0 459 466 457 467 81 1 464 1
043 326 17 466 0 459 468 469 82 1 465 -1711079319 14 17 277 464 ?241 291 243 5 6
 +0 0 241 291 22 81 1 466 916 364 17 0 464 470 462 471 81 1 468 1044 326 291 470
 0 464 472 473 82 1 469 -1710292887 14 291 43 468 ?17 251 290 5 474 -0 0 17 251
 22 81 1 470 915 364 291 0 468 475 466 476 81 1 472 1045 326 251 475 0 468 477 4
78 82 1 473 951386217 14 251 1 472 ?291 298 250 5 479 +0 0 291 298 22 81 1 475 9
14 364 251 0 472 480 470 481 81 1 477 1046 326 298 480 0 472 482 483 82 1 478 94
5750121 14 298 79 477 ?251 279 28 5 484 -0 0 251 279 22 81 1 480 913 364 298 0 4
77 485 475 486 81 1 482 1047 326 279 485 0 477 0 487 82 1 483 952303721 14 279 8
1 482 ?298 269 488 5 343 -0 0 298 269 22 81 1 485 912 364 279 0 482 489 480 490
 82 1 487 952565870 80 1 364 0 491 8001 0 0 0 0 3 5 0 0 0 FFFFTFTFFFFFFF2 81 1 4
89 911 364 269 0 338 337 485 492 83 3 490 1 1 1 81 1 338 1018 326 269 489 0 334
 345 493 81 1 337 910 364 15 0 334 0 489 494 83 3 492 1 1 1 83 3 494 1 1 1 81 1
 345 1019 326 313 374 0 338 347 495 82 1 493 952828009 81 1 374 935 364 313 0 34
5 496 369 497 81 1 347 1020 326 317 496 0 345 349 498 82 1 495 -1728577431 81 1
 496 934 364 317 0 347 499 374 500 81 1 349 1021 326 310 499 0 347 352 501 82 1
 498 -1727004567 81 1 499 933 364 310 0 349 502 496 503 81 1 352 1022 326 350 50
2 0 349 355 504 82 1 501 -1726152599 81 1 502 932 364 350 0 352 505 499 506 81 1
 355 1023 326 320 505 0 352 357 507 82 1 504 -1725300631 81 1 505 931 364 320 0
 355 366 502 508 82 1 507 -1724120983 81 1 366 930 364 264 0 357 359 505 509 83
 3 508 1 1 1 83 3 509 1 1 1 83 3 506 1 1 1 83 3 503 1 1 1 83 3 500 1 1 1 83 3 49
7 1 1 1 79 15 491 SDL/TYSA_COLOUR15 488 669 0 113 279 278 50 343 87 0 279 484 34
0 0 +.01 .0069 .0032 -1 0 0 0 0 1 50 484 86 0 298 474 343 0 +-.01 .0069 .0032 13
01042606982604e-31 -1 0 1 1301042606982604e-31 0 50 474 65 0 291 479 484 0 +0 0
 -.0032 0 0 1 1 0 0 50 479 2 0 251 408 474 0 +0 0 .0032 0 0 1 1 0 0 50 408 731 0
 399 373 479 0 +-.011 -.002 0 0 1 0 0 0 1 50 373 732 0 109 380 408 0 +.011 -.002
 0 0 -1 0 0 0 1 51 380 733 0 372 387 373 0 +.011 .00295 0 0 -1 0 325e-6 0 0 -1 5
4 387 734 0 379 394 380 0 +.01025 .00295 0 0 0 -1 75e-5 325e-6 -1 0 0 51 394 735
 0 392 420 387 0 +-.01025 .0037 0 1 0 0 325e-6 0 0 -1 54 420 736 0 401 414 394 0
 +-.01025 .00295 0 0 0 -1 75e-5 325e-6 -1 0 0 51 414 737 0 406 0 420 0 +-.011 -.
002 0 0 1 0 325e-6 0 0 1 17 113 0 488 113 113 0 510 19 0 0 +17 510 0 511 510 510
 0 113 19 0 0 -15 511 702 0 510 385 0 83 3 486 1 1 1 83 3 481 1 1 1 83 3 476 1 1
 1 83 3 471 1 1 1 83 3 467 1 1 1 53 18 398 0 241 461 6 0 +.0095 .0064 .0027 5e-4
 0 0 1 1 0 0 53 461 399 0 284 456 18 0 +.0095 .0064 -.0027 5e-4 0 0 1 1 0 0 51 4
56 400 0 246 451 461 0 +-832667268468868e-33 .0064 .0027 1 1301042606982604e-31
 0 5e-4 -1301042606982604e-31 1 0 51 451 401 0 257 446 456 0 +.0095 0 .0027 0 -1
 0 5e-4 0 0 -1 51 446 402 0 276 441 451 0 +.0095 .001 .0032 0 0 -1 5e-4 -1 0 0 5
1 441 403 0 287 436 446 0 +.0095 .0069 -.0027 0 1 0 5e-4 0 0 1 51 436 404 0 297
 431 441 0 +-.01 .0064 -.0027 -1 -1301042606982604e-31 0 5e-4 1301042606982604e-
31 -1 0 51 431 405 0 301 425 436 0 +-.0095 .0064 .0032 0 0 -1 5e-4 -1 0 0 53 425
 406 0 305 333 431 0 +-.0095 .0064 .0027 5e-4 0 0 1 1 0 0 53 333 407 0 260 325 4
25 0 +.0095 .001 .0027 5e-4 0 0 1 1 0 0 83 3 463 1 1 1 83 3 458 1 1 1 83 3 453 1
 1 1 83 3 448 1 1 1 83 3 443 1 1 1 83 3 438 1 1 1 83 3 433 1 1 1 81 1 427 926 36
4 260 0 332 422 327 512 83 3 428 1 1 1 81 1 332 1016 326 260 427 0 328 334 513 8
1 1 327 927 364 322 0 323 427 365 514 83 3 512 1 1 1 81 1 365 928 364 324 0 328
 327 359 515 83 3 514 1 1 1 81 1 328 1015 326 324 365 0 323 332 516 83 3 515 1 1
 1 82 1 516 -1720778647 82 1 513 -1719140247 83 3 421 .8 .811764705882353 .8 15
 419 715 0 517 401 518 17 517 0 419 517 517 0 519 520 0 0 -15 518 716 0 521 401
 0 17 521 0 518 521 521 0 522 523 0 0 +17 522 0 413 522 522 0 521 523 0 0 -16 52
3 688 0 ?521 520 524 525 0 0 1 16 520 683 0 ?519 116 523 526 0 0 1 16 524 686 0
 ?527 523 0 528 0 0 1 31 525 743 0 523 528 526 0 +-.011 .00295 0 0 1 0 0 0 1 325
e-6 31 528 744 0 524 0 525 0 +-.011 -.002 0 0 1 0 0 0 1 325e-6 31 526 742 0 520
 525 119 0 +-.01025 .0037 0 1 0 0 0 0 1 325e-6 31 119 741 0 116 526 117 0 +.0102
5 .0037 0 1 0 0 0 0 1 325e-6 16 116 691 0 ?529 111 520 119 0 0 1 17 529 0 530 52
9 529 0 531 116 0 0 +15 530 724 0 529 379 0 17 531 0 393 531 531 0 529 116 0 0 -
15 393 701 0 531 385 511 17 527 0 532 527 527 101 103 524 0 0 +15 532 712 0 527
 406 0 17 103 0 407 103 103 101 527 524 0 527 -15 407 705 0 103 399 0 17 519 0 4
00 519 519 0 517 520 0 0 +15 400 697 0 519 392 533 15 533 698 0 534 392 0 17 534
 0 533 534 534 0 121 114 0 0 -17 121 0 335 121 121 0 534 114 0 0 +15 413 711 0 5
22 406 532 83 3 416 .8 .811764705882353 .8 83 3 410 .8 .811764705882353 .8 83 3
 403 .8 .811764705882353 .8 83 3 396 .8 .811764705882353 .8 83 3 389 .8 .8117647
05882353 .8 15 386 723 0 535 379 530 17 535 0 386 535 535 0 115 111 0 0 -17 115
 0 536 115 115 0 535 111 0 0 +15 536 728 0 115 372 0 83 3 382 .8 .81176470588235
3 .8 15 110 727 0 107 372 536 83 3 376 .8 .811764705882353 .8 82 1 368 -17230068
71 83 3 367 1 1 1 79 14 363 SWEntUnchanged15 353 316 0 189 350 0 17 189 0 353 29
4 537 62 303 187 0 0 +17 294 0 353 318 189 56 64 153 0 159 -17 537 0 353 189 318
 83 79 137 0 0 -17 303 0 330 201 204 83 189 187 0 537 -15 330 308 0 201 324 0 17
 201 0 330 204 303 32 300 199 0 0 +17 204 0 330 303 201 62 296 202 0 189 +17 318
 0 353 537 294 77 58 176 0 312 -17 79 0 341 141 85 77 537 137 0 318 +15 341 165
 0 79 15 0 17 141 0 341 88 79 80 312 139 0 0 +17 85 0 341 79 88 83 302 133 0 300
 +17 88 0 341 85 141 86 307 135 0 302 +82 1 339 953090158 82 1 329 -1719992215 1
7 31 0 243 240 280 11 23 10 0 236 -19 16 95 0 1 0 9 5 S74 20 14 3 0 0 482 2 415
 0 0 0 0 0 0 0 0 0 0 0 0 0 0 0 0 0 80 2 12 538 539 8004 0 0 0 0 3 5 0 0 0 FFTFFF
FFFFFFFF2 3 83 1 13 1 79 16 539 SDL/TYSA_DENSITY1 0 
