**ABCDEFGHIJKLMNOPQRSTUVWXYZabcdefghijklmnopqrstuvwxyz**************************
**PARASOLID !"#$%&'()*+,-./:;<=>?@[\]^_`{|}~0123456789**************************
**PART1;
MC=AMD64;
MC_MODEL=Intel64 Family 6 Model 158 Stepping 13, GenuineIntel;
MC_ID=unknown;
OS=Windows_NT;
OS_RELEASE=unknown;
FRU=Parasolid Version 30.0, build 310,  6- 8-2018;
APPL=SOLIDWORKS 2018-2018316;
SITE=;
USER=unknown;
FORMAT=text;
GUISE=transmit;
KEY=R_Box_L8.4_W2.5_P5.08_Vertical;
FILE=R_Box_L8.4_W2.5_P5.08_Vertical.x_t;
DATE=Sat Mar  2 11:26:50 2024;
**PART2;
SCH=SCH_3000310_30000;
USFLD_SIZE=0;
**PART3;
**END_OF_HEADER*****************************************************************
T51 : TRANSMIT FILE created by modeller version 300031017 SCH_2000000_200000 12
 1 706 2 3 0 0 0 0 1e3 1e-8 0 4 0 1 0 1 1 5 6 7 8 9 10 11 0 0 0 0 81 2 2 540 12
 1 0 0 0 0 13 0 70 3 0 4 T1 0 0 3 20 1 14 14 13 5 94 0 1 0 15 0 0 16 0 51 6 427
 0 17 18 0 0 +-.0041 711236625150491e-33 .00115 1734723475976805e-31 1 0 1e-4 -1
 1734723475976805e-31 0 31 7 439 0 19 20 0 0 +-.0041 .0054 .00115 0 1 0 0 0 1 1e
-4 29 8 312 0 11 21 0 -.0041 .0054 -.00125 19 9 28 0 1 16 0 22 V16 10 334 0 ?23
 0 24 25 0 0 1 18 11 310 0 26 0 27 8 ?1 17 26 0 28 29 30 11 31 32 0 33 +18 27 30
6 0 29 11 34 21 ?1 17 29 0 28 35 26 27 36 37 0 38 +18 34 303 0 35 27 39 40 ?1 29
 21 308 0 27 40 8 .0041 .0054 -.00125 29 40 305 0 34 41 21 .0041 5e-4 -.00125 29
 41 302 0 39 42 40 -.0041 5e-4 -.00125 18 39 300 0 23 34 43 41 ?1 29 42 293 0 43
 44 41 -.0042 .0054 -.00115 18 43 291 0 45 39 46 42 ?1 29 44 289 0 46 47 42 -.00
42 .0054 .00115 18 46 287 0 48 43 49 44 ?1 29 47 286 0 49 50 44 -.0042 5e-4 -.00
115 18 49 284 0 51 46 52 47 ?1 29 50 283 0 52 53 47 -.0042 5e-4 .00115 18 52 281
 0 54 49 55 50 ?1 29 53 274 0 55 56 50 -.0041 .0054 .00125 18 55 272 0 57 52 58
 53 ?1 29 56 270 0 58 59 53 .0041 .0054 .00125 18 58 268 0 60 55 61 56 ?1 29 59
 267 0 61 62 56 .0041 5e-4 .00125 18 61 265 0 63 58 64 59 ?1 29 62 264 0 64 65 5
9 -.0041 5e-4 .00125 18 64 262 0 66 61 67 62 ?1 29 65 255 0 67 68 62 .0042 .0054
 -.00115 18 67 253 0 69 64 70 65 ?1 29 68 251 0 70 71 65 .0042 .0054 .00115 18 7
0 249 0 72 67 73 68 ?1 29 71 248 0 73 74 68 .0042 5e-4 -.00115 18 73 246 0 75 70
 76 71 ?1 29 74 245 0 76 77 71 .0042 5e-4 .00115 18 76 243 0 78 73 79 74 ?1 29 7
7 236 0 79 80 74 .0041 .0055 .00115 18 79 234 0 81 76 82 77 ?1 29 80 232 0 82 83
 77 -.0041 .0055 .00115 18 82 230 0 84 79 85 80 ?1 29 83 228 0 85 86 80 -.0041 .
0055 -.00115 18 85 226 0 87 82 88 83 ?1 29 86 225 0 88 0 83 .0041 .0055 -.00115
 18 88 223 0 89 85 0 86 ?1 17 89 0 90 91 92 88 93 94 0 95 +15 90 372 0 72 96 0 1
7 91 0 90 72 89 79 97 98 0 0 -17 92 0 90 89 72 67 99 100 0 93 -17 93 0 101 102 9
5 67 89 94 0 0 -16 94 406 0 ?89 103 0 104 0 0 1 17 95 0 101 93 102 88 105 106 0
 107 +15 101 370 0 102 108 0 17 102 0 101 95 93 27 109 110 0 0 +17 105 0 111 36
 107 27 95 106 0 102 -16 106 401 0 ?95 112 110 113 0 0 1 17 107 0 111 105 114 88
 87 115 0 97 -15 111 364 0 114 116 0 17 114 0 111 107 36 85 117 118 0 0 +17 87 0
 119 84 97 85 107 115 0 120 +16 115 227 0 ?87 121 122 123 0 0 1 17 97 0 119 87 8
1 88 91 98 0 0 +15 119 224 0 81 124 0 17 81 0 119 97 84 79 125 126 0 127 +16 98
 238 0 ?97 128 126 129 0 0 1 16 128 250 0 ?78 100 98 130 0 0 1 16 126 235 0 ?81
 98 121 131 0 0 1 30 129 240 0 98 131 130 0 +.0041 .0055 .00125 0 0 -1 30 131 23
7 0 126 132 129 0 -.0042 .0055 .00115 -1 2065146995210485e-31 0 30 130 252 0 128
 129 133 0 -.0042 5e-4 .00115 867361737988404e-30 1 0 30 133 256 0 100 130 134 0
 -.0042 .0054 .00125 0 0 -1 16 100 254 0 ?99 135 128 133 0 0 1 30 134 259 0 135
 133 136 0 +.0042 .0055 -.00115 867361737988404e-30 1 0 16 135 257 0 ?69 137 100
 134 0 0 1 30 136 271 0 137 134 138 0 +.0041 .0055 .00125 867361737988404e-30 1
 0 16 137 269 0 ?60 139 135 136 0 0 1 30 138 275 0 139 136 140 0 +-.0042 .0054 .
00125 -1 2065146995210485e-31 0 16 139 273 0 ?57 141 137 138 0 0 1 30 140 278 0
 141 138 142 0 +-.0041 5e-4 .00125 -1734723475976805e-31 -1 0 16 141 276 0 ?66 1
43 139 140 0 0 1 30 142 290 0 143 140 144 0 --.0042 .0055 .00115 -17347234759768
05e-31 -1 0 16 143 288 0 ?48 145 141 142 0 0 1 30 144 294 0 145 142 146 0 +-.004
2 .0054 .00125 0 0 -1 16 145 292 0 ?45 147 143 144 0 0 1 30 146 297 0 147 144 14
8 0 +-.0042 .0055 -.00115 -1734723475976805e-31 -1 0 16 147 295 0 ?51 149 145 14
6 0 0 1 30 148 309 0 149 146 150 0 -.0041 -3556183125752455e-33 -.00125 86736173
7988404e-30 1 0 16 149 307 0 ?35 37 147 148 0 0 1 30 150 313 0 37 148 151 0 -111
5179377413662e-33 .0054 -.00125 -1 2065146995210485e-31 0 16 37 311 0 ?29 32 149
 150 0 0 1 30 151 316 0 32 150 152 0 --.0041 711236625150491e-33 -.00125 -173472
3475976805e-31 -1 0 16 32 314 0 ?26 153 37 151 0 0 1 31 152 321 0 153 151 154 0
 -.0041 5e-4 .00115 0 1 0 0 0 1 1e-4 16 153 319 0 ?63 155 32 152 0 0 1 31 154 32
6 0 155 152 156 0 -.0041 5e-4 -.00115 0 1 0 0 0 1 1e-4 16 155 324 0 ?75 24 153 1
54 0 0 1 31 156 331 0 24 154 25 0 --.0041 5e-4 .00115 0 1 0 0 0 1 1e-4 16 24 329
 0 ?54 10 155 156 0 0 1 31 25 336 0 10 156 104 0 --.0041 5e-4 -.00115 0 1 0 0 0
 1 1e-4 31 104 450 0 94 25 157 0 -.0041 .0054 -.00115 0 0 -1 -1 0 0 1e-4 31 157
 449 0 103 104 158 0 -.0041 .0054 .00115 0 0 1 1 0 0 1e-4 16 103 404 0 ?72 110 9
4 157 0 0 1 31 158 448 0 110 157 113 0 +.0041 .0054 -.00115 0 1 0 0 0 1 1e-4 16
 110 402 0 ?102 106 103 158 0 0 1 31 113 447 0 106 158 159 0 +.0041 .0054 -.0011
5 1 -867361737988401e-29 0 867361737988401e-29 1 0 1e-4 31 159 446 0 112 113 160
 0 +.0041 .0054 .00115 1 0 867361737988403e-29 867361737988403e-29 0 -1 1e-4 16
 112 400 0 ?161 162 106 159 0 0 1 31 160 445 0 162 159 163 0 +.0041 .0054 .00115
 0 1 0 0 0 1 1e-4 16 162 399 0 ?164 118 112 160 0 0 1 31 163 444 0 118 160 165 0
 --.0041 .0054 -.00115 -1 0 0 0 0 1 1e-4 16 118 394 0 ?114 166 162 163 0 0 1 31
 165 443 0 166 163 167 0 --.0041 .0054 .00115 -1 0 0 0 0 1 1e-4 16 166 391 0 ?16
8 169 118 165 0 0 1 31 167 442 0 169 165 170 0 +-.0041 .0054 -.00115 0 1 0 0 0 1
 1e-4 16 169 386 0 ?171 172 166 167 0 0 1 31 170 441 0 172 167 20 0 +-.0041 .005
4 -.00115 0 0 -1 -1 0 0 1e-4 16 172 385 0 ?173 174 169 170 0 0 1 31 20 440 0 174
 170 7 0 +-.0041 .0054 .00115 0 0 1 1 0 0 1e-4 16 174 384 0 ?175 19 172 20 0 0 1
 17 175 0 176 177 178 46 179 174 0 0 +16 19 383 0 ?177 180 174 7 0 0 1 17 177 0
 176 178 175 55 181 19 0 168 +16 180 179 0 ?182 183 19 184 0 0 1 17 182 0 185 18
2 182 0 186 180 0 0 +16 183 146 0 ?187 188 180 189 0 0 1 31 184 199 0 180 0 189
 0 +.00254 -.002 0 0 -1 0 0 0 1 325e-6 31 189 166 0 183 184 190 0 +-.00254 -.002
 0 0 -1 0 0 0 -1 325e-6 30 190 8 0 191 189 192 0 +-.0042 5e-4 .00125 1 0 0 16 19
1 263 0 ?193 194 188 190 0 0 1 30 192 68 0 188 190 195 0 +-.0042 5e-4 -.00125 1
 0 0 16 188 301 0 ?196 191 183 192 0 0 1 30 195 92 0 194 192 197 0 +.0042 5e-4 .
00125 0 0 -1 16 194 244 0 ?198 199 191 195 0 0 1 30 197 93 0 199 195 200 0 +-.00
42 5e-4 .00125 0 0 -1 16 199 282 0 ?201 202 194 197 0 0 1 31 200 139 0 202 197 2
03 0 --.00254 5e-4 0 0 1 0 0 0 1 325e-6 16 202 136 0 ?204 122 199 200 0 0 1 31 2
03 172 0 122 200 123 0 -.00254 5e-4 0 0 1 0 0 0 1 325e-6 16 122 169 0 ?205 115 2
02 203 0 0 1 30 123 229 0 115 203 132 0 +-.0042 .0055 -.00115 -1 206514699521048
5e-31 0 30 132 233 0 121 123 131 0 --.0041 .0055 .00125 0 0 -1 16 121 231 0 ?84
 126 115 132 0 0 1 17 84 0 119 81 87 82 120 121 0 179 +17 120 0 206 207 179 85 8
4 121 0 173 -17 179 0 206 120 208 82 175 174 0 178 -15 206 352 0 207 209 0 17 20
8 0 206 179 207 46 45 145 0 181 -17 178 0 176 175 177 82 168 166 0 125 -15 176 3
56 0 175 210 0 17 168 0 211 212 125 55 178 166 0 0 +17 125 0 211 168 127 82 81 1
26 0 0 -15 211 362 0 168 213 0 17 127 0 211 125 212 79 161 112 0 214 -17 212 0 2
11 127 168 58 57 139 0 215 -17 161 0 216 164 214 58 127 112 0 0 +17 214 0 216 16
1 164 79 72 103 0 91 -15 216 368 0 161 217 0 17 164 0 216 214 161 70 215 162 0 2
18 +17 72 0 90 92 91 70 214 103 0 164 +17 215 0 219 220 218 58 164 162 0 161 -17
 218 0 219 215 221 70 78 128 0 99 -15 219 360 0 221 222 0 17 221 0 219 218 220 7
6 63 153 0 0 -17 78 0 223 198 99 76 218 128 0 224 +17 99 0 223 78 69 70 92 100 0
 0 +15 223 80 0 198 225 0 17 69 0 223 99 198 67 226 135 0 109 +17 198 0 223 69 7
8 73 224 194 0 226 +17 226 0 227 228 109 73 69 135 0 0 -17 109 0 227 226 38 67 1
02 110 0 92 -15 227 366 0 228 229 0 17 38 0 227 109 228 27 35 149 0 105 -17 228
 0 227 38 226 34 75 155 0 0 -17 35 0 28 30 29 34 38 149 0 196 +15 28 44 0 30 230
 0 17 30 0 28 26 35 39 196 188 0 31 -17 196 0 231 75 23 34 30 188 0 228 +15 231
 82 0 201 232 0 17 75 0 231 224 196 73 228 155 0 198 +17 23 0 231 196 201 39 233
 10 0 30 +17 201 0 231 23 54 49 234 199 0 233 +17 233 0 235 236 31 49 23 10 0 0
 -15 235 354 0 233 237 0 17 236 0 235 33 233 43 51 147 0 207 -17 31 0 235 233 33
 39 26 32 0 0 -17 33 0 235 31 236 11 171 169 0 117 -17 171 0 238 173 117 43 33 1
69 0 0 +17 117 0 238 171 173 11 114 118 0 36 -15 238 358 0 171 239 0 17 173 0 23
8 117 171 85 207 172 0 114 +17 36 0 111 114 105 11 29 37 0 0 -17 207 0 206 208 1
20 43 173 172 0 171 -14 239 357 240 ?222 210 238 5 241 +0 0 222 210 22 81 1 240
 685 242 239 243 0 0 244 245 14 222 359 244 ?213 239 219 5 246 +0 0 213 239 22 1
4 210 355 247 ?239 237 176 5 248 +0 0 239 237 22 53 241 431 0 239 246 248 0 +-.0
041 .0054 -.00115 1e-4 0 0 1 1 0 0 13 22 29 0 0 0 0 0 0 9 15 14 15 85 249 ?232 0
 250 5 251 -0 0 232 0 22 81 1 249 688 242 15 252 0 247 253 254 14 232 83 253 ?22
5 15 255 5 256 -0 0 225 15 22 15 250 84 0 45 15 0 50 251 89 0 15 256 257 0 +-.00
42 .0055 .00125 1 -1734723475976805e-31 0 1734723475976805e-31 1 0 50 256 88 0 2
32 258 251 0 +-.0042 5e-4 .00125 0 1 0 0 0 1 51 257 438 0 96 251 259 0 +.0041 .0
054 .00125 0 0 -1 1e-4 -1 0 0 14 96 371 260 ?0 108 90 5 257 +0 0 0 108 22 53 259
 437 0 108 257 261 0 +.0041 .0054 -.00115 1e-4 0 0 1 1 0 0 14 108 369 262 ?96 21
7 101 5 259 +0 0 96 217 22 53 261 436 0 217 259 263 0 +.0041 .0054 .00115 1e-4 0
 0 1 1 0 0 14 217 367 264 ?108 229 216 5 261 +0 0 108 229 22 51 263 435 0 229 26
1 265 0 +.0041 .0055 -.00115 867361737988404e-30 1 0 1e-4 -1 867361737988404e-30
 0 14 229 365 266 ?217 116 227 5 263 +0 0 217 116 22 51 265 434 0 116 263 267 0
 +-.0042 .0054 -.00115 -1 2065146995210485e-31 0 1e-4 -2065146995210485e-31 -1 0
 14 116 363 268 ?229 213 111 5 265 +0 0 229 213 22 51 267 433 0 213 265 246 0 +1
115179377413662e-33 .0054 .00115 1 -2065146995210485e-31 0 1e-4 2065146995210485
e-31 1 0 14 213 361 269 ?116 222 211 5 267 +0 0 116 222 22 51 246 432 0 222 267
 241 0 +.0041 -3556183125752455e-33 .00115 -867361737988404e-30 -1 0 1e-4 1 -867
361737988404e-30 0 81 1 269 695 242 213 270 0 268 271 272 80 1 242 273 274 9000
 1 1 1 1 1 1 1 1 0 FFFFTFTFFFFFFF1 81 1 270 633 275 213 0 269 276 277 278 81 1 2
68 694 242 116 277 0 266 269 279 81 1 271 696 242 237 280 0 269 281 282 82 1 272
 2113405044 14 237 353 271 ?210 209 235 5 283 +0 0 210 209 22 81 1 280 629 275 2
37 0 271 284 285 286 81 1 281 697 242 209 284 0 271 287 288 82 1 282 2117206132
 14 209 351 281 ?237 17 206 5 18 +0 0 237 17 22 81 1 284 628 275 209 0 281 289 2
80 290 81 1 287 698 242 17 289 0 281 291 292 82 1 288 2118320244 14 17 349 287 ?
209 293 294 5 6 +0 0 209 293 22 81 1 289 627 275 17 0 287 295 284 296 81 1 291 6
99 242 293 295 0 287 297 298 82 1 292 2118713460 14 293 187 291 ?17 299 185 5 30
0 -0 0 17 299 22 81 1 295 626 275 293 0 291 301 289 302 81 1 297 700 242 299 301
 0 291 303 304 82 1 298 2097479795 14 299 182 297 ?293 305 306 5 307 -0 0 293 30
5 22 81 1 301 625 275 299 0 297 308 295 309 81 1 303 701 242 305 308 0 297 310 3
11 82 1 304 2099445875 14 305 154 303 ?299 312 313 5 314 +0 0 299 312 22 81 1 30
8 624 275 305 0 303 315 301 316 81 1 310 702 242 312 315 0 303 317 318 82 1 311
 2093351027 14 312 149 310 ?305 230 319 5 320 -0 0 305 230 22 81 1 315 623 275 3
12 0 310 321 308 322 81 1 317 703 242 230 321 0 310 323 324 82 1 318 2095317107
 14 230 43 317 ?312 325 28 5 326 -0 0 312 325 22 81 1 321 622 275 230 0 317 327
 315 328 81 1 323 704 242 325 327 0 317 329 330 82 1 324 489160820 14 325 1 323
 ?230 124 331 5 332 +0 0 230 124 22 81 1 327 621 275 325 0 323 333 321 334 81 1
 329 705 242 124 333 0 323 335 336 82 1 330 483524724 14 124 79 329 ?325 225 119
 5 337 -0 0 325 225 22 81 1 333 620 275 124 0 329 338 327 339 81 1 335 706 242 2
25 338 0 329 0 340 82 1 336 490078324 14 225 81 335 ?124 232 223 5 258 -0 0 124
 232 22 81 1 338 619 275 225 0 335 341 333 342 82 1 340 490340468 80 1 275 0 343
 8001 0 0 0 0 3 5 0 0 0 FFFFTFTFFFFFFF2 81 1 341 618 275 232 0 253 252 338 344 8
3 3 342 .729411764705882 .356862745098039 .0235294117647059 81 1 253 689 242 232
 341 0 249 260 345 81 1 252 617 275 15 0 249 0 341 346 83 3 344 .729411764705882
 .356862745098039 .0235294117647059 83 3 346 .729411764705882 .356862745098039 .
0235294117647059 81 1 260 690 242 96 347 0 253 262 348 82 1 345 490602612 81 1 3
47 638 275 96 0 260 349 0 350 81 1 262 691 242 108 349 0 260 264 351 82 1 348 21
07900020 81 1 349 637 275 108 0 262 352 347 353 81 1 264 692 242 217 352 0 262 2
66 354 82 1 351 2109472884 81 1 352 636 275 217 0 264 355 349 356 81 1 266 693 2
42 229 355 0 264 268 357 82 1 354 2110324852 81 1 355 635 275 229 0 266 277 352
 358 82 1 357 2111176820 81 1 277 634 275 116 0 268 270 355 359 83 3 358 .729411
764705882 .356862745098039 .0235294117647059 83 3 359 .729411764705882 .35686274
5098039 .0235294117647059 83 3 356 .729411764705882 .356862745098039 .0235294117
647059 83 3 353 .729411764705882 .356862745098039 .0235294117647059 83 3 350 .72
9411764705882 .356862745098039 .0235294117647059 79 15 343 SDL/TYSA_COLOUR50 258
 87 0 225 337 256 0 +.0042 .0055 .00125 -1 867361737988404e-30 0 -86736173798840
4e-30 -1 0 50 337 86 0 124 326 258 0 +-.0042 .0055 .00125 -2065146995210485e-31
 -1 0 1 -2065146995210485e-31 0 50 326 65 0 230 332 337 0 +0 0 -.00125 0 0 1 1 0
 0 50 332 2 0 325 320 326 0 +0 0 .00125 0 0 1 1 0 0 51 320 162 0 312 314 332 0 -
-.00254 -.002 0 0 1 0 325e-6 0 0 1 50 314 164 0 305 307 320 0 +-.00254 -.002 0 0
 -1 0 0 0 -1 51 307 195 0 299 300 314 0 -.00254 -.002 0 0 1 0 325e-6 0 0 1 50 30
0 197 0 293 0 307 0 +.00254 -.002 0 0 1 0 0 0 1 83 3 339 .729411764705882 .35686
2745098039 .0235294117647059 83 3 334 .729411764705882 .356862745098039 .0235294
117647059 15 331 3 0 57 325 0 17 57 0 331 66 60 55 212 139 0 360 +17 66 0 331 19
3 57 64 360 141 0 361 +17 60 0 331 57 193 58 220 137 0 212 +17 360 0 294 181 362
 55 66 141 0 177 -15 294 350 0 362 17 0 17 181 0 294 363 360 46 177 19 0 175 -17
 362 0 294 360 363 64 54 24 0 0 -17 363 0 294 362 181 52 48 143 0 0 -17 54 0 231
 201 361 52 362 24 0 234 +17 361 0 231 54 63 64 193 191 0 362 -17 234 0 250 48 5
1 52 201 199 0 363 -17 48 0 250 45 234 46 363 143 0 208 +17 51 0 250 234 45 49 2
36 147 0 201 +17 45 0 250 51 48 43 208 145 0 236 +17 63 0 231 361 224 61 221 153
 0 193 +17 193 0 331 60 66 61 361 191 0 220 +17 220 0 219 221 215 61 60 137 0 0
 -17 224 0 231 63 75 76 198 194 0 221 -83 3 328 .729411764705882 .35686274509803
9 .0235294117647059 83 3 322 .8 .811764705882353 .8 15 319 152 0 364 312 365 17
 364 0 319 364 364 0 187 183 0 0 -15 365 153 0 204 312 0 17 204 0 365 204 204 0
 366 202 0 0 +17 366 0 367 366 366 0 204 202 0 0 -15 367 138 0 366 232 231 17 18
7 0 313 187 187 0 364 183 0 0 +15 313 156 0 187 305 0 83 3 316 .8 .8117647058823
53 .8 83 3 309 .8 .811764705882353 .8 15 306 185 0 186 299 368 17 186 0 306 186
 186 0 182 180 0 0 -15 368 186 0 205 299 0 17 205 0 368 205 205 0 369 122 0 0 +1
7 369 0 255 369 369 0 205 122 0 0 -15 255 171 0 369 232 367 83 3 302 .8 .8117647
05882353 .8 15 185 189 0 182 293 0 83 3 296 .729411764705882 .356862745098039 .0
235294117647059 83 3 290 .729411764705882 .356862745098039 .0235294117647059 51
 18 428 0 209 283 6 0 +-.0041 .0054 .00125 0 0 -1 1e-4 -1 0 0 51 283 429 0 237 2
48 18 0 +-.0041 .0055 -.00115 -1734723475976805e-31 -1 0 1e-4 1 -173472347597680
5e-31 0 53 248 430 0 210 241 283 0 +-.0041 .0054 .00115 1e-4 0 0 1 1 0 0 81 1 28
5 630 275 210 0 247 280 243 370 83 3 286 .729411764705882 .356862745098039 .0235
294117647059 81 1 247 687 242 210 285 0 244 249 371 81 1 243 631 275 239 0 240 2
85 276 372 83 3 370 .729411764705882 .356862745098039 .0235294117647059 81 1 276
 632 275 222 0 244 243 270 373 83 3 372 .729411764705882 .356862745098039 .02352
94117647059 81 1 244 686 242 222 276 0 240 247 374 83 3 373 .729411764705882 .35
6862745098039 .0235294117647059 82 1 374 2114519156 82 1 371 2116354164 82 1 279
 2112290932 83 3 278 .729411764705882 .356862745098039 .0235294117647059 79 14 2
74 SWEntUnchanged82 1 254 490864756 82 1 245 2115567732 19 16 95 0 1 0 9 5 S74 2
0 14 3 0 0 335 2 347 0 0 0 0 0 0 0 0 0 0 0 0 0 0 0 0 0 80 2 12 375 376 8004 0 0
 0 0 3 5 0 0 0 FFTFFFFFFFFFFF2 3 83 1 13 1 79 16 376 SDL/TYSA_DENSITY1 0 
