**ABCDEFGHIJKLMNOPQRSTUVWXYZabcdefghijklmnopqrstuvwxyz**************************
**PARASOLID !"#$%&'()*+,-./:;<=>?@[\]^_`{|}~0123456789**************************
**PART1;
MC=AMD64;
MC_MODEL=Intel64 Family 6 Model 158 Stepping 13, GenuineIntel;
MC_ID=unknown;
OS=Windows_NT;
OS_RELEASE=unknown;
FRU=Parasolid Version 30.0, build 310,  6- 8-2018;
APPL=SOLIDWORKS 2018-2018316;
SITE=;
USER=unknown;
FORMAT=text;
GUISE=transmit;
KEY=R_Box_L13.0_W4.0_P9.00_Vertical;
FILE=R_Box_L13.0_W4.0_P9.00_Vertical.x_t;
DATE=Sat Mar  2 11:31:55 2024;
**PART2;
SCH=SCH_3000310_30000;
USFLD_SIZE=0;
**PART3;
**END_OF_HEADER*****************************************************************
T51 : TRANSMIT FILE created by modeller version 300031017 SCH_2000000_200000 12
 1 701 2 3 0 0 0 0 1e3 1e-8 0 4 0 1 0 1 1 5 6 7 8 9 10 11 0 0 0 0 81 2 2 536 12
 1 0 0 0 0 13 0 70 3 0 4 T1 0 0 3 20 1 14 14 13 5 94 0 1 0 15 0 0 16 0 51 6 423
 0 17 18 0 0 +-.0064 693889390390723e-33 .0019 1084202172485504e-31 1 0 1e-4 -1
 1084202172485504e-31 0 31 7 435 0 19 20 0 0 +-.0064 .0084 .0019 0 1 0 0 0 1 1e-
4 29 8 308 0 11 21 0 -.0064 .0084 -.002 19 9 28 0 1 16 0 22 V16 10 330 0 ?23 0 2
4 25 0 0 1 18 11 306 0 26 0 27 8 ?1 17 26 0 28 29 30 11 31 32 0 33 +18 27 302 0
 29 11 34 21 ?1 17 29 0 28 35 26 27 36 37 0 38 +18 34 299 0 35 27 39 40 ?1 29 21
 304 0 27 40 8 .0064 .0084 -.002 29 40 301 0 34 41 21 .0064 5e-4 -.002 29 41 298
 0 39 42 40 -.0064 5e-4 -.002 18 39 296 0 23 34 43 41 ?1 29 42 289 0 43 44 41 -.
0065 .0084 -.0019 18 43 287 0 45 39 46 42 ?1 29 44 285 0 46 47 42 -.0065 .0084 .
0019 18 46 283 0 48 43 49 44 ?1 29 47 282 0 49 50 44 -.0065 5e-4 -.0019 18 49 28
0 0 51 46 52 47 ?1 29 50 279 0 52 53 47 -.0065 5e-4 .0019 18 52 277 0 54 49 55 5
0 ?1 29 53 270 0 55 56 50 -.0064 .0084 .002 18 55 268 0 57 52 58 53 ?1 29 56 266
 0 58 59 53 .0064 .0084 .002 18 58 264 0 60 55 61 56 ?1 29 59 263 0 61 62 56 .00
64 5e-4 .002 18 61 261 0 63 58 64 59 ?1 29 62 260 0 64 65 59 -.0064 5e-4 .002 18
 64 258 0 66 61 67 62 ?1 29 65 251 0 67 68 62 .0065 .0084 -.0019 18 67 249 0 69
 64 70 65 ?1 29 68 247 0 70 71 65 .0065 .0084 .0019 18 70 245 0 72 67 73 68 ?1 2
9 71 244 0 73 74 68 .0065 5e-4 -.0019 18 73 242 0 75 70 76 71 ?1 29 74 241 0 76
 77 71 .0065 5e-4 .0019 18 76 239 0 78 73 79 74 ?1 29 77 232 0 79 80 74 .0064 .0
085 .0019 18 79 230 0 81 76 82 77 ?1 29 80 228 0 82 83 77 -.0064 .0085 .0019 18
 82 226 0 84 79 85 80 ?1 29 83 224 0 85 86 80 -.0064 .0085 -.0019 18 85 222 0 87
 82 88 83 ?1 29 86 221 0 88 0 83 .0064 .0085 -.0019 18 88 219 0 89 85 0 86 ?1 17
 89 0 90 91 92 88 93 94 0 95 +15 90 368 0 72 96 0 17 91 0 90 72 89 79 97 98 0 0
 -17 92 0 90 89 72 67 99 100 0 93 -17 93 0 101 102 95 67 89 94 0 0 -16 94 402 0
 ?89 103 0 104 0 0 1 17 95 0 101 93 102 88 105 106 0 107 +15 101 366 0 102 108 0
 17 102 0 101 95 93 27 109 110 0 0 +17 105 0 111 36 107 27 95 106 0 102 -16 106
 397 0 ?95 112 110 113 0 0 1 17 107 0 111 105 114 88 87 115 0 97 -15 111 360 0 1
14 116 0 17 114 0 111 107 36 85 117 118 0 0 +17 87 0 119 84 97 85 107 115 0 120
 +16 115 223 0 ?87 121 122 123 0 0 1 17 97 0 119 87 81 88 91 98 0 0 +15 119 220
 0 81 124 0 17 81 0 119 97 84 79 125 126 0 127 +16 98 234 0 ?97 128 126 129 0 0
 1 16 128 246 0 ?78 100 98 130 0 0 1 16 126 231 0 ?81 98 121 131 0 0 1 30 129 23
6 0 98 131 130 0 +.0064 .0085 .002 0 0 -1 30 131 233 0 126 132 129 0 -.0065 .008
5 .0019 -1 0 0 30 130 248 0 128 129 133 0 -.0065 5e-4 .0019 0 1 0 30 133 252 0 1
00 130 134 0 -.0065 .0084 .002 0 0 -1 16 100 250 0 ?99 135 128 133 0 0 1 30 134
 255 0 135 133 136 0 +.0065 .0085 -.0019 0 1 0 16 135 253 0 ?69 137 100 134 0 0
 1 30 136 267 0 137 134 138 0 +.0064 .0085 .002 0 1 0 16 137 265 0 ?60 139 135 1
36 0 0 1 30 138 271 0 139 136 140 0 +-.0065 .0084 .002 -1 0 0 16 139 269 0 ?57 1
41 137 138 0 0 1 30 140 274 0 141 138 142 0 +-.0064 5e-4 .002 -1084202172485504e
-31 -1 0 16 141 272 0 ?66 143 139 140 0 0 1 30 142 286 0 143 140 144 0 --.0065 .
0085 .0019 -1084202172485504e-31 -1 0 16 143 284 0 ?48 145 141 142 0 0 1 30 144
 290 0 145 142 146 0 +-.0065 .0084 .002 0 0 -1 16 145 288 0 ?45 147 143 144 0 0
 1 30 146 293 0 147 144 148 0 +-.0065 .0085 -.0019 -1084202172485504e-31 -1 0 16
 147 291 0 ?51 149 145 146 0 0 1 30 148 305 0 149 146 150 0 -.0064 0 -.002 0 1 0
 16 149 303 0 ?35 37 147 148 0 0 1 30 150 309 0 37 148 151 0 -0 .0084 -.002 -1 0
 0 16 37 307 0 ?29 32 149 150 0 0 1 30 151 312 0 32 150 152 0 --.0064 6938893903
90723e-33 -.002 -1084202172485504e-31 -1 0 16 32 310 0 ?26 153 37 151 0 0 1 31 1
52 317 0 153 151 154 0 -.0064 5e-4 .0019 0 1 0 0 0 1 1e-4 16 153 315 0 ?63 155 3
2 152 0 0 1 31 154 322 0 155 152 156 0 -.0064 5e-4 -.0019 0 1 0 0 0 1 1e-4 16 15
5 320 0 ?75 24 153 154 0 0 1 31 156 327 0 24 154 25 0 --.0064 5e-4 .0019 0 1 0 0
 0 1 1e-4 16 24 325 0 ?54 10 155 156 0 0 1 31 25 332 0 10 156 104 0 --.0064 5e-4
 -.0019 0 1 0 0 0 1 1e-4 31 104 446 0 94 25 157 0 -.0064 .0084 -.0019 0 0 -1 -1
 0 0 1e-4 31 157 445 0 103 104 158 0 -.0064 .0084 .0019 0 0 1 1 0 0 1e-4 16 103
 400 0 ?72 110 94 157 0 0 1 31 158 444 0 110 157 113 0 +.0064 .0084 -.0019 0 1 0
 0 0 1 1e-4 16 110 398 0 ?102 106 103 158 0 0 1 31 113 443 0 106 158 159 0 +.006
4 .0084 -.0019 1 0 0 0 0 -1 1e-4 31 159 442 0 112 113 160 0 +.0064 .0084 .0019 1
 0 0 0 0 -1 1e-4 16 112 396 0 ?161 162 106 159 0 0 1 31 160 441 0 162 159 163 0
 +.0064 .0084 .0019 0 1 0 0 0 1 1e-4 16 162 395 0 ?164 118 112 160 0 0 1 31 163
 440 0 118 160 165 0 --.0064 .0084 -.0019 -1 0 0 0 0 1 1e-4 16 118 390 0 ?114 16
6 162 163 0 0 1 31 165 439 0 166 163 167 0 --.0064 .0084 .0019 -1 0 0 0 0 1 1e-4
 16 166 387 0 ?168 169 118 165 0 0 1 31 167 438 0 169 165 170 0 +-.0064 .0084 -.
0019 0 1 0 0 0 1 1e-4 16 169 382 0 ?171 172 166 167 0 0 1 31 170 437 0 172 167 2
0 0 +-.0064 .0084 -.0019 0 0 -1 -1 0 0 1e-4 16 172 381 0 ?173 174 169 170 0 0 1
 31 20 436 0 174 170 7 0 +-.0064 .0084 .0019 0 0 1 1 0 0 1e-4 16 174 380 0 ?175
 19 172 20 0 0 1 17 175 0 176 177 178 46 179 174 0 0 +16 19 379 0 ?177 180 174 7
 0 0 1 17 177 0 176 178 175 55 181 19 0 168 +16 180 175 0 ?182 183 19 184 0 0 1
 17 182 0 185 182 182 0 186 180 0 0 +16 183 142 0 ?187 188 180 189 0 0 1 31 184
 195 0 180 0 189 0 +.0045 -.002 1102182119232618e-33 0 -1 0 0 0 1 325e-6 31 189
 162 0 183 184 190 0 +-.0045 -.002 0 0 -1 0 0 0 -1 325e-6 30 190 8 0 191 189 192
 0 +-.0065 5e-4 .002 1 0 0 16 191 259 0 ?193 194 188 190 0 0 1 30 192 68 0 188 1
90 195 0 +-.0065 5e-4 -.002 1 0 0 16 188 297 0 ?196 191 183 192 0 0 1 30 195 92
 0 194 192 197 0 +.0065 5e-4 .002 0 0 -1 16 194 240 0 ?198 199 191 195 0 0 1 30
 197 93 0 199 195 200 0 +-.0065 5e-4 .002 0 0 -1 16 199 278 0 ?201 202 194 197 0
 0 1 31 200 135 0 202 197 203 0 --.0045 5e-4 0 0 1 0 0 0 1 325e-6 16 202 132 0 ?
204 122 199 200 0 0 1 31 203 168 0 122 200 123 0 -.0045 5e-4 1102182119232618e-3
3 0 1 0 0 0 1 325e-6 16 122 165 0 ?205 115 202 203 0 0 1 30 123 225 0 115 203 13
2 0 +-.0065 .0085 -.0019 -1 0 0 30 132 229 0 121 123 131 0 --.0064 .0085 .002 0
 0 -1 16 121 227 0 ?84 126 115 132 0 0 1 17 84 0 119 81 87 82 120 121 0 179 +17
 120 0 206 207 179 85 84 121 0 173 -17 179 0 206 120 208 82 175 174 0 178 -15 20
6 348 0 207 209 0 17 208 0 206 179 207 46 45 145 0 181 -17 178 0 176 175 177 82
 168 166 0 125 -15 176 352 0 175 210 0 17 168 0 211 212 125 55 178 166 0 0 +17 1
25 0 211 168 127 82 81 126 0 0 -15 211 358 0 168 213 0 17 127 0 211 125 212 79 1
61 112 0 214 -17 212 0 211 127 168 58 57 139 0 215 -17 161 0 216 164 214 58 127
 112 0 0 +17 214 0 216 161 164 79 72 103 0 91 -15 216 364 0 161 217 0 17 164 0 2
16 214 161 70 215 162 0 218 +17 72 0 90 92 91 70 214 103 0 164 +17 215 0 219 220
 218 58 164 162 0 161 -17 218 0 219 215 221 70 78 128 0 99 -15 219 356 0 221 222
 0 17 221 0 219 218 220 76 63 153 0 0 -17 78 0 223 198 99 76 218 128 0 224 +17 9
9 0 223 78 69 70 92 100 0 0 +15 223 80 0 198 225 0 17 69 0 223 99 198 67 226 135
 0 109 +17 198 0 223 69 78 73 224 194 0 226 +17 226 0 227 228 109 73 69 135 0 0
 -17 109 0 227 226 38 67 102 110 0 92 -15 227 362 0 228 229 0 17 38 0 227 109 22
8 27 35 149 0 105 -17 228 0 227 38 226 34 75 155 0 0 -17 35 0 28 30 29 34 38 149
 0 196 +15 28 44 0 30 230 0 17 30 0 28 26 35 39 196 188 0 31 -17 196 0 231 75 23
 34 30 188 0 228 +15 231 82 0 201 232 0 17 75 0 231 224 196 73 228 155 0 198 +17
 23 0 231 196 201 39 233 10 0 30 +17 201 0 231 23 54 49 234 199 0 233 +17 233 0
 235 236 31 49 23 10 0 0 -15 235 350 0 233 237 0 17 236 0 235 33 233 43 51 147 0
 207 -17 31 0 235 233 33 39 26 32 0 0 -17 33 0 235 31 236 11 171 169 0 117 -17 1
71 0 238 173 117 43 33 169 0 0 +17 117 0 238 171 173 11 114 118 0 36 -15 238 354
 0 171 239 0 17 173 0 238 117 171 85 207 172 0 114 +17 36 0 111 114 105 11 29 37
 0 0 -17 207 0 206 208 120 43 173 172 0 171 -14 239 353 240 ?222 210 238 5 241 +
0 0 222 210 22 81 1 240 680 242 239 243 0 0 244 245 14 222 355 244 ?213 239 219
 5 246 +0 0 213 239 22 14 210 351 247 ?239 237 176 5 248 +0 0 239 237 22 53 241
 427 0 239 246 248 0 +-.0064 .0084 -.0019 1e-4 0 0 1 1 0 0 13 22 29 0 0 0 0 0 0
 9 15 14 15 85 249 ?232 0 250 5 251 -0 0 232 0 22 81 1 249 683 242 15 252 0 247
 253 254 14 232 83 253 ?225 15 255 5 256 -0 0 225 15 22 15 250 84 0 45 15 0 50 2
51 89 0 15 256 257 0 +-.0065 .0085 .002 1 -1084202172485504e-31 0 10842021724855
04e-31 1 0 50 256 88 0 232 258 251 0 +-.0065 5e-4 .002 0 1 0 0 0 1 51 257 434 0
 96 251 259 0 +.0064 .0084 .002 0 0 -1 1e-4 -1 0 0 14 96 367 260 ?0 108 90 5 257
 +0 0 0 108 22 53 259 433 0 108 257 261 0 +.0064 .0084 -.0019 1e-4 0 0 1 1 0 0 1
4 108 365 262 ?96 217 101 5 259 +0 0 96 217 22 53 261 432 0 217 259 263 0 +.0064
 .0084 .0019 1e-4 0 0 1 1 0 0 14 217 363 264 ?108 229 216 5 261 +0 0 108 229 22
 51 263 431 0 229 261 265 0 +.0064 .0085 -.0019 0 1 0 1e-4 0 0 1 14 229 361 266
 ?217 116 227 5 263 +0 0 217 116 22 51 265 430 0 116 263 267 0 +-.0065 .0084 -.0
019 -1 0 0 1e-4 0 0 1 14 116 359 268 ?229 213 111 5 265 +0 0 229 213 22 51 267 4
29 0 213 265 246 0 +0 .0084 .0019 1 0 0 1e-4 0 0 -1 14 213 357 269 ?116 222 211
 5 267 +0 0 116 222 22 51 246 428 0 222 267 241 0 +.0064 0 .0019 0 -1 0 1e-4 0 0
 -1 81 1 269 690 242 213 270 0 268 271 272 80 1 242 273 274 9000 1 1 1 1 1 1 1 1
 0 FFFFTFTFFFFFFF1 81 1 270 628 275 213 0 269 276 277 278 81 1 268 689 242 116 2
77 0 266 269 279 81 1 271 691 242 237 280 0 269 281 282 82 1 272 1508573327 14 2
37 349 271 ?210 209 235 5 283 +0 0 210 209 22 81 1 280 624 275 237 0 271 284 285
 286 81 1 281 692 242 209 284 0 271 287 288 82 1 282 1512374415 14 209 347 281 ?
237 17 206 5 18 +0 0 237 17 22 81 1 284 623 275 209 0 281 289 280 290 81 1 287 6
93 242 17 289 0 281 291 292 82 1 288 1513488527 14 17 345 287 ?209 293 294 5 6 +
0 0 209 293 22 81 1 289 622 275 17 0 287 295 284 296 81 1 291 694 242 293 295 0
 287 297 298 82 1 292 1513881743 14 293 183 291 ?17 299 185 5 300 -0 0 17 299 22
 81 1 295 621 275 293 0 291 301 289 302 81 1 297 695 242 299 301 0 291 303 304 8
2 1 298 1492648078 14 299 178 297 ?293 305 306 5 307 -0 0 293 305 22 81 1 301 62
0 275 299 0 297 308 295 309 81 1 303 696 242 305 308 0 297 310 311 82 1 304 1494
614158 14 305 150 303 ?299 312 313 5 314 +0 0 299 312 22 81 1 308 619 275 305 0
 303 315 301 316 81 1 310 697 242 312 315 0 303 317 318 82 1 311 1488519310 14 3
12 145 310 ?305 230 319 5 320 -0 0 305 230 22 81 1 315 618 275 312 0 310 321 308
 322 81 1 317 698 242 230 321 0 310 323 324 82 1 318 1490485390 14 230 43 317 ?3
12 325 28 5 326 -0 0 312 325 22 81 1 321 617 275 230 0 317 327 315 328 81 1 323
 699 242 325 327 0 317 329 330 82 1 324 1228406927 14 325 1 323 ?230 124 331 5 3
32 +0 0 230 124 22 81 1 327 616 275 325 0 323 333 321 334 81 1 329 700 242 124 3
33 0 323 335 336 82 1 330 1222770831 14 124 79 329 ?325 225 119 5 337 -0 0 325 2
25 22 81 1 333 615 275 124 0 329 338 327 339 81 1 335 701 242 225 338 0 329 0 34
0 82 1 336 1229324431 14 225 81 335 ?124 232 223 5 258 -0 0 124 232 22 81 1 338
 614 275 225 0 335 341 333 342 82 1 340 1229586575 80 1 275 0 343 8001 0 0 0 0 3
 5 0 0 0 FFFFTFTFFFFFFF2 81 1 341 613 275 232 0 253 252 338 344 83 3 342 .729411
764705882 .356862745098039 .0235294117647059 81 1 253 684 242 232 341 0 249 260
 345 81 1 252 612 275 15 0 249 0 341 346 83 3 344 .729411764705882 .356862745098
039 .0235294117647059 83 3 346 .729411764705882 .356862745098039 .02352941176470
59 81 1 260 685 242 96 347 0 253 262 348 82 1 345 1229848719 81 1 347 633 275 96
 0 260 349 0 350 81 1 262 686 242 108 349 0 260 264 351 82 1 348 1503068303 81 1
 349 632 275 108 0 262 352 347 353 81 1 264 687 242 217 352 0 262 266 354 82 1 3
51 1504641167 81 1 352 631 275 217 0 264 355 349 356 81 1 266 688 242 229 355 0
 264 268 357 82 1 354 1505493135 81 1 355 630 275 229 0 266 277 352 358 82 1 357
 1506345103 81 1 277 629 275 116 0 268 270 355 359 83 3 358 .729411764705882 .35
6862745098039 .0235294117647059 83 3 359 .729411764705882 .356862745098039 .0235
294117647059 83 3 356 .729411764705882 .356862745098039 .0235294117647059 83 3 3
53 .729411764705882 .356862745098039 .0235294117647059 83 3 350 .729411764705882
 .356862745098039 .0235294117647059 79 15 343 SDL/TYSA_COLOUR50 258 87 0 225 337
 256 0 +.0065 .0085 .002 -1 0 0 0 0 1 50 337 86 0 124 326 258 0 +-.0065 .0085 .0
02 0 -1 0 0 0 -1 50 326 65 0 230 332 337 0 +0 0 -.002 0 0 1 1 0 0 50 332 2 0 325
 320 326 0 +0 0 .002 0 0 1 1 0 0 51 320 158 0 312 314 332 0 --.0045 -.002 0 0 1
 0 325e-6 0 0 1 50 314 160 0 305 307 320 0 +-.0045 -.002 0 0 -1 0 0 0 -1 51 307
 191 0 299 300 314 0 -.0045 -.002 1102182119232618e-33 0 1 0 325e-6 0 0 1 50 300
 193 0 293 0 307 0 +.0045 -.002 1102182119232618e-33 0 1 0 0 0 1 83 3 339 .72941
1764705882 .356862745098039 .0235294117647059 83 3 334 .729411764705882 .3568627
45098039 .0235294117647059 15 331 3 0 57 325 0 17 57 0 331 66 60 55 212 139 0 36
0 +17 66 0 331 193 57 64 360 141 0 361 +17 60 0 331 57 193 58 220 137 0 212 +17
 360 0 294 181 362 55 66 141 0 177 -15 294 346 0 362 17 0 17 181 0 294 363 360 4
6 177 19 0 175 -17 362 0 294 360 363 64 54 24 0 0 -17 363 0 294 362 181 52 48 14
3 0 0 -17 54 0 231 201 361 52 362 24 0 234 +17 361 0 231 54 63 64 193 191 0 362
 -17 234 0 250 48 51 52 201 199 0 363 -17 48 0 250 45 234 46 363 143 0 208 +17 5
1 0 250 234 45 49 236 147 0 201 +17 45 0 250 51 48 43 208 145 0 236 +17 63 0 231
 361 224 61 221 153 0 193 +17 193 0 331 60 66 61 361 191 0 220 +17 220 0 219 221
 215 61 60 137 0 0 -17 224 0 231 63 75 76 198 194 0 221 -83 3 328 .7294117647058
82 .356862745098039 .0235294117647059 83 3 322 .8 .811764705882353 .8 15 319 148
 0 364 312 365 17 364 0 319 364 364 0 187 183 0 0 -15 365 149 0 204 312 0 17 204
 0 365 204 204 0 366 202 0 0 +17 366 0 367 366 366 0 204 202 0 0 -15 367 134 0 3
66 232 231 17 187 0 313 187 187 0 364 183 0 0 +15 313 152 0 187 305 0 83 3 316 .
8 .811764705882353 .8 83 3 309 .8 .811764705882353 .8 15 306 181 0 186 299 368 1
7 186 0 306 186 186 0 182 180 0 0 -15 368 182 0 205 299 0 17 205 0 368 205 205 0
 369 122 0 0 +17 369 0 255 369 369 0 205 122 0 0 -15 255 167 0 369 232 367 83 3
 302 .8 .811764705882353 .8 15 185 185 0 182 293 0 83 3 296 .729411764705882 .35
6862745098039 .0235294117647059 83 3 290 .729411764705882 .356862745098039 .0235
294117647059 51 18 424 0 209 283 6 0 +-.0064 .0084 .002 0 0 -1 1e-4 -1 0 0 51 28
3 425 0 237 248 18 0 +-.0064 .0085 -.0019 -1084202172485504e-31 -1 0 1e-4 1 -108
4202172485504e-31 0 53 248 426 0 210 241 283 0 +-.0064 .0084 .0019 1e-4 0 0 1 1
 0 0 81 1 285 625 275 210 0 247 280 243 370 83 3 286 .729411764705882 .356862745
098039 .0235294117647059 81 1 247 682 242 210 285 0 244 249 371 81 1 243 626 275
 239 0 240 285 276 372 83 3 370 .729411764705882 .356862745098039 .0235294117647
059 81 1 276 627 275 222 0 244 243 270 373 83 3 372 .729411764705882 .3568627450
98039 .0235294117647059 81 1 244 681 242 222 276 0 240 247 374 83 3 373 .7294117
64705882 .356862745098039 .0235294117647059 82 1 374 1509687439 82 1 371 1511522
447 82 1 279 1507459215 83 3 278 .729411764705882 .356862745098039 .023529411764
7059 79 14 274 SWEntUnchanged82 1 254 1230110863 82 1 245 1510736015 19 16 95 0
 1 0 9 5 S74 20 14 3 0 0 335 2 347 0 0 0 0 0 0 0 0 0 0 0 0 0 0 0 0 0 80 2 12 375
 376 8004 0 0 0 0 3 5 0 0 0 FFTFFFFFFFFFFF2 3 83 1 13 1 79 16 376 SDL/TYSA_DENSI
TY1 0 
